<svg xmlns="http://www.w3.org/2000/svg" xmlns:xlink="http://www.w3.org/1999/xlink" xmlns:lucid="lucid" width="900" height="640"><g transform="translate(-60 -60)" lucid:page-tab-id="0_0"><path d="M0 0h1760v1360H0z" fill="#fff"/><path d="M80 480h360v80H80z" stroke="#000" stroke-width="2" fill="#99d2f2"/><use xlink:href="#a" transform="matrix(1,0,0,1,85,485) translate(156.3525390625 42.6171875)"/><path d="M80 80h360v80H80z" stroke="#000" stroke-width="2" fill="#fe706f"/><use xlink:href="#b" transform="matrix(1,0,0,1,85,85) translate(109.6728515625 42.6171875)"/><use xlink:href="#c" transform="matrix(1,0,0,1,85,85) translate(139.9560546875 42.6171875)"/><path d="M80 160h360v80H80z" stroke="#000" stroke-width="2" fill="#fac92f"/><use xlink:href="#b" transform="matrix(1,0,0,1,85,165) translate(56.103515625 42.6171875)"/><use xlink:href="#d" transform="matrix(1,0,0,1,85,165) translate(86.38671875 42.6171875)"/><use xlink:href="#e" transform="matrix(1,0,0,1,85,165) translate(142.294921875 42.6171875)"/><use xlink:href="#f" transform="matrix(1,0,0,1,85,165) translate(243.193359375 42.6171875)"/><path d="M80 240h360v80H80z" stroke="#000" stroke-width="2" fill="#fac92f"/><use xlink:href="#b" transform="matrix(1,0,0,1,85,245) translate(74.873046875 42.6171875)"/><use xlink:href="#g" transform="matrix(1,0,0,1,85,245) translate(105.15625 42.6171875)"/><use xlink:href="#h" transform="matrix(1,0,0,1,85,245) translate(170.60546875 42.6171875)"/><path d="M80 400h360v80H80z" stroke="#000" stroke-width="2" fill="#a3d977"/><use xlink:href="#i" transform="matrix(1,0,0,1,85,405) translate(139.9560546875 42.6171875)"/><path d="M80 320h360v80H80z" stroke="#000" stroke-width="2" fill="#fac92f"/><use xlink:href="#j" transform="matrix(1,0,0,1,85,325) translate(21.591796875 42.6171875)"/><use xlink:href="#k" transform="matrix(1,0,0,1,85,325) translate(75.712890625 42.6171875)"/><use xlink:href="#l" transform="matrix(1,0,0,1,85,325) translate(140.80078125 42.6171875)"/><use xlink:href="#m" transform="matrix(1,0,0,1,85,325) translate(202.080078125 42.6171875)"/><use xlink:href="#n" transform="matrix(1,0,0,1,85,325) translate(218.369140625 42.6171875)"/><use xlink:href="#o" transform="matrix(1,0,0,1,85,325) translate(286.123046875 42.6171875)"/><path d="M580 440h360v80H580z" stroke="#000" stroke-width="2" fill="#99d2f2"/><use xlink:href="#a" transform="matrix(1,0,0,1,585,445) translate(156.3525390625 42.6171875)"/><path d="M580 120h360v80H580z" stroke="#000" stroke-width="2" fill="#fe706f"/><use xlink:href="#b" transform="matrix(1,0,0,1,585,125) translate(109.6728515625 42.6171875)"/><use xlink:href="#c" transform="matrix(1,0,0,1,585,125) translate(139.9560546875 42.6171875)"/><path d="M580 200h360v80H580z" stroke="#000" stroke-width="2" fill="#fac92f"/><g><use xlink:href="#b" transform="matrix(1,0,0,1,585,205) translate(56.103515625 42.6171875)"/><use xlink:href="#d" transform="matrix(1,0,0,1,585,205) translate(86.38671875 42.6171875)"/><use xlink:href="#e" transform="matrix(1,0,0,1,585,205) translate(142.294921875 42.6171875)"/><use xlink:href="#f" transform="matrix(1,0,0,1,585,205) translate(243.193359375 42.6171875)"/></g><path d="M580 280h360v80H580z" stroke="#000" stroke-width="2" fill="#fac92f"/><g><use xlink:href="#b" transform="matrix(1,0,0,1,585,285) translate(67.109375 42.6171875)"/><use xlink:href="#g" transform="matrix(1,0,0,1,585,285) translate(97.392578125 42.6171875)"/><use xlink:href="#p" transform="matrix(1,0,0,1,585,285) translate(162.841796875 42.6171875)"/></g><path d="M580 360h360v80H580z" stroke="#000" stroke-width="2" fill="#a3d977"/><g><use xlink:href="#i" transform="matrix(1,0,0,1,585,365) translate(139.9560546875 42.6171875)"/></g><path d="M80 600h360v80H80z" stroke="#000" stroke-opacity="0" stroke-width="2" fill-opacity="0"/><g><use xlink:href="#q" transform="matrix(1,0,0,1,85,605) translate(114.51171875 44.427083333333336)"/></g><path d="M580 600h360v80H580z" stroke="#000" stroke-opacity="0" stroke-width="2" fill-opacity="0"/><g><use xlink:href="#r" transform="matrix(1,0,0,1,585,605) translate(104.16015625 44.427083333333336)"/></g><defs><path d="M1175-1298H707V0H516v-1298H49v-158h1126v158" id="s"/><path d="M688-137c238 0 323-102 359-325h193c-32 297-228 482-552 482-361 0-569-299-569-680 0-197 8-360 73-497 88-186 257-317 513-319 316-2 509 195 535 488h-193c-31-212-118-330-342-330-272 0-397 224-393 523v141c-3 282 115 517 376 517" id="t"/><path d="M1216-1011c-1 297-202 441-512 441H361V0H169v-1456h537c297-6 510 164 510 445zm-192 2c1-178-126-288-307-289H361v571h345c196 1 318-92 318-282" id="u"/><g id="a"><use transform="matrix(0.009765625,0,0,0.009765625,0,0)" xlink:href="#s"/><use transform="matrix(0.009765625,0,0,0.009765625,11.66015625,0)" xlink:href="#t"/><use transform="matrix(0.009765625,0,0,0.009765625,24.677734375,0)" xlink:href="#u"/></g><path d="M765-410H501L421 0H278l80-410H119v-137h265l69-354H195v-139h285l82-416h143l-82 416h264l82-416h144l-82 416h204v139h-231l-69 354h225v137H909L829 0H685zM527-547h264l69-354H596" id="v"/><g id="b"><use transform="matrix(0.009765625,0,0,0.009765625,0,0)" xlink:href="#t"/><use transform="matrix(0.009765625,0,0,0.009765625,13.017578125,0)" xlink:href="#v"/></g><path d="M973-380H363L226 0H28l556-1456h168L1309 0h-197zM421-538h495l-248-681" id="w"/><path d="M632-1102c291 0 422 251 422 573 0 297-141 548-419 549-131 0-235-42-310-125v521H140v-1498h169l9 120c75-93 180-140 314-140zm-53 971c207 0 290-180 290-419 0-218-92-395-292-395-112 0-196 50-252 149v517c55 99 140 148 254 148" id="x"/><path d="M341 0H156v-1536h185V0" id="y"/><path d="M341 0H156v-1082h185V0zm-91-1264c-68 0-108-42-109-105 0-62 41-107 109-107s110 44 110 107-42 105-110 105" id="z"/><path d="M277-555c0 244 77 420 297 424 127 2 249-93 255-210h175C980-127 805 20 574 20 258 20 81-222 92-562c11-319 164-533 481-540 237-5 426 165 431 392H829c-7-133-115-242-256-240-209 4-296 166-296 395" id="A"/><path d="M561-1102c238-4 403 126 403 351v498c0 99 13 178 38 237V0H808c-11-21-19-59-26-114C696-25 593 20 474 20c-199 0-368-130-365-320 4-251 214-359 490-356h180v-85c-1-135-86-212-229-212-115 0-232 67-233 171H131c20-205 206-316 430-320zM294-326c0 117 90 185 207 185 122 0 239-75 278-162v-222H634c-227 0-340 66-340 199" id="B"/><path d="M456 20C285 20 205-92 206-268v-671H9v-143h197v-262h185v262h202v143H391v671c-9 125 92 149 207 118V0c-49 13-96 20-142 20" id="C"/><path d="M584 20C278 26 81-227 91-551c10-320 175-545 491-551 308-5 503 247 494 573-9 322-175 543-492 549zm-2-970c-208 0-305 185-305 421 0 216 106 398 307 398 211 0 307-186 307-420 0-214-109-399-309-399" id="D"/><path d="M589-945c-131 0-219 81-264 174V0H140v-1082h175l6 136c83-104 191-156 324-156 229 0 346 129 346 387V0H806v-716c-2-153-65-229-217-229" id="E"/><g id="c"><use transform="matrix(0.009765625,0,0,0.009765625,0,0)" xlink:href="#w"/><use transform="matrix(0.009765625,0,0,0.009765625,13.046875,0)" xlink:href="#x"/><use transform="matrix(0.009765625,0,0,0.009765625,24.267578125,0)" xlink:href="#x"/><use transform="matrix(0.009765625,0,0,0.009765625,35.48828125,0)" xlink:href="#y"/><use transform="matrix(0.009765625,0,0,0.009765625,40.341796875,0)" xlink:href="#z"/><use transform="matrix(0.009765625,0,0,0.009765625,45.1953125,0)" xlink:href="#A"/><use transform="matrix(0.009765625,0,0,0.009765625,55.6640625,0)" xlink:href="#B"/><use transform="matrix(0.009765625,0,0,0.009765625,66.54296875,0)" xlink:href="#C"/><use transform="matrix(0.009765625,0,0,0.009765625,73.076171875,0)" xlink:href="#z"/><use transform="matrix(0.009765625,0,0,0.009765625,77.9296875,0)" xlink:href="#D"/><use transform="matrix(0.009765625,0,0,0.009765625,89.3359375,0)" xlink:href="#E"/></g><path d="M631-137c179 0 314-70 314-231 0-71-25-127-75-166s-141-77-272-115c-165-47-285-106-360-175s-112-154-112-255c0-245 231-397 495-397 206 0 369 89 449 218 43 68 65 142 65 223H942c0-184-129-283-321-283-172 0-299 76-301 236 0 59 26 109 76 150s135 78 256 113c205 59 345 116 436 256 35 53 50 119 50 193-2 256-231 398-507 390C333 12 90-129 80-422h193c0 187 160 285 358 285" id="F"/><path d="M491 20c-241-1-355-148-355-398v-704h185v699c0 164 67 246 200 246 141 0 235-53 282-158v-787h185V0H812l-4-107C736-22 630 20 491 20" id="G"/><path d="M634-1102c292 0 422 254 422 573 0 298-143 547-420 549-137 0-242-48-317-145L310 0H140v-1536h185v573c75-93 178-139 309-139zm-44 965c207 0 281-175 281-413 0-224-79-395-283-395-122 0-210 57-263 170v468c57 113 145 170 265 170" id="H"/><path d="M538-131c121 0 232-49 232-156 0-50-20-88-56-117-73-60-334-92-420-143-92-55-162-110-162-238 0-190 192-317 400-317 223 0 414 129 413 338H759c0-108-110-186-227-186-119 0-215 53-215 159 0 45 18 78 53 101 76 52 331 90 416 139 98 57 169 115 169 251C955-92 760 20 538 20c-176 0-314-68-386-174-38-55-57-115-57-179h185c6 129 116 202 258 202" id="I"/><g id="d"><use transform="matrix(0.009765625,0,0,0.009765625,0,0)" xlink:href="#F"/><use transform="matrix(0.009765625,0,0,0.009765625,11.865234375,0)" xlink:href="#C"/><use transform="matrix(0.009765625,0,0,0.009765625,18.3984375,0)" xlink:href="#G"/><use transform="matrix(0.009765625,0,0,0.009765625,29.423828125,0)" xlink:href="#H"/><use transform="matrix(0.009765625,0,0,0.009765625,40.64453125,0)" xlink:href="#I"/></g><path d="M319-664C304-226 428 158 661 357l-38 113c-89-49-172-133-254-248C142-97 71-578 194-1025c67-244 240-513 429-618l38 122c-201 153-330 502-342 857" id="J"/><path d="M521 20C240 20 96-239 96-550c0-303 147-552 427-552 132 0 235 47 309 140l9-120h169V-26c4 277-183 454-459 452-165-1-334-81-400-187l96-111c79 98 176 147 291 147 180 1 288-109 286-290v-93C750-23 649 20 521 20zm48-965c-209 0-287 178-287 416 0 217 86 392 285 392 117 0 202-53 257-159v-494c-57-103-142-155-255-155" id="K"/><path d="M599-131c141 0 220-65 285-146l113 88C906-50 770 20 589 20 281 21 93-214 93-545c0-223 93-397 233-485 74-48 154-72 240-72 300 2 449 218 445 537v77H278c0 197 129 357 321 357zm227-509c-3-180-88-310-260-310-170 0-264 140-282 310h542" id="L"/><path d="M663-916c-163-27-288 18-338 148V0H140v-1082h180l3 125c61-97 147-145 258-145 36 0 63 5 82 14v172" id="M"/><path d="M520 20C244 20 95-247 95-550c0-298 151-550 427-552 127 0 227 43 301 130v-564h185V0H838l-9-116C755-25 652 20 520 20zm48-965c-210 0-288 177-288 416 0 218 87 392 286 392 117 0 203-53 257-158v-497c-55-102-140-153-255-153" id="N"/><g id="e"><use transform="matrix(0.009765625,0,0,0.009765625,0,0)" xlink:href="#J"/><use transform="matrix(0.009765625,0,0,0.009765625,6.8359375,0)" xlink:href="#K"/><use transform="matrix(0.009765625,0,0,0.009765625,18.056640625,0)" xlink:href="#L"/><use transform="matrix(0.009765625,0,0,0.009765625,28.65234375,0)" xlink:href="#E"/><use transform="matrix(0.009765625,0,0,0.009765625,39.6875,0)" xlink:href="#L"/><use transform="matrix(0.009765625,0,0,0.009765625,50.283203125,0)" xlink:href="#M"/><use transform="matrix(0.009765625,0,0,0.009765625,56.66015625,0)" xlink:href="#B"/><use transform="matrix(0.009765625,0,0,0.009765625,67.5390625,0)" xlink:href="#C"/><use transform="matrix(0.009765625,0,0,0.009765625,74.072265625,0)" xlink:href="#L"/><use transform="matrix(0.009765625,0,0,0.009765625,84.66796875,0)" xlink:href="#N"/></g><path d="M38 357C331 141 457-487 337-984c-53-219-157-429-299-546l39-113c190 106 362 378 431 621 75 268 76 597 0 868C440 88 266 365 77 470" id="O"/><g id="f"><use transform="matrix(0.009765625,0,0,0.009765625,0,0)" xlink:href="#A"/><use transform="matrix(0.009765625,0,0,0.009765625,10.46875,0)" xlink:href="#D"/><use transform="matrix(0.009765625,0,0,0.009765625,21.875,0)" xlink:href="#N"/><use transform="matrix(0.009765625,0,0,0.009765625,33.154296875,0)" xlink:href="#L"/><use transform="matrix(0.009765625,0,0,0.009765625,43.75,0)" xlink:href="#O"/></g><path d="M362-157h690V0H169v-1456h193v1299" id="P"/><path d="M494-271l252-811h198L509 167C425 381 299 474 84 421V271c167 16 242-37 283-173l41-110L22-1082h202" id="Q"/><g id="g"><use transform="matrix(0.009765625,0,0,0.009765625,0,0)" xlink:href="#P"/><use transform="matrix(0.009765625,0,0,0.009765625,10.76171875,0)" xlink:href="#z"/><use transform="matrix(0.009765625,0,0,0.009765625,15.615234375,0)" xlink:href="#H"/><use transform="matrix(0.009765625,0,0,0.009765625,26.8359375,0)" xlink:href="#M"/><use transform="matrix(0.009765625,0,0,0.009765625,33.212890625,0)" xlink:href="#B"/><use transform="matrix(0.009765625,0,0,0.009765625,44.091796875,0)" xlink:href="#M"/><use transform="matrix(0.009765625,0,0,0.009765625,51.03515625,0)" xlink:href="#Q"/></g><path d="M399-777c-11 316 60 556 342 556 113 0 193-24 241-72v-251H709v-221h573v581C1177-55 960 24 725 20 280 12 81-292 94-770c11-421 200-700 610-706 347-5 543 171 578 483H990c-25-157-105-241-277-241-102 0-180 38-233 115s-76 191-81 342" id="R"/><path d="M719-811c-143-24-279 1-319 103V0H111v-1082h273l8 129c74-124 180-175 331-136" id="S"/><path d="M663-1102c295 0 422 250 422 571 0 300-141 549-420 551-109 0-198-38-265-114v510H111v-1498h268l10 106c70-84 161-126 274-126zm133 550c0-175-53-315-209-315-91 0-153 35-187 104v443c35 71 98 107 189 107 138 0 207-113 207-339" id="T"/><path d="M355-556c-2 203 30 338 206 343 102 3 181-63 182-161h271C1001-128 821 17 566 20 242 24 66-212 66-554c0-320 184-548 498-548 262 0 451 167 450 423H743c-1-108-75-193-184-189-162 6-202 123-204 312" id="U"/><path d="M289 11c-91 0-163-63-163-153 0-91 73-155 163-155 91 0 164 64 164 155S381 11 289 11" id="V"/><path d="M687-225c189-1 272-84 286-260h300c-19 311-251 505-586 505C296 20 86-277 86-686c0-466 174-782 605-790 340-6 557 198 584 514H975c-15-183-92-268-284-268-100 0-173 38-225 108-63 84-76 264-76 443 0 157 24 272 72 345s122 109 225 109" id="W"/><path d="M579 20C257 20 58-214 66-551c8-331 182-551 511-551 324 0 514 231 514 572 0 319-198 550-512 550zm-2-888c-169 0-222 141-222 338 0 181 61 317 224 317 170 0 223-137 223-338 0-178-64-317-225-317" id="X"/><path d="M1031-175C952-60 797 20 609 20 287 20 60-206 72-543c12-330 180-559 505-559 309 0 482 214 477 537v118H365c15 134 115 234 263 234 111 0 198-40 261-121zM770-644c5-139-62-226-194-224-130 1-191 97-208 224h402" id="Y"/><g id="h"><use transform="matrix(0.009765625,0,0,0.009765625,0,0)" xlink:href="#J"/><use transform="matrix(0.009765625,0,0,0.009765625,6.8359375,0)" xlink:href="#R"/><use transform="matrix(0.009765625,0,0,0.009765625,20.458984375,0)" xlink:href="#S"/><use transform="matrix(0.009765625,0,0,0.009765625,27.75390625,0)" xlink:href="#T"/><use transform="matrix(0.009765625,0,0,0.009765625,39.013671875,0)" xlink:href="#U"/><use transform="matrix(0.009765625,0,0,0.009765625,49.443359375,0)" xlink:href="#V"/><use transform="matrix(0.009765625,0,0,0.009765625,55.25390625,0)" xlink:href="#W"/><use transform="matrix(0.009765625,0,0,0.009765625,68.33984375,0)" xlink:href="#X"/><use transform="matrix(0.009765625,0,0,0.009765625,79.6484375,0)" xlink:href="#S"/><use transform="matrix(0.009765625,0,0,0.009765625,86.7578125,0)" xlink:href="#Y"/><use transform="matrix(0.009765625,0,0,0.009765625,97.568359375,0)" xlink:href="#O"/></g><path d="M1288 0h-193v-673H361V0H169v-1456h192v626h734v-626h193V0" id="Z"/><path d="M177 125H18l608-1581h158" id="aa"/><path d="M569-1476c255 0 440 146 439 390 0 143-91 314-274 512L344-151h731V0H121v-133l504-560c75-85 125-155 155-207 105-184 6-424-211-424-183 0-293 113-291 297H93c-3-270 199-449 476-449" id="ab"/><g id="i"><use transform="matrix(0.009765625,0,0,0.009765625,0,0)" xlink:href="#Z"/><use transform="matrix(0.009765625,0,0,0.009765625,13.974609375,0)" xlink:href="#s"/><use transform="matrix(0.009765625,0,0,0.009765625,26.064453125,0)" xlink:href="#s"/><use transform="matrix(0.009765625,0,0,0.009765625,37.998046875,0)" xlink:href="#u"/><use transform="matrix(0.009765625,0,0,0.009765625,50.615234375,0)" xlink:href="#aa"/><use transform="matrix(0.009765625,0,0,0.009765625,58.857421875,0)" xlink:href="#ab"/></g><path d="M1161-1018c0 201-122 330-278 388l342 618V0h-206L703-589H361V0H168v-1456h482c310-2 511 139 511 438zm-193 0c0-187-120-280-313-280H361v552h295c179 3 313-101 312-272" id="ac"/><g id="j"><use transform="matrix(0.009765625,0,0,0.009765625,0,0)" xlink:href="#K"/><use transform="matrix(0.009765625,0,0,0.009765625,11.220703125,0)" xlink:href="#ac"/><use transform="matrix(0.009765625,0,0,0.009765625,23.53515625,0)" xlink:href="#u"/><use transform="matrix(0.009765625,0,0,0.009765625,36.15234375,0)" xlink:href="#t"/></g><path d="M525-543H37v-151h488v151" id="ad"/><g id="k"><use transform="matrix(0.009765625,0,0,0.009765625,0,0)" xlink:href="#t"/><use transform="matrix(0.009765625,0,0,0.009765625,13.017578125,0)" xlink:href="#ad"/><use transform="matrix(0.009765625,0,0,0.009765625,18.53515625,0)" xlink:href="#t"/><use transform="matrix(0.009765625,0,0,0.009765625,31.552734375,0)" xlink:href="#D"/><use transform="matrix(0.009765625,0,0,0.009765625,42.958984375,0)" xlink:href="#M"/><use transform="matrix(0.009765625,0,0,0.009765625,49.541015625,0)" xlink:href="#L"/></g><path d="M497-251l268-831h189L566 0H425L33-1082h189" id="ae"/><g id="l"><use transform="matrix(0.009765625,0,0,0.009765625,0,0)" xlink:href="#F"/><use transform="matrix(0.009765625,0,0,0.009765625,11.865234375,0)" xlink:href="#L"/><use transform="matrix(0.009765625,0,0,0.009765625,22.4609375,0)" xlink:href="#M"/><use transform="matrix(0.009765625,0,0,0.009765625,29.404296875,0)" xlink:href="#ae"/><use transform="matrix(0.009765625,0,0,0.009765625,38.96484375,0)" xlink:href="#L"/><use transform="matrix(0.009765625,0,0,0.009765625,49.560546875,0)" xlink:href="#M"/></g><path d="M670-781h406v175H670v460H484v-460H78v-175h406v-425h186v425" id="af"/><use transform="matrix(0.009765625,0,0,0.009765625,0,0)" xlink:href="#af" id="m"/><path d="M375 0H183v-1456h192V0" id="ag"/><g id="n"><use transform="matrix(0.009765625,0,0,0.009765625,0,0)" xlink:href="#ag"/><use transform="matrix(0.009765625,0,0,0.009765625,5.439453125,0)" xlink:href="#E"/><use transform="matrix(0.009765625,0,0,0.009765625,16.474609375,0)" xlink:href="#C"/><use transform="matrix(0.009765625,0,0,0.009765625,23.0078125,0)" xlink:href="#L"/><use transform="matrix(0.009765625,0,0,0.009765625,33.603515625,0)" xlink:href="#M"/><use transform="matrix(0.009765625,0,0,0.009765625,40.17578125,0)" xlink:href="#D"/><use transform="matrix(0.009765625,0,0,0.009765625,51.58203125,0)" xlink:href="#x"/></g><g id="o"><use transform="matrix(0.009765625,0,0,0.009765625,0,0)" xlink:href="#y"/><use transform="matrix(0.009765625,0,0,0.009765625,4.853515625,0)" xlink:href="#B"/><use transform="matrix(0.009765625,0,0,0.009765625,15.5859375,0)" xlink:href="#Q"/><use transform="matrix(0.009765625,0,0,0.009765625,24.921875,0)" xlink:href="#L"/><use transform="matrix(0.009765625,0,0,0.009765625,35.517578125,0)" xlink:href="#M"/></g><path d="M505 20C221 18 69-239 69-549c0-302 153-553 438-553 119 0 211 41 277 122l12-102h262V-36c-8 305-208 458-520 462-160 1-335-76-403-170L263 80c72 81 159 121 262 121 172 1 260-107 243-294C701-18 614 20 505 20zm76-887c-165 0-223 147-223 339 0 172 66 314 221 314 88 0 151-33 189-99v-455c-39-66-101-99-187-99" id="ah"/><path d="M673-507H110v-233h563v233" id="ai"/><path d="M488 20C204 20 66-234 66-549c0-305 140-551 424-553 105 0 192 39 261 118v-552h290V0H780l-14-115C694-25 601 20 488 20zM355-528c0 176 51 314 207 314 89 0 152-38 189-113v-427c-36-75-98-113-187-113-139 0-209 113-209 339" id="aj"/><path d="M457-330c2 83 25 111 111 112 32 0 60-2 85-7V-6c-57 17-115 26-175 26-203 0-310-102-310-307v-583H10v-212h158v-266h289v266h185v212H457v540" id="ak"/><path d="M750-692c-1-124-48-174-173-175-81 0-142 35-183 104V0H105v-1082h272l9 125c77-97 181-145 311-145 244 0 342 151 342 403V0H750v-692" id="al"/><g id="p"><use transform="matrix(0.009765625,0,0,0.009765625,0,0)" xlink:href="#J"/><use transform="matrix(0.009765625,0,0,0.009765625,6.8359375,0)" xlink:href="#ah"/><use transform="matrix(0.009765625,0,0,0.009765625,18.251953125,0)" xlink:href="#S"/><use transform="matrix(0.009765625,0,0,0.009765625,25.546875,0)" xlink:href="#T"/><use transform="matrix(0.009765625,0,0,0.009765625,36.806640625,0)" xlink:href="#U"/><use transform="matrix(0.009765625,0,0,0.009765625,47.236328125,0)" xlink:href="#ai"/><use transform="matrix(0.009765625,0,0,0.009765625,54.990234375,0)" xlink:href="#aj"/><use transform="matrix(0.009765625,0,0,0.009765625,66.259765625,0)" xlink:href="#X"/><use transform="matrix(0.009765625,0,0,0.009765625,77.568359375,0)" xlink:href="#ak"/><use transform="matrix(0.009765625,0,0,0.009765625,84.326171875,0)" xlink:href="#al"/><use transform="matrix(0.009765625,0,0,0.009765625,95.52734375,0)" xlink:href="#Y"/><use transform="matrix(0.009765625,0,0,0.009765625,106.337890625,0)" xlink:href="#ak"/><use transform="matrix(0.009765625,0,0,0.009765625,113.095703125,0)" xlink:href="#O"/></g><g id="q"><use transform="matrix(0.013020833333333334,0,0,0.013020833333333334,0,0)" xlink:href="#R"/><use transform="matrix(0.013020833333333334,0,0,0.013020833333333334,18.1640625,0)" xlink:href="#S"/><use transform="matrix(0.013020833333333334,0,0,0.013020833333333334,27.890625,0)" xlink:href="#T"/><use transform="matrix(0.013020833333333334,0,0,0.013020833333333334,42.903645833333336,0)" xlink:href="#U"/><use transform="matrix(0.013020833333333334,0,0,0.013020833333333334,56.809895833333336,0)" xlink:href="#V"/><use transform="matrix(0.013020833333333334,0,0,0.013020833333333334,64.55729166666667,0)" xlink:href="#W"/><use transform="matrix(0.013020833333333334,0,0,0.013020833333333334,82.00520833333334,0)" xlink:href="#X"/><use transform="matrix(0.013020833333333334,0,0,0.013020833333333334,97.08333333333334,0)" xlink:href="#S"/><use transform="matrix(0.013020833333333334,0,0,0.013020833333333334,106.56250000000001,0)" xlink:href="#Y"/></g><g id="r"><use transform="matrix(0.013020833333333334,0,0,0.013020833333333334,0,0)" xlink:href="#ah"/><use transform="matrix(0.013020833333333334,0,0,0.013020833333333334,15.221354166666668,0)" xlink:href="#S"/><use transform="matrix(0.013020833333333334,0,0,0.013020833333333334,24.947916666666668,0)" xlink:href="#T"/><use transform="matrix(0.013020833333333334,0,0,0.013020833333333334,39.9609375,0)" xlink:href="#U"/><use transform="matrix(0.013020833333333334,0,0,0.013020833333333334,53.8671875,0)" xlink:href="#ai"/><use transform="matrix(0.013020833333333334,0,0,0.013020833333333334,64.20572916666667,0)" xlink:href="#aj"/><use transform="matrix(0.013020833333333334,0,0,0.013020833333333334,79.23177083333334,0)" xlink:href="#X"/><use transform="matrix(0.013020833333333334,0,0,0.013020833333333334,94.30989583333334,0)" xlink:href="#ak"/><use transform="matrix(0.013020833333333334,0,0,0.013020833333333334,103.32031250000001,0)" xlink:href="#al"/><use transform="matrix(0.013020833333333334,0,0,0.013020833333333334,118.25520833333334,0)" xlink:href="#Y"/><use transform="matrix(0.013020833333333334,0,0,0.013020833333333334,132.66927083333334,0)" xlink:href="#ak"/></g></defs></g></svg>