<svg xmlns="http://www.w3.org/2000/svg" xmlns:xlink="http://www.w3.org/1999/xlink" xmlns:lucid="lucid" width="980" height="669.67"><g transform="translate(-140 -220.66666666666663)" lucid:page-tab-id="0_0"><path d="M0 0h1760v1360H0z" fill="#fff"/><path d="M480 260.67c0-11.05 8.95-20 20-20h240c11.05 0 20 8.95 20 20v40c0 11.04-8.95 20-20 20H500c-11.05 0-20-8.96-20-20z" stroke="#000" stroke-width="2" fill="#ffeca9"/><use xlink:href="#a" transform="matrix(1,0,0,1,485,245.66666666666663) translate(74.125 27.799999999999997)"/><use xlink:href="#b" transform="matrix(1,0,0,1,485,245.66666666666663) translate(69.57499999999999 49.4)"/><use xlink:href="#c" transform="matrix(1,0,0,1,485,245.66666666666663) translate(80.52499999999999 49.4)"/><use xlink:href="#d" transform="matrix(1,0,0,1,485,245.66666666666663) translate(108.475 49.4)"/><use xlink:href="#e" transform="matrix(1,0,0,1,485,245.66666666666663) translate(161.425 49.4)"/><path d="M160 580.67c0-11.05 8.95-20 20-20h240c11.05 0 20 8.95 20 20v40c0 11.04-8.95 20-20 20H180c-11.05 0-20-8.96-20-20z" stroke="#000" stroke-width="2" fill="#ffeca9"/><use xlink:href="#f" transform="matrix(1,0,0,1,165,565.6666666666666) translate(88.275 17)"/><use xlink:href="#b" transform="matrix(1,0,0,1,165,565.6666666666666) translate(66.125 38.6)"/><use xlink:href="#g" transform="matrix(1,0,0,1,165,565.6666666666666) translate(77.075 38.6)"/><use xlink:href="#h" transform="matrix(1,0,0,1,165,565.6666666666666) translate(148.925 38.6)"/><use xlink:href="#b" transform="matrix(1,0,0,1,165,565.6666666666666) translate(101.57499999999999 60.2)"/><use xlink:href="#i" transform="matrix(1,0,0,1,165,565.6666666666666) translate(112.52499999999999 60.2)"/><path d="M160 420c0-11.05 8.95-20 20-20h240c11.05 0 20 8.95 20 20v40c0 11.05-8.95 20-20 20H180c-11.05 0-20-8.95-20-20z" stroke="#000" stroke-width="2" fill="#fff"/><use xlink:href="#j" transform="matrix(1,0,0,1,165,405) translate(91.07499999999999 17)"/><use xlink:href="#b" transform="matrix(1,0,0,1,165,405) translate(75.125 38.6)"/><use xlink:href="#k" transform="matrix(1,0,0,1,165,405) translate(86.075 38.6)"/><use xlink:href="#l" transform="matrix(1,0,0,1,165,405) translate(141.97500000000002 38.6)"/><use xlink:href="#b" transform="matrix(1,0,0,1,165,405) translate(78.64999999999999 60.2)"/><use xlink:href="#k" transform="matrix(1,0,0,1,165,405) translate(89.6 60.2)"/><use xlink:href="#m" transform="matrix(1,0,0,1,165,405) translate(145.5 60.2)"/><path d="M800 420.67c0-11.05 8.95-20 20-20h240c11.05 0 20 8.95 20 20v40c0 11.04-8.95 20-20 20H820c-11.05 0-20-8.96-20-20z" stroke="#000" stroke-width="2" fill="#dfd"/><use xlink:href="#n" transform="matrix(1,0,0,1,805,405.66666666666663) translate(69.64999999999999 17)"/><use xlink:href="#b" transform="matrix(1,0,0,1,805,405.66666666666663) translate(66.625 38.6)"/><use xlink:href="#o" transform="matrix(1,0,0,1,805,405.66666666666663) translate(77.575 38.6)"/><use xlink:href="#p" transform="matrix(1,0,0,1,805,405.66666666666663) translate(157.525 38.6)"/><use xlink:href="#b" transform="matrix(1,0,0,1,805,405.66666666666663) translate(44.57499999999999 60.2)"/><use xlink:href="#q" transform="matrix(1,0,0,1,805,405.66666666666663) translate(55.52499999999999 60.2)"/><use xlink:href="#r" transform="matrix(1,0,0,1,805,405.66666666666663) translate(113.475 60.2)"/><path d="M480 420.67c0-11.05 8.95-20 20-20h240c11.05 0 20 8.95 20 20v40c0 11.04-8.95 20-20 20H500c-11.05 0-20-8.96-20-20z" stroke="#000" stroke-width="2" fill="#dfd"/><use xlink:href="#s" transform="matrix(1,0,0,1,485,405.66666666666663) translate(29.174999999999997 17)"/><use xlink:href="#b" transform="matrix(1,0,0,1,485,405.66666666666663) translate(63.099999999999994 38.6)"/><use xlink:href="#o" transform="matrix(1,0,0,1,485,405.66666666666663) translate(74.05 38.6)"/><use xlink:href="#l" transform="matrix(1,0,0,1,485,405.66666666666663) translate(154 38.6)"/><use xlink:href="#b" transform="matrix(1,0,0,1,485,405.66666666666663) translate(22.125 60.2)"/><use xlink:href="#t" transform="matrix(1,0,0,1,485,405.66666666666663) translate(33.075 60.2)"/><use xlink:href="#r" transform="matrix(1,0,0,1,485,405.66666666666663) translate(135.925 60.2)"/><path d="M300.07 398l.03-.16.05-.3.07-.3.08-.28.1-.3.12-.3.13-.32.15-.33.17-.32.2-.34.23-.36.26-.37.3-.38.33-.4.4-.44.44-.47.53-.48.62-.54.72-.58.88-.63 1.05-.7 1.3-.78 1.58-.88 2-1 2.57-1.14 3.4-1.34 4.6-1.6 6.55-1.96 9.82-2.5 16.12-3.4 31.95-5.3 178.26-24.2 16.13-3.4 9.82-2.5 6.54-1.96 4.6-1.6 3.4-1.34 1.83-.8" stroke="#000" stroke-width="2" fill="none"/><path d="M301.02 398l-.02 1h-2l.02-1.05z"/><path d="M617.7 323.93l-6.97 13.3-6.48-6.63z" stroke="#000" stroke-width="2"/><path d="M620 398.67v-58.5" stroke="#000" stroke-width="2" fill="none"/><path d="M621 399.67h-2v-1.03h2z"/><path d="M620 324.9l4.64 14.27h-9.28z" stroke="#000" stroke-width="2"/><path d="M160 741.33c0-11.04 8.95-20 20-20h240c11.05 0 20 8.96 20 20v40c0 11.05-8.95 20-20 20H180c-11.05 0-20-8.95-20-20z" stroke="#000" stroke-width="2" fill="#ffeca9"/><use xlink:href="#u" transform="matrix(1,0,0,1,165,726.3333333333333) translate(64.225 17)"/><use xlink:href="#v" transform="matrix(1,0,0,1,165,726.3333333333333) translate(93.05 38.6)"/><use xlink:href="#w" transform="matrix(1,0,0,1,165,726.3333333333333) translate(104 38.6)"/><use xlink:href="#x" transform="matrix(1,0,0,1,165,726.3333333333333) translate(27.75000000000003 60.2)"/><path d="M480 741.33c0-11.04 8.95-20 20-20h240c11.05 0 20 8.96 20 20v40c0 11.05-8.95 20-20 20H500c-11.05 0-20-8.95-20-20z" stroke="#000" stroke-width="2" fill="#dfd"/><use xlink:href="#y" transform="matrix(1,0,0,1,485,726.3333333333333) translate(59.675 17)"/><use xlink:href="#v" transform="matrix(1,0,0,1,485,726.3333333333333) translate(75.55 38.6)"/><use xlink:href="#z" transform="matrix(1,0,0,1,485,726.3333333333333) translate(86.5 38.6)"/><use xlink:href="#A" transform="matrix(1,0,0,1,485,726.3333333333333) translate(60.150000000000006 60.2)"/><use xlink:href="#B" transform="matrix(1,0,0,1,485,726.3333333333333) translate(71.10000000000001 60.2)"/><use xlink:href="#C" transform="matrix(1,0,0,1,485,726.3333333333333) translate(121.95 60.2)"/><use xlink:href="#D" transform="matrix(1,0,0,1,485,726.3333333333333) translate(156.95 60.2)"/><path d="M619.93 719.34l-.03-.2-.06-.3-.07-.3-.1-.32-.1-.3-.1-.33-.14-.33-.16-.33-.18-.35-.2-.36-.24-.37-.27-.38-.32-.4-.35-.44-.4-.45-.47-.46-.55-.52-.63-.55-.75-.6-.9-.65-1.1-.72-1.3-.8-1.65-.9-2.06-1.02-2.64-1.17-3.5-1.37-4.73-1.65-6.72-2.02-10.1-2.57-16.62-3.5-33.3-5.54L356.5 666.3l-16.63-3.5-10.1-2.56-6.73-2.02-4.74-1.65-3.5-1.38-2.4-1.08" stroke="#000" stroke-width="2" fill="none"/><path d="M621 720.33h-2l-.02-1 2-.04z"/><path d="M302.3 643.96l13.34 6.82-6.56 6.55z" stroke="#000" stroke-width="2"/><path d="M890 769.67c0-11.05 8.95-20 20-20h140c11.05 0 20 8.95 20 20v.66c0 11.05-8.95 20-20 20H910c-11.05 0-20-8.95-20-20z" stroke="#000" stroke-width="2" fill="#dfd"/><g><use xlink:href="#E" transform="matrix(1,0,0,1,895,754.6666666666667) translate(35.19999999999999 19.1)"/></g><path d="M890 810c0-10.86 8.8-19.67 19.67-19.67h140.66c10.86 0 19.67 8.8 19.67 19.67 0 10.86-8.8 19.67-19.67 19.67H909.67c-10.86 0-19.67-8.8-19.67-19.67z" stroke="#000" stroke-width="2" fill="#fff"/><g><use xlink:href="#F" transform="matrix(1,0,0,1,895,795.3333333333333) translate(41.074999999999996 18.6)"/></g><path d="M860 700h240v60H860z" stroke="#000" stroke-opacity="0" stroke-width="2" fill="#fff" fill-opacity="0"/><g><use xlink:href="#G" transform="matrix(1,0,0,1,865,705) translate(85 28.6)"/></g><path d="M800 580.67c0-11.05 8.95-20 20-20h240c11.05 0 20 8.95 20 20v40c0 11.04-8.95 20-20 20H820c-11.05 0-20-8.96-20-20z" stroke="#000" stroke-width="2" fill="#dfd"/><g><use xlink:href="#H" transform="matrix(1,0,0,1,805,565.6666666666666) translate(37.22500000000001 17)"/><use xlink:href="#b" transform="matrix(1,0,0,1,805,565.6666666666666) translate(76.64999999999999 38.6)"/><use xlink:href="#I" transform="matrix(1,0,0,1,805,565.6666666666666) translate(87.6 38.6)"/><use xlink:href="#b" transform="matrix(1,0,0,1,805,565.6666666666666) translate(57.150000000000006 60.2)"/><use xlink:href="#J" transform="matrix(1,0,0,1,805,565.6666666666666) translate(68.10000000000001 60.2)"/><use xlink:href="#K" transform="matrix(1,0,0,1,805,565.6666666666666) translate(158 60.2)"/><use xlink:href="#L" transform="matrix(1,0,0,1,805,565.6666666666666) translate(194.9 60.2)"/></g><path d="M480 580.67c0-11.05 8.95-20 20-20h240c11.05 0 20 8.95 20 20v40.66c0 11.05-8.95 20-20 20H500c-11.05 0-20-8.95-20-20z" stroke="#000" stroke-width="2" fill="#dfd"/><g><use xlink:href="#M" transform="matrix(1,0,0,1,485,565.6666666666666) translate(29.174999999999997 17.5)"/><use xlink:href="#N" transform="matrix(1,0,0,1,485,565.6666666666666) translate(75.14999999999999 39.1)"/><use xlink:href="#O" transform="matrix(1,0,0,1,485,565.6666666666666) translate(15.199999999999989 60.7)"/><use xlink:href="#P" transform="matrix(1,0,0,1,485,565.6666666666666) translate(26.149999999999988 60.7)"/><use xlink:href="#Q" transform="matrix(1,0,0,1,485,565.6666666666666) translate(84.05 60.7)"/><use xlink:href="#R" transform="matrix(1,0,0,1,485,565.6666666666666) translate(119.05 60.7)"/><use xlink:href="#S" transform="matrix(1,0,0,1,485,565.6666666666666) translate(169.9 60.7)"/></g><path d="M620 558.67v-58.5" stroke="#000" stroke-width="2" fill="none"/><path d="M621 559.67h-2v-1.03h2z"/><path d="M620 484.9l4.64 14.27h-9.28z" stroke="#000" stroke-width="2"/><path d="M940 558.67v-58.5" stroke="#000" stroke-width="2" fill="none"/><path d="M941 559.67h-2v-1.03h2z"/><path d="M940 484.9l4.64 14.27h-9.28z" stroke="#000" stroke-width="2"/><path d="M762 601l18.5-.17" stroke="#000" stroke-width="2" fill="none"/><path d="M762.03 602H761v-2h1.02z"/><path d="M795.76 600.7l-14.22 4.76-.08-9.27z" stroke="#000" stroke-width="2"/><path d="M620 719.33v-58.5" stroke="#000" stroke-width="2" fill="none"/><path d="M621 720.33h-2v-1.02h2z"/><path d="M620 645.57l4.64 14.27h-9.28z" stroke="#000" stroke-width="2"/><path d="M478 761.33h-18.5" stroke="#000" stroke-width="2" fill="none"/><path d="M479 762.33h-1.03v-2H479z"/><path d="M444.24 761.33l14.26-4.63v9.27z" stroke="#000" stroke-width="2"/><path d="M933.07 398.67l-.04-.2-.05-.3-.07-.32-.08-.3-.1-.32-.12-.3-.14-.34-.15-.34-.17-.35-.2-.34-.24-.37-.28-.4-.3-.4-.36-.42-.4-.45-.47-.48-.56-.52-.64-.55-.76-.6-.9-.65-1.1-.72-1.3-.8-1.65-.9-2.07-1-2.65-1.2-3.5-1.36-4.73-1.65-6.72-2.03-10.1-2.57-16.66-3.5-33.7-5.6-166.3-23.06-16.66-3.5-10.1-2.58-6.72-2.02-4.74-1.64-3.5-1.38-2.43-1.08" stroke="#000" stroke-width="2" fill="none"/><path d="M934.14 399.67h-2l-.03-1 2-.05z"/><path d="M622.28 323.96l13.35 6.84-6.57 6.54z" stroke="#000" stroke-width="2"/><path d="M890 849.67c0-11.05 8.95-20 20-20h140c11.05 0 20 8.95 20 20v.66c0 11.05-8.95 20-20 20H910c-11.05 0-20-8.95-20-20z" stroke="#000" stroke-width="2" fill="#ffeca9"/><g><use xlink:href="#T" transform="matrix(1,0,0,1,895,834.6666666666666) translate(11.099999999999994 19.1)"/><use xlink:href="#U" transform="matrix(1,0,0,1,895,834.6666666666666) translate(77 19.1)"/></g><defs><path d="M67-125c0 54 23 88 75 88 28 0 53-7 68-21v-34h-60v-39h108v91C232-14 192 4 140 4 58 4 20-42 15-125 8-236 126-280 215-234c19 10 29 26 37 47l-47 15c-11-23-29-39-63-39-53 1-75 33-75 86" id="V"/><path d="M135-150c-39-12-60 13-60 57V0H25l-1-190h47c2 13-1 29 3 40 6-28 27-53 61-41v41" id="W"/><path d="M135-194c53 0 70 44 70 98 0 56-19 98-73 100-31 1-45-17-59-34 3 33 2 69 2 105H25l-1-265h48c2 10 0 23 3 31 11-24 29-35 60-35zM114-30c33 0 39-31 40-66 0-38-9-64-40-64-56 0-55 130 0 130" id="X"/><path d="M190-63c-7 42-38 67-86 67-59 0-84-38-90-98-12-110 154-137 174-36l-49 2c-2-19-15-32-35-32-30 0-35 28-38 64-6 74 65 87 74 30" id="Y"/><path d="M24 0v-54h51V0H24" id="Z"/><path d="M67-125c0 53 21 87 73 88 37 1 54-22 65-47l45 17C233-25 199 4 140 4 58 4 20-42 15-125 8-235 124-281 211-232c18 10 29 29 36 50l-46 12c-8-25-30-41-62-41-52 0-71 34-72 86" id="aa"/><path d="M110-194c64 0 96 36 96 99 0 64-35 99-97 99-61 0-95-36-95-99 0-62 34-99 96-99zm-1 164c35 0 45-28 45-65 0-40-10-65-43-65-34 0-45 26-45 65 0 36 10 65 43 65" id="ab"/><path d="M185-48c-13 30-37 53-82 52C43 2 14-33 14-96s30-98 90-98c62 0 83 45 84 108H66c0 31 8 55 39 56 18 0 30-7 34-22zm-45-69c5-46-57-63-70-21-2 6-4 13-4 21h74" id="ac"/><path d="M199 0l-22-63H83L61 0H9l90-248h61L250 0h-51zm-33-102l-36-108c-10 38-24 72-36 108h72" id="ad"/><path d="M25-224v-37h50v37H25zM25 0v-190h50V0H25" id="ae"/><g id="a"><use transform="matrix(0.05,0,0,0.05,0,0)" xlink:href="#V"/><use transform="matrix(0.05,0,0,0.05,14,0)" xlink:href="#W"/><use transform="matrix(0.05,0,0,0.05,21,0)" xlink:href="#X"/><use transform="matrix(0.05,0,0,0.05,31.950000000000003,0)" xlink:href="#Y"/><use transform="matrix(0.05,0,0,0.05,41.95,0)" xlink:href="#Z"/><use transform="matrix(0.05,0,0,0.05,46.95,0)" xlink:href="#aa"/><use transform="matrix(0.05,0,0,0.05,59.900000000000006,0)" xlink:href="#ab"/><use transform="matrix(0.05,0,0,0.05,70.85000000000001,0)" xlink:href="#W"/><use transform="matrix(0.05,0,0,0.05,77.85000000000001,0)" xlink:href="#ac"/><use transform="matrix(0.05,0,0,0.05,87.85000000000001,0)" xlink:href="#Z"/><use transform="matrix(0.05,0,0,0.05,92.85000000000001,0)" xlink:href="#ad"/><use transform="matrix(0.05,0,0,0.05,105.80000000000001,0)" xlink:href="#X"/><use transform="matrix(0.05,0,0,0.05,116.75,0)" xlink:href="#ae"/></g><path d="M16-82v-28h88v28H16" id="af"/><use transform="matrix(0.05,0,0,0.05,0,0)" xlink:href="#af" id="b"/><path d="M190 0L58-211 59 0H30v-248h39L202-35l-2-213h31V0h-41" id="ag"/><path d="M100-194c62-1 85 37 85 99 1 63-27 99-86 99S16-35 15-95c0-66 28-99 85-99zM99-20c44 1 53-31 53-75 0-43-8-75-51-75s-53 32-53 75 10 74 51 75" id="ah"/><g id="c"><use transform="matrix(0.05,0,0,0.05,0,0)" xlink:href="#ag"/><use transform="matrix(0.05,0,0,0.05,12.950000000000001,0)" xlink:href="#ah"/></g><path d="M117-194c89-4 53 116 60 194h-32v-121c0-31-8-49-39-48C34-167 62-67 57 0H25l-1-190h30c1 10-1 24 2 32 11-22 29-35 61-36" id="ai"/><path d="M141-36C126-15 110 5 73 4 37 3 15-17 15-53c-1-64 63-63 125-63 3-35-9-54-41-54-24 1-41 7-42 31l-33-3c5-37 33-52 76-52 45 0 72 20 72 64v82c-1 20 7 32 28 27v20c-31 9-61-2-59-35zM48-53c0 20 12 33 32 33 41-3 63-29 60-74-43 2-92-5-92 41" id="aj"/><path d="M59-47c-2 24 18 29 38 22v24C64 9 27 4 27-40v-127H5v-23h24l9-43h21v43h35v23H59v120" id="ak"/><path d="M24-231v-30h32v30H24zM24 0v-190h32V0H24" id="al"/><path d="M108 0H70L1-190h34L89-25l56-165h34" id="am"/><path d="M100-194c63 0 86 42 84 106H49c0 40 14 67 53 68 26 1 43-12 49-29l28 8c-11 28-37 45-77 45C44 4 14-33 15-96c1-61 26-98 85-98zm52 81c6-60-76-77-97-28-3 7-6 17-6 28h103" id="an"/><g id="d"><use transform="matrix(0.05,0,0,0.05,0,0)" xlink:href="#ai"/><use transform="matrix(0.05,0,0,0.05,10,0)" xlink:href="#aj"/><use transform="matrix(0.05,0,0,0.05,20,0)" xlink:href="#ak"/><use transform="matrix(0.05,0,0,0.05,25,0)" xlink:href="#al"/><use transform="matrix(0.05,0,0,0.05,28.950000000000003,0)" xlink:href="#am"/><use transform="matrix(0.05,0,0,0.05,37.95,0)" xlink:href="#an"/></g><path d="M96-169c-40 0-48 33-48 73s9 75 48 75c24 0 41-14 43-38l32 2c-6 37-31 61-74 61-59 0-76-41-82-99-10-93 101-131 147-64 4 7 5 14 7 22l-32 3c-4-21-16-35-41-35" id="ao"/><path d="M85-194c31 0 48 13 60 33l-1-100h32l1 261h-30c-2-10 0-23-3-31C134-8 116 4 85 4 32 4 16-35 15-94c0-66 23-100 70-100zm9 24c-40 0-46 34-46 75 0 40 6 74 45 74 42 0 51-32 51-76 0-42-9-74-50-73" id="ap"/><g id="e"><use transform="matrix(0.05,0,0,0.05,0,0)" xlink:href="#ao"/><use transform="matrix(0.05,0,0,0.05,9,0)" xlink:href="#ah"/><use transform="matrix(0.05,0,0,0.05,19,0)" xlink:href="#ap"/><use transform="matrix(0.05,0,0,0.05,29,0)" xlink:href="#an"/></g><path d="M136-208V0H84v-208H4v-40h212v40h-80" id="aq"/><path d="M25 0v-261h50V0H25" id="ar"/><path d="M137-138c1-29-70-34-71-4 15 46 118 7 119 86 1 83-164 76-172 9l43-7c4 19 20 25 44 25 33 8 57-30 24-41C81-84 22-81 20-136c-2-80 154-74 161-7" id="as"/><g id="f"><use transform="matrix(0.05,0,0,0.05,0,0)" xlink:href="#V"/><use transform="matrix(0.05,0,0,0.05,14,0)" xlink:href="#W"/><use transform="matrix(0.05,0,0,0.05,21,0)" xlink:href="#X"/><use transform="matrix(0.05,0,0,0.05,31.950000000000003,0)" xlink:href="#Y"/><use transform="matrix(0.05,0,0,0.05,41.95,0)" xlink:href="#Z"/><use transform="matrix(0.05,0,0,0.05,46.95,0)" xlink:href="#aq"/><use transform="matrix(0.05,0,0,0.05,56.550000000000004,0)" xlink:href="#ab"/><use transform="matrix(0.05,0,0,0.05,67.5,0)" xlink:href="#ab"/><use transform="matrix(0.05,0,0,0.05,78.45,0)" xlink:href="#ar"/><use transform="matrix(0.05,0,0,0.05,83.45,0)" xlink:href="#as"/></g><path d="M240 0l2-218c-23 76-54 145-80 218h-23L58-218 59 0H30v-248h44l77 211c21-75 51-140 76-211h43V0h-30" id="at"/><path d="M185-189c-5-48-123-54-124 2 14 75 158 14 163 119 3 78-121 87-175 55-17-10-28-26-33-46l33-7c5 56 141 63 141-1 0-78-155-14-162-118-5-82 145-84 179-34 5 7 8 16 11 25" id="au"/><path d="M160-131c35 5 61 23 61 61C221 17 115-2 30 0v-248c76 3 177-17 177 60 0 33-19 50-47 57zm-97-11c50-1 110 9 110-42 0-47-63-36-110-37v79zm0 115c55-2 124 14 124-45 0-56-70-42-124-44v89" id="av"/><path d="M84 4C-5 8 30-112 23-190h32v120c0 31 7 50 39 49 72-2 45-101 50-169h31l1 190h-30c-1-10 1-25-2-33-11 22-28 36-60 37" id="aw"/><path d="M24 0v-261h32V0H24" id="ax"/><g id="g"><use transform="matrix(0.05,0,0,0.05,0,0)" xlink:href="#at"/><use transform="matrix(0.05,0,0,0.05,14.950000000000001,0)" xlink:href="#au"/><use transform="matrix(0.05,0,0,0.05,26.950000000000003,0)" xlink:href="#av"/><use transform="matrix(0.05,0,0,0.05,38.95,0)" xlink:href="#aw"/><use transform="matrix(0.05,0,0,0.05,48.95,0)" xlink:href="#al"/><use transform="matrix(0.05,0,0,0.05,52.900000000000006,0)" xlink:href="#ax"/><use transform="matrix(0.05,0,0,0.05,56.85,0)" xlink:href="#ap"/></g><path d="M114-163C36-179 61-72 57 0H25l-1-190h30c1 12-1 29 2 39 6-27 23-49 58-41v29" id="ay"/><path d="M177-190C167-65 218 103 67 71c-23-6-38-20-44-43l32-5c15 47 100 32 89-28v-30C133-14 115 1 83 1 29 1 15-40 15-95c0-56 16-97 71-98 29-1 48 16 59 35 1-10 0-23 2-32h30zM94-22c36 0 50-32 50-73 0-42-14-75-50-75-39 0-46 34-46 75s6 73 46 73" id="az"/><path d="M135-143c-3-34-86-38-87 0 15 53 115 12 119 90S17 21 10-45l28-5c4 36 97 45 98 0-10-56-113-15-118-90-4-57 82-63 122-42 12 7 21 19 24 35" id="aA"/><g id="h"><use transform="matrix(0.05,0,0,0.05,0,0)" xlink:href="#ak"/><use transform="matrix(0.05,0,0,0.05,5,0)" xlink:href="#aj"/><use transform="matrix(0.05,0,0,0.05,15,0)" xlink:href="#ay"/><use transform="matrix(0.05,0,0,0.05,20.95,0)" xlink:href="#az"/><use transform="matrix(0.05,0,0,0.05,30.950000000000003,0)" xlink:href="#an"/><use transform="matrix(0.05,0,0,0.05,40.95,0)" xlink:href="#ak"/><use transform="matrix(0.05,0,0,0.05,45.95,0)" xlink:href="#aA"/></g><path d="M30-248c87 1 191-15 191 75 0 78-77 80-158 76V0H30v-248zm33 125c57 0 124 11 124-50 0-59-68-47-124-48v98" id="aB"/><path d="M212-179c-10-28-35-45-73-45-59 0-87 40-87 99 0 60 29 101 89 101 43 0 62-24 78-52l27 14C228-24 195 4 139 4 59 4 22-46 18-125c-6-104 99-153 187-111 19 9 31 26 39 46" id="aC"/><g id="i"><use transform="matrix(0.05,0,0,0.05,0,0)" xlink:href="#aB"/><use transform="matrix(0.05,0,0,0.05,12,0)" xlink:href="#ay"/><use transform="matrix(0.05,0,0,0.05,17.95,0)" xlink:href="#ah"/><use transform="matrix(0.05,0,0,0.05,27.950000000000003,0)" xlink:href="#ak"/><use transform="matrix(0.05,0,0,0.05,32.95,0)" xlink:href="#ah"/><use transform="matrix(0.05,0,0,0.05,42.95,0)" xlink:href="#aC"/></g><g id="j"><use transform="matrix(0.05,0,0,0.05,0,0)" xlink:href="#V"/><use transform="matrix(0.05,0,0,0.05,14,0)" xlink:href="#W"/><use transform="matrix(0.05,0,0,0.05,21,0)" xlink:href="#X"/><use transform="matrix(0.05,0,0,0.05,31.950000000000003,0)" xlink:href="#Y"/><use transform="matrix(0.05,0,0,0.05,41.95,0)" xlink:href="#Z"/><use transform="matrix(0.05,0,0,0.05,46.95,0)" xlink:href="#aa"/><use transform="matrix(0.05,0,0,0.05,59.900000000000006,0)" xlink:href="#ab"/><use transform="matrix(0.05,0,0,0.05,70.85000000000001,0)" xlink:href="#W"/><use transform="matrix(0.05,0,0,0.05,77.85000000000001,0)" xlink:href="#ac"/></g><g id="k"><use transform="matrix(0.05,0,0,0.05,0,0)" xlink:href="#ag"/><use transform="matrix(0.05,0,0,0.05,12.950000000000001,0)" xlink:href="#aj"/><use transform="matrix(0.05,0,0,0.05,22.950000000000003,0)" xlink:href="#ak"/><use transform="matrix(0.05,0,0,0.05,27.950000000000003,0)" xlink:href="#al"/><use transform="matrix(0.05,0,0,0.05,31.900000000000002,0)" xlink:href="#am"/><use transform="matrix(0.05,0,0,0.05,40.900000000000006,0)" xlink:href="#an"/></g><g id="l"><use transform="matrix(0.05,0,0,0.05,0,0)" xlink:href="#au"/><use transform="matrix(0.05,0,0,0.05,12,0)" xlink:href="#an"/><use transform="matrix(0.05,0,0,0.05,22,0)" xlink:href="#ay"/><use transform="matrix(0.05,0,0,0.05,27.950000000000003,0)" xlink:href="#am"/><use transform="matrix(0.05,0,0,0.05,36.95,0)" xlink:href="#an"/><use transform="matrix(0.05,0,0,0.05,46.95,0)" xlink:href="#ay"/></g><g id="m"><use transform="matrix(0.05,0,0,0.05,0,0)" xlink:href="#aC"/><use transform="matrix(0.05,0,0,0.05,12.950000000000001,0)" xlink:href="#ax"/><use transform="matrix(0.05,0,0,0.05,16.900000000000002,0)" xlink:href="#al"/><use transform="matrix(0.05,0,0,0.05,20.85,0)" xlink:href="#an"/><use transform="matrix(0.05,0,0,0.05,30.85,0)" xlink:href="#ai"/><use transform="matrix(0.05,0,0,0.05,40.85,0)" xlink:href="#ak"/></g><path d="M175 0L67-191c6 58 2 128 3 191H24v-248h59L193-55c-6-58-2-129-3-193h46V0h-61" id="aD"/><path d="M115-3C79 11 28 4 28-45v-112H4v-33h27l15-45h31v45h36v33H77v99c-1 23 16 31 38 25v30" id="aE"/><path d="M135-194c87-1 58 113 63 194h-50c-7-57 23-157-34-157-59 0-34 97-39 157H25l-1-190h47c2 12-1 28 3 38 12-26 28-41 61-42" id="aF"/><g id="n"><use transform="matrix(0.05,0,0,0.05,0,0)" xlink:href="#V"/><use transform="matrix(0.05,0,0,0.05,14,0)" xlink:href="#W"/><use transform="matrix(0.05,0,0,0.05,21,0)" xlink:href="#X"/><use transform="matrix(0.05,0,0,0.05,31.950000000000003,0)" xlink:href="#Y"/><use transform="matrix(0.05,0,0,0.05,41.95,0)" xlink:href="#Z"/><use transform="matrix(0.05,0,0,0.05,46.95,0)" xlink:href="#aD"/><use transform="matrix(0.05,0,0,0.05,59.900000000000006,0)" xlink:href="#ac"/><use transform="matrix(0.05,0,0,0.05,69.9,0)" xlink:href="#aE"/><use transform="matrix(0.05,0,0,0.05,75.85000000000001,0)" xlink:href="#Z"/><use transform="matrix(0.05,0,0,0.05,80.85000000000001,0)" xlink:href="#aa"/><use transform="matrix(0.05,0,0,0.05,93.80000000000001,0)" xlink:href="#ar"/><use transform="matrix(0.05,0,0,0.05,98.80000000000001,0)" xlink:href="#ae"/><use transform="matrix(0.05,0,0,0.05,103.80000000000001,0)" xlink:href="#ac"/><use transform="matrix(0.05,0,0,0.05,113.80000000000001,0)" xlink:href="#aF"/><use transform="matrix(0.05,0,0,0.05,124.75,0)" xlink:href="#aE"/></g><g id="o"><use transform="matrix(0.05,0,0,0.05,0,0)" xlink:href="#at"/><use transform="matrix(0.05,0,0,0.05,14.950000000000001,0)" xlink:href="#aj"/><use transform="matrix(0.05,0,0,0.05,24.950000000000003,0)" xlink:href="#ai"/><use transform="matrix(0.05,0,0,0.05,34.95,0)" xlink:href="#aj"/><use transform="matrix(0.05,0,0,0.05,44.95,0)" xlink:href="#az"/><use transform="matrix(0.05,0,0,0.05,54.95,0)" xlink:href="#an"/><use transform="matrix(0.05,0,0,0.05,64.95,0)" xlink:href="#ap"/></g><g id="p"><use transform="matrix(0.05,0,0,0.05,0,0)" xlink:href="#aC"/><use transform="matrix(0.05,0,0,0.05,12.950000000000001,0)" xlink:href="#ax"/><use transform="matrix(0.05,0,0,0.05,16.900000000000002,0)" xlink:href="#al"/><use transform="matrix(0.05,0,0,0.05,20.85,0)" xlink:href="#an"/><use transform="matrix(0.05,0,0,0.05,30.85,0)" xlink:href="#ai"/><use transform="matrix(0.05,0,0,0.05,40.85,0)" xlink:href="#ak"/></g><path d="M30-248c118-7 216 8 213 122C240-48 200 0 122 0H30v-248zM63-27c89 8 146-16 146-99s-60-101-146-95v194" id="aG"/><g id="q"><use transform="matrix(0.05,0,0,0.05,0,0)" xlink:href="#aG"/><use transform="matrix(0.05,0,0,0.05,12.950000000000001,0)" xlink:href="#ah"/><use transform="matrix(0.05,0,0,0.05,22.950000000000003,0)" xlink:href="#ak"/><use transform="matrix(0.05,0,0,0.05,27.950000000000003,0)" xlink:href="#ai"/><use transform="matrix(0.05,0,0,0.05,37.95,0)" xlink:href="#an"/><use transform="matrix(0.05,0,0,0.05,47.95,0)" xlink:href="#ak"/></g><path d="M115-194c55 1 70 41 70 98S169 2 115 4C84 4 66-9 55-30l1 105H24l-1-265h31l2 30c10-21 28-34 59-34zm-8 174c40 0 45-34 45-75s-6-73-45-74c-42 0-51 32-51 76 0 43 10 73 51 73" id="aH"/><g id="r"><use transform="matrix(0.05,0,0,0.05,0,0)" xlink:href="#ap"/><use transform="matrix(0.05,0,0,0.05,10,0)" xlink:href="#an"/><use transform="matrix(0.05,0,0,0.05,20,0)" xlink:href="#aH"/><use transform="matrix(0.05,0,0,0.05,30,0)" xlink:href="#an"/><use transform="matrix(0.05,0,0,0.05,40,0)" xlink:href="#ai"/><use transform="matrix(0.05,0,0,0.05,50,0)" xlink:href="#ap"/><use transform="matrix(0.05,0,0,0.05,60,0)" xlink:href="#an"/><use transform="matrix(0.05,0,0,0.05,70,0)" xlink:href="#ai"/><use transform="matrix(0.05,0,0,0.05,80,0)" xlink:href="#ao"/><use transform="matrix(0.05,0,0,0.05,89,0)" xlink:href="#al"/><use transform="matrix(0.05,0,0,0.05,92.95,0)" xlink:href="#an"/><use transform="matrix(0.05,0,0,0.05,102.95,0)" xlink:href="#aA"/></g><path d="M169-182c-1-43-94-46-97-3 18 66 151 10 154 114 3 95-165 93-204 36-6-8-10-19-12-30l50-8c3 46 112 56 116 5-17-69-150-10-154-114-4-87 153-88 188-35 5 8 8 18 10 28" id="aI"/><path d="M128 0H69L1-190h53L99-40l48-150h52" id="aJ"/><g id="s"><use transform="matrix(0.05,0,0,0.05,0,0)" xlink:href="#V"/><use transform="matrix(0.05,0,0,0.05,14,0)" xlink:href="#W"/><use transform="matrix(0.05,0,0,0.05,21,0)" xlink:href="#X"/><use transform="matrix(0.05,0,0,0.05,31.950000000000003,0)" xlink:href="#Y"/><use transform="matrix(0.05,0,0,0.05,41.95,0)" xlink:href="#Z"/><use transform="matrix(0.05,0,0,0.05,46.95,0)" xlink:href="#ad"/><use transform="matrix(0.05,0,0,0.05,59.900000000000006,0)" xlink:href="#as"/><use transform="matrix(0.05,0,0,0.05,69.9,0)" xlink:href="#X"/><use transform="matrix(0.05,0,0,0.05,80.85000000000001,0)" xlink:href="#aD"/><use transform="matrix(0.05,0,0,0.05,93.80000000000001,0)" xlink:href="#ac"/><use transform="matrix(0.05,0,0,0.05,103.80000000000001,0)" xlink:href="#aE"/><use transform="matrix(0.05,0,0,0.05,109.75,0)" xlink:href="#aa"/><use transform="matrix(0.05,0,0,0.05,122.7,0)" xlink:href="#ab"/><use transform="matrix(0.05,0,0,0.05,133.65,0)" xlink:href="#W"/><use transform="matrix(0.05,0,0,0.05,140.65,0)" xlink:href="#ac"/><use transform="matrix(0.05,0,0,0.05,150.65,0)" xlink:href="#Z"/><use transform="matrix(0.05,0,0,0.05,155.65,0)" xlink:href="#aI"/><use transform="matrix(0.05,0,0,0.05,167.65,0)" xlink:href="#ac"/><use transform="matrix(0.05,0,0,0.05,177.65,0)" xlink:href="#W"/><use transform="matrix(0.05,0,0,0.05,184.65,0)" xlink:href="#aJ"/><use transform="matrix(0.05,0,0,0.05,194.65,0)" xlink:href="#ac"/><use transform="matrix(0.05,0,0,0.05,204.65,0)" xlink:href="#W"/></g><path d="M205 0l-28-72H64L36 0H1l101-248h38L239 0h-34zm-38-99l-47-123c-12 45-31 82-46 123h93" id="aK"/><g id="t"><use transform="matrix(0.05,0,0,0.05,0,0)" xlink:href="#aK"/><use transform="matrix(0.05,0,0,0.05,12,0)" xlink:href="#aA"/><use transform="matrix(0.05,0,0,0.05,21,0)" xlink:href="#aH"/><use transform="matrix(0.05,0,0,0.05,31,0)" xlink:href="#ag"/><use transform="matrix(0.05,0,0,0.05,43.95,0)" xlink:href="#an"/><use transform="matrix(0.05,0,0,0.05,53.95,0)" xlink:href="#ak"/><use transform="matrix(0.05,0,0,0.05,58.95,0)" xlink:href="#aC"/><use transform="matrix(0.05,0,0,0.05,71.9,0)" xlink:href="#ah"/><use transform="matrix(0.05,0,0,0.05,81.9,0)" xlink:href="#ay"/><use transform="matrix(0.05,0,0,0.05,87.85000000000001,0)" xlink:href="#an"/></g><path d="M195-6C206 82 75 100 31 46c-4-6-6-13-8-21l49-6c3 16 16 24 34 25 40 0 42-37 40-79-11 22-30 35-61 35-53 0-70-43-70-97 0-56 18-96 73-97 30 0 46 14 59 34l2-30h47zm-90-29c32 0 41-27 41-63 0-35-9-62-40-62-32 0-39 29-40 63 0 36 9 62 39 62" id="aL"/><path d="M24-248c93 1 206-16 204 79-1 75-69 88-152 82V0H24v-248zm52 121c47 0 100 7 100-41 0-47-54-39-100-39v80" id="aM"/><path d="M135-194c52 0 70 43 70 98 0 56-19 99-73 100-30 1-46-15-58-35L72 0H24l1-261h50v104c11-23 29-37 60-37zM114-30c31 0 40-27 40-66 0-37-7-63-39-63s-41 28-41 65c0 36 8 64 40 64" id="aN"/><path d="M85 4C-2 5 27-109 22-190h50c7 57-23 150 33 157 60-5 35-97 40-157h50l1 190h-47c-2-12 1-28-3-38-12 25-28 42-61 42" id="aO"/><path d="M121-226c-27-7-43 5-38 36h38v33H83V0H34v-157H6v-33h28c-9-59 32-81 87-68v32" id="aP"/><g id="u"><use transform="matrix(0.05,0,0,0.05,0,0)" xlink:href="#V"/><use transform="matrix(0.05,0,0,0.05,14,0)" xlink:href="#ab"/><use transform="matrix(0.05,0,0,0.05,24.950000000000003,0)" xlink:href="#ab"/><use transform="matrix(0.05,0,0,0.05,35.900000000000006,0)" xlink:href="#aL"/><use transform="matrix(0.05,0,0,0.05,46.85000000000001,0)" xlink:href="#ar"/><use transform="matrix(0.05,0,0,0.05,51.85,0)" xlink:href="#ac"/><use transform="matrix(0.05,0,0,0.05,61.85,0)" xlink:href="#Z"/><use transform="matrix(0.05,0,0,0.05,66.85000000000001,0)" xlink:href="#aM"/><use transform="matrix(0.05,0,0,0.05,78.85000000000001,0)" xlink:href="#W"/><use transform="matrix(0.05,0,0,0.05,85.85000000000001,0)" xlink:href="#ab"/><use transform="matrix(0.05,0,0,0.05,96.80000000000001,0)" xlink:href="#aE"/><use transform="matrix(0.05,0,0,0.05,102.75,0)" xlink:href="#ab"/><use transform="matrix(0.05,0,0,0.05,113.7,0)" xlink:href="#aN"/><use transform="matrix(0.05,0,0,0.05,124.65000000000003,0)" xlink:href="#aO"/><use transform="matrix(0.05,0,0,0.05,135.60000000000002,0)" xlink:href="#aP"/></g><use transform="matrix(0.05,0,0,0.05,0,0)" xlink:href="#af" id="v"/><g id="w"><use transform="matrix(0.05,0,0,0.05,0,0)" xlink:href="#at"/><use transform="matrix(0.05,0,0,0.05,14.950000000000001,0)" xlink:href="#an"/><use transform="matrix(0.05,0,0,0.05,24.950000000000003,0)" xlink:href="#aA"/><use transform="matrix(0.05,0,0,0.05,33.95,0)" xlink:href="#aA"/><use transform="matrix(0.05,0,0,0.05,42.95,0)" xlink:href="#aj"/><use transform="matrix(0.05,0,0,0.05,52.95,0)" xlink:href="#az"/><use transform="matrix(0.05,0,0,0.05,62.95,0)" xlink:href="#an"/></g><path d="M9 0v-24l116-142H16v-24h144v24L44-24h123V0H9" id="aQ"/><path d="M0 4l72-265h28L28 4H0" id="aR"/><g id="x"><use transform="matrix(0.05,0,0,0.05,0,0)" xlink:href="#aA"/><use transform="matrix(0.05,0,0,0.05,9,0)" xlink:href="#an"/><use transform="matrix(0.05,0,0,0.05,19,0)" xlink:href="#ay"/><use transform="matrix(0.05,0,0,0.05,24.95,0)" xlink:href="#al"/><use transform="matrix(0.05,0,0,0.05,28.899999999999995,0)" xlink:href="#aj"/><use transform="matrix(0.05,0,0,0.05,38.9,0)" xlink:href="#ax"/><use transform="matrix(0.05,0,0,0.05,42.85,0)" xlink:href="#al"/><use transform="matrix(0.05,0,0,0.05,46.800000000000004,0)" xlink:href="#aQ"/><use transform="matrix(0.05,0,0,0.05,55.800000000000004,0)" xlink:href="#aj"/><use transform="matrix(0.05,0,0,0.05,65.80000000000001,0)" xlink:href="#ak"/><use transform="matrix(0.05,0,0,0.05,70.80000000000001,0)" xlink:href="#al"/><use transform="matrix(0.05,0,0,0.05,74.75000000000001,0)" xlink:href="#ah"/><use transform="matrix(0.05,0,0,0.05,84.75000000000001,0)" xlink:href="#ai"/><use transform="matrix(0.05,0,0,0.05,94.75000000000001,0)" xlink:href="#aR"/><use transform="matrix(0.05,0,0,0.05,99.75000000000001,0)" xlink:href="#ap"/><use transform="matrix(0.05,0,0,0.05,109.75,0)" xlink:href="#an"/><use transform="matrix(0.05,0,0,0.05,119.75,0)" xlink:href="#aA"/><use transform="matrix(0.05,0,0,0.05,128.75,0)" xlink:href="#an"/><use transform="matrix(0.05,0,0,0.05,138.75,0)" xlink:href="#ay"/><use transform="matrix(0.05,0,0,0.05,144.7,0)" xlink:href="#al"/><use transform="matrix(0.05,0,0,0.05,148.64999999999998,0)" xlink:href="#aj"/><use transform="matrix(0.05,0,0,0.05,158.64999999999998,0)" xlink:href="#ax"/><use transform="matrix(0.05,0,0,0.05,162.59999999999997,0)" xlink:href="#al"/><use transform="matrix(0.05,0,0,0.05,166.54999999999995,0)" xlink:href="#aQ"/><use transform="matrix(0.05,0,0,0.05,175.54999999999995,0)" xlink:href="#aj"/><use transform="matrix(0.05,0,0,0.05,185.54999999999995,0)" xlink:href="#ak"/><use transform="matrix(0.05,0,0,0.05,190.54999999999995,0)" xlink:href="#al"/><use transform="matrix(0.05,0,0,0.05,194.49999999999994,0)" xlink:href="#ah"/><use transform="matrix(0.05,0,0,0.05,204.49999999999994,0)" xlink:href="#ai"/></g><g id="y"><use transform="matrix(0.05,0,0,0.05,0,0)" xlink:href="#V"/><use transform="matrix(0.05,0,0,0.05,14,0)" xlink:href="#W"/><use transform="matrix(0.05,0,0,0.05,21,0)" xlink:href="#X"/><use transform="matrix(0.05,0,0,0.05,31.950000000000003,0)" xlink:href="#Y"/><use transform="matrix(0.05,0,0,0.05,41.95,0)" xlink:href="#Z"/><use transform="matrix(0.05,0,0,0.05,46.95,0)" xlink:href="#ad"/><use transform="matrix(0.05,0,0,0.05,59.900000000000006,0)" xlink:href="#as"/><use transform="matrix(0.05,0,0,0.05,69.9,0)" xlink:href="#X"/><use transform="matrix(0.05,0,0,0.05,80.85000000000001,0)" xlink:href="#aD"/><use transform="matrix(0.05,0,0,0.05,93.80000000000001,0)" xlink:href="#ac"/><use transform="matrix(0.05,0,0,0.05,103.80000000000001,0)" xlink:href="#aE"/><use transform="matrix(0.05,0,0,0.05,109.75,0)" xlink:href="#aa"/><use transform="matrix(0.05,0,0,0.05,122.7,0)" xlink:href="#ab"/><use transform="matrix(0.05,0,0,0.05,133.65,0)" xlink:href="#W"/><use transform="matrix(0.05,0,0,0.05,140.65,0)" xlink:href="#ac"/></g><path d="M143 0L79-87 56-68V0H24v-261h32v163l83-92h37l-77 82L181 0h-38" id="aS"/><g id="z"><use transform="matrix(0.05,0,0,0.05,0,0)" xlink:href="#at"/><use transform="matrix(0.05,0,0,0.05,14.950000000000001,0)" xlink:href="#an"/><use transform="matrix(0.05,0,0,0.05,24.950000000000003,0)" xlink:href="#ak"/><use transform="matrix(0.05,0,0,0.05,29.950000000000003,0)" xlink:href="#aj"/><use transform="matrix(0.05,0,0,0.05,39.95,0)" xlink:href="#aH"/><use transform="matrix(0.05,0,0,0.05,49.95,0)" xlink:href="#aj"/><use transform="matrix(0.05,0,0,0.05,59.95,0)" xlink:href="#ao"/><use transform="matrix(0.05,0,0,0.05,68.95,0)" xlink:href="#aS"/><use transform="matrix(0.05,0,0,0.05,77.95,0)" xlink:href="#aj"/><use transform="matrix(0.05,0,0,0.05,87.95,0)" xlink:href="#az"/><use transform="matrix(0.05,0,0,0.05,97.95,0)" xlink:href="#an"/></g><use transform="matrix(0.05,0,0,0.05,0,0)" xlink:href="#af" id="A"/><g id="B"><use transform="matrix(0.05,0,0,0.05,0,0)" xlink:href="#aC"/><use transform="matrix(0.05,0,0,0.05,12.950000000000001,0)" xlink:href="#ax"/><use transform="matrix(0.05,0,0,0.05,16.900000000000002,0)" xlink:href="#al"/><use transform="matrix(0.05,0,0,0.05,20.85,0)" xlink:href="#an"/><use transform="matrix(0.05,0,0,0.05,30.85,0)" xlink:href="#ai"/><use transform="matrix(0.05,0,0,0.05,40.85,0)" xlink:href="#ak"/></g><g id="C"><use transform="matrix(0.05,0,0,0.05,0,0)" xlink:href="#aj"/><use transform="matrix(0.05,0,0,0.05,10,0)" xlink:href="#ai"/><use transform="matrix(0.05,0,0,0.05,20,0)" xlink:href="#ap"/></g><g id="D"><use transform="matrix(0.05,0,0,0.05,0,0)" xlink:href="#au"/><use transform="matrix(0.05,0,0,0.05,12,0)" xlink:href="#an"/><use transform="matrix(0.05,0,0,0.05,22,0)" xlink:href="#ay"/><use transform="matrix(0.05,0,0,0.05,27.950000000000003,0)" xlink:href="#am"/><use transform="matrix(0.05,0,0,0.05,36.95,0)" xlink:href="#an"/><use transform="matrix(0.05,0,0,0.05,46.95,0)" xlink:href="#ay"/></g><path d="M14-72v-43h91v43H14" id="aT"/><path d="M88-194c31-1 46 15 58 34l-1-101h50l1 261h-48c-2-10 0-23-3-31C134-8 116 4 84 4 32 4 16-41 15-95c0-56 19-97 73-99zm17 164c33 0 40-30 41-66 1-37-9-64-41-64s-38 30-39 65c0 43 13 65 39 65" id="aU"/><g id="E"><use transform="matrix(0.05,0,0,0.05,0,0)" xlink:href="#aL"/><use transform="matrix(0.05,0,0,0.05,10.950000000000001,0)" xlink:href="#W"/><use transform="matrix(0.05,0,0,0.05,17.950000000000003,0)" xlink:href="#X"/><use transform="matrix(0.05,0,0,0.05,28.900000000000006,0)" xlink:href="#Y"/><use transform="matrix(0.05,0,0,0.05,38.900000000000006,0)" xlink:href="#aT"/><use transform="matrix(0.05,0,0,0.05,44.85000000000001,0)" xlink:href="#aU"/><use transform="matrix(0.05,0,0,0.05,55.80000000000001,0)" xlink:href="#ab"/><use transform="matrix(0.05,0,0,0.05,66.75000000000001,0)" xlink:href="#aE"/><use transform="matrix(0.05,0,0,0.05,72.70000000000002,0)" xlink:href="#aF"/><use transform="matrix(0.05,0,0,0.05,83.65000000000002,0)" xlink:href="#ac"/><use transform="matrix(0.05,0,0,0.05,93.65000000000002,0)" xlink:href="#aE"/></g><g id="F"><use transform="matrix(0.05,0,0,0.05,0,0)" xlink:href="#V"/><use transform="matrix(0.05,0,0,0.05,14,0)" xlink:href="#W"/><use transform="matrix(0.05,0,0,0.05,21,0)" xlink:href="#X"/><use transform="matrix(0.05,0,0,0.05,31.950000000000003,0)" xlink:href="#Y"/><use transform="matrix(0.05,0,0,0.05,41.95,0)" xlink:href="#Z"/><use transform="matrix(0.05,0,0,0.05,46.95,0)" xlink:href="#aa"/><use transform="matrix(0.05,0,0,0.05,59.900000000000006,0)" xlink:href="#ab"/><use transform="matrix(0.05,0,0,0.05,70.85000000000001,0)" xlink:href="#W"/><use transform="matrix(0.05,0,0,0.05,77.85000000000001,0)" xlink:href="#ac"/></g><path d="M30 0v-248h33v221h125V0H30" id="aV"/><g id="G"><use transform="matrix(0.05,0,0,0.05,0,0)" xlink:href="#aV"/><use transform="matrix(0.05,0,0,0.05,10,0)" xlink:href="#an"/><use transform="matrix(0.05,0,0,0.05,20,0)" xlink:href="#az"/><use transform="matrix(0.05,0,0,0.05,30,0)" xlink:href="#an"/><use transform="matrix(0.05,0,0,0.05,40,0)" xlink:href="#ai"/><use transform="matrix(0.05,0,0,0.05,50,0)" xlink:href="#ap"/></g><path d="M76-208v77h127v40H76V0H24v-248h183v40H76" id="aW"/><path d="M133-34C117-15 103 5 69 4 32 3 11-16 11-54c-1-60 55-63 116-61 1-26-3-47-28-47-18 1-26 9-28 27l-52-2c7-38 36-58 82-57s74 22 75 68l1 82c-1 14 12 18 25 15v27c-30 8-71 5-69-32zm-48 3c29 0 43-24 42-57-32 0-66-3-65 30 0 17 8 27 23 27" id="aX"/><path d="M123 10C108 53 80 86 19 72V37c35 8 53-11 59-39L3-190h52l48 148c12-52 28-100 44-148h51" id="aY"/><g id="H"><use transform="matrix(0.05,0,0,0.05,0,0)" xlink:href="#V"/><use transform="matrix(0.05,0,0,0.05,14,0)" xlink:href="#W"/><use transform="matrix(0.05,0,0,0.05,21,0)" xlink:href="#X"/><use transform="matrix(0.05,0,0,0.05,31.950000000000003,0)" xlink:href="#Y"/><use transform="matrix(0.05,0,0,0.05,41.95,0)" xlink:href="#Z"/><use transform="matrix(0.05,0,0,0.05,46.95,0)" xlink:href="#aD"/><use transform="matrix(0.05,0,0,0.05,59.900000000000006,0)" xlink:href="#ac"/><use transform="matrix(0.05,0,0,0.05,69.9,0)" xlink:href="#aE"/><use transform="matrix(0.05,0,0,0.05,75.85000000000001,0)" xlink:href="#Z"/><use transform="matrix(0.05,0,0,0.05,80.85000000000001,0)" xlink:href="#aa"/><use transform="matrix(0.05,0,0,0.05,93.80000000000001,0)" xlink:href="#ar"/><use transform="matrix(0.05,0,0,0.05,98.80000000000001,0)" xlink:href="#ae"/><use transform="matrix(0.05,0,0,0.05,103.80000000000001,0)" xlink:href="#ac"/><use transform="matrix(0.05,0,0,0.05,113.80000000000001,0)" xlink:href="#aF"/><use transform="matrix(0.05,0,0,0.05,124.75,0)" xlink:href="#aE"/><use transform="matrix(0.05,0,0,0.05,130.70000000000002,0)" xlink:href="#aW"/><use transform="matrix(0.05,0,0,0.05,141.65,0)" xlink:href="#aX"/><use transform="matrix(0.05,0,0,0.05,151.65,0)" xlink:href="#Y"/><use transform="matrix(0.05,0,0,0.05,161.65,0)" xlink:href="#aE"/><use transform="matrix(0.05,0,0,0.05,167.6,0)" xlink:href="#ab"/><use transform="matrix(0.05,0,0,0.05,178.54999999999998,0)" xlink:href="#W"/><use transform="matrix(0.05,0,0,0.05,185.54999999999998,0)" xlink:href="#aY"/></g><path d="M63-220v92h138v28H63V0H30v-248h175v28H63" id="aZ"/><path d="M179-190L93 31C79 59 56 82 12 73V49c39 6 53-20 64-50L1-190h34L92-34l54-156h33" id="ba"/><g id="I"><use transform="matrix(0.05,0,0,0.05,0,0)" xlink:href="#aC"/><use transform="matrix(0.05,0,0,0.05,12.950000000000001,0)" xlink:href="#ax"/><use transform="matrix(0.05,0,0,0.05,16.900000000000002,0)" xlink:href="#al"/><use transform="matrix(0.05,0,0,0.05,20.85,0)" xlink:href="#an"/><use transform="matrix(0.05,0,0,0.05,30.85,0)" xlink:href="#ai"/><use transform="matrix(0.05,0,0,0.05,40.85,0)" xlink:href="#ak"/><use transform="matrix(0.05,0,0,0.05,45.85,0)" xlink:href="#aZ"/><use transform="matrix(0.05,0,0,0.05,56.800000000000004,0)" xlink:href="#aj"/><use transform="matrix(0.05,0,0,0.05,66.80000000000001,0)" xlink:href="#ao"/><use transform="matrix(0.05,0,0,0.05,75.80000000000001,0)" xlink:href="#ak"/><use transform="matrix(0.05,0,0,0.05,80.80000000000001,0)" xlink:href="#ah"/><use transform="matrix(0.05,0,0,0.05,90.80000000000001,0)" xlink:href="#ay"/><use transform="matrix(0.05,0,0,0.05,96.75000000000001,0)" xlink:href="#ba"/></g><path d="M33 0v-248h34V0H33" id="bb"/><g id="J"><use transform="matrix(0.05,0,0,0.05,0,0)" xlink:href="#bb"/><use transform="matrix(0.05,0,0,0.05,5,0)" xlink:href="#ai"/><use transform="matrix(0.05,0,0,0.05,15,0)" xlink:href="#ak"/><use transform="matrix(0.05,0,0,0.05,20,0)" xlink:href="#an"/><use transform="matrix(0.05,0,0,0.05,30,0)" xlink:href="#az"/><use transform="matrix(0.05,0,0,0.05,40,0)" xlink:href="#ay"/><use transform="matrix(0.05,0,0,0.05,45.95,0)" xlink:href="#aj"/><use transform="matrix(0.05,0,0,0.05,55.95,0)" xlink:href="#ak"/><use transform="matrix(0.05,0,0,0.05,60.95,0)" xlink:href="#al"/><use transform="matrix(0.05,0,0,0.05,64.9,0)" xlink:href="#ah"/><use transform="matrix(0.05,0,0,0.05,74.9,0)" xlink:href="#ai"/></g><path d="M206 0h-36l-40-164L89 0H53L-1-190h32L70-26l43-164h34l41 164 42-164h31" id="bc"/><path d="M106-169C34-169 62-67 57 0H25v-261h32l-1 103c12-21 28-36 61-36 89 0 53 116 60 194h-32v-121c2-32-8-49-39-48" id="bd"/><g id="K"><use transform="matrix(0.05,0,0,0.05,0,0)" xlink:href="#bc"/><use transform="matrix(0.05,0,0,0.05,12.950000000000001,0)" xlink:href="#al"/><use transform="matrix(0.05,0,0,0.05,16.900000000000002,0)" xlink:href="#ak"/><use transform="matrix(0.05,0,0,0.05,21.900000000000002,0)" xlink:href="#bd"/></g><g id="L"><use transform="matrix(0.05,0,0,0.05,0,0)" xlink:href="#aG"/><use transform="matrix(0.05,0,0,0.05,12.950000000000001,0)" xlink:href="#bb"/></g><g id="M"><use transform="matrix(0.05,0,0,0.05,0,0)" xlink:href="#V"/><use transform="matrix(0.05,0,0,0.05,14,0)" xlink:href="#W"/><use transform="matrix(0.05,0,0,0.05,21,0)" xlink:href="#X"/><use transform="matrix(0.05,0,0,0.05,31.950000000000003,0)" xlink:href="#Y"/><use transform="matrix(0.05,0,0,0.05,41.95,0)" xlink:href="#Z"/><use transform="matrix(0.05,0,0,0.05,46.95,0)" xlink:href="#ad"/><use transform="matrix(0.05,0,0,0.05,59.900000000000006,0)" xlink:href="#as"/><use transform="matrix(0.05,0,0,0.05,69.9,0)" xlink:href="#X"/><use transform="matrix(0.05,0,0,0.05,80.85000000000001,0)" xlink:href="#aD"/><use transform="matrix(0.05,0,0,0.05,93.80000000000001,0)" xlink:href="#ac"/><use transform="matrix(0.05,0,0,0.05,103.80000000000001,0)" xlink:href="#aE"/><use transform="matrix(0.05,0,0,0.05,109.75,0)" xlink:href="#aa"/><use transform="matrix(0.05,0,0,0.05,122.7,0)" xlink:href="#ab"/><use transform="matrix(0.05,0,0,0.05,133.65,0)" xlink:href="#W"/><use transform="matrix(0.05,0,0,0.05,140.65,0)" xlink:href="#ac"/><use transform="matrix(0.05,0,0,0.05,150.65,0)" xlink:href="#Z"/><use transform="matrix(0.05,0,0,0.05,155.65,0)" xlink:href="#aI"/><use transform="matrix(0.05,0,0,0.05,167.65,0)" xlink:href="#ac"/><use transform="matrix(0.05,0,0,0.05,177.65,0)" xlink:href="#W"/><use transform="matrix(0.05,0,0,0.05,184.65,0)" xlink:href="#aJ"/><use transform="matrix(0.05,0,0,0.05,194.65,0)" xlink:href="#ac"/><use transform="matrix(0.05,0,0,0.05,204.65,0)" xlink:href="#W"/></g><g id="N"><use transform="matrix(0.05,0,0,0.05,0,0)" xlink:href="#Z"/><use transform="matrix(0.05,0,0,0.05,5,0)" xlink:href="#aa"/><use transform="matrix(0.05,0,0,0.05,17.950000000000003,0)" xlink:href="#ar"/><use transform="matrix(0.05,0,0,0.05,22.950000000000003,0)" xlink:href="#ae"/><use transform="matrix(0.05,0,0,0.05,27.950000000000003,0)" xlink:href="#ac"/><use transform="matrix(0.05,0,0,0.05,37.95,0)" xlink:href="#aF"/><use transform="matrix(0.05,0,0,0.05,48.900000000000006,0)" xlink:href="#aE"/><use transform="matrix(0.05,0,0,0.05,54.85,0)" xlink:href="#aW"/><use transform="matrix(0.05,0,0,0.05,65.80000000000001,0)" xlink:href="#aX"/><use transform="matrix(0.05,0,0,0.05,75.80000000000001,0)" xlink:href="#Y"/><use transform="matrix(0.05,0,0,0.05,85.80000000000001,0)" xlink:href="#aE"/><use transform="matrix(0.05,0,0,0.05,91.75000000000001,0)" xlink:href="#ab"/><use transform="matrix(0.05,0,0,0.05,102.7,0)" xlink:href="#W"/><use transform="matrix(0.05,0,0,0.05,109.7,0)" xlink:href="#aY"/></g><use transform="matrix(0.05,0,0,0.05,0,0)" xlink:href="#aT" id="O"/><g id="P"><use transform="matrix(0.05,0,0,0.05,0,0)" xlink:href="#au"/><use transform="matrix(0.05,0,0,0.05,12,0)" xlink:href="#an"/><use transform="matrix(0.05,0,0,0.05,22,0)" xlink:href="#ay"/><use transform="matrix(0.05,0,0,0.05,27.950000000000003,0)" xlink:href="#am"/><use transform="matrix(0.05,0,0,0.05,36.95,0)" xlink:href="#an"/><use transform="matrix(0.05,0,0,0.05,46.95,0)" xlink:href="#ay"/></g><g id="Q"><use transform="matrix(0.05,0,0,0.05,0,0)" xlink:href="#aj"/><use transform="matrix(0.05,0,0,0.05,10,0)" xlink:href="#ai"/><use transform="matrix(0.05,0,0,0.05,20,0)" xlink:href="#ap"/></g><g id="R"><use transform="matrix(0.05,0,0,0.05,0,0)" xlink:href="#aC"/><use transform="matrix(0.05,0,0,0.05,12.950000000000001,0)" xlink:href="#ax"/><use transform="matrix(0.05,0,0,0.05,16.900000000000002,0)" xlink:href="#al"/><use transform="matrix(0.05,0,0,0.05,20.85,0)" xlink:href="#an"/><use transform="matrix(0.05,0,0,0.05,30.85,0)" xlink:href="#ai"/><use transform="matrix(0.05,0,0,0.05,40.85,0)" xlink:href="#ak"/></g><g id="S"><use transform="matrix(0.05,0,0,0.05,0,0)" xlink:href="#bb"/><use transform="matrix(0.05,0,0,0.05,5,0)" xlink:href="#ai"/><use transform="matrix(0.05,0,0,0.05,15,0)" xlink:href="#ak"/><use transform="matrix(0.05,0,0,0.05,20,0)" xlink:href="#an"/><use transform="matrix(0.05,0,0,0.05,30,0)" xlink:href="#az"/><use transform="matrix(0.05,0,0,0.05,40,0)" xlink:href="#ay"/><use transform="matrix(0.05,0,0,0.05,45.95,0)" xlink:href="#aj"/><use transform="matrix(0.05,0,0,0.05,55.95,0)" xlink:href="#ak"/><use transform="matrix(0.05,0,0,0.05,60.95,0)" xlink:href="#al"/><use transform="matrix(0.05,0,0,0.05,64.9,0)" xlink:href="#ah"/><use transform="matrix(0.05,0,0,0.05,74.9,0)" xlink:href="#ai"/></g><path d="M114-157C55-157 80-60 75 0H25v-261h50l-1 109c12-26 28-41 61-42 86-1 58 113 63 194h-50c-7-57 23-157-34-157" id="be"/><g id="T"><use transform="matrix(0.05,0,0,0.05,0,0)" xlink:href="#aI"/><use transform="matrix(0.05,0,0,0.05,12,0)" xlink:href="#be"/><use transform="matrix(0.05,0,0,0.05,22.950000000000003,0)" xlink:href="#aX"/><use transform="matrix(0.05,0,0,0.05,32.95,0)" xlink:href="#W"/><use transform="matrix(0.05,0,0,0.05,39.95,0)" xlink:href="#ac"/><use transform="matrix(0.05,0,0,0.05,49.95,0)" xlink:href="#aU"/></g><path d="M147 0L96-86 75-71V0H25v-261h50v150l67-79h53l-66 74L201 0h-54" id="bf"/><g id="U"><use transform="matrix(0.05,0,0,0.05,0,0)" xlink:href="#X"/><use transform="matrix(0.05,0,0,0.05,10.950000000000001,0)" xlink:href="#aX"/><use transform="matrix(0.05,0,0,0.05,20.950000000000003,0)" xlink:href="#Y"/><use transform="matrix(0.05,0,0,0.05,30.950000000000003,0)" xlink:href="#bf"/><use transform="matrix(0.05,0,0,0.05,40.95,0)" xlink:href="#aX"/><use transform="matrix(0.05,0,0,0.05,50.95,0)" xlink:href="#aL"/><use transform="matrix(0.05,0,0,0.05,61.900000000000006,0)" xlink:href="#ac"/><use transform="matrix(0.05,0,0,0.05,71.9,0)" xlink:href="#as"/></g></defs></g></svg>