<svg version="1.1" viewBox="0.0 0.0 480.0 336.0" fill="none" stroke="none" stroke-linecap="square" stroke-miterlimit="10" xmlns:xlink="http://www.w3.org/1999/xlink" xmlns="http://www.w3.org/2000/svg"><clipPath id="p.0"><path d="m0 0l480.0 0l0 336.0l-480.0 0l0 -336.0z" clip-rule="nonzero"/></clipPath><g clip-path="url(#p.0)"><path fill="#000000" fill-opacity="0.0" d="m0 0l480.0 0l0 336.0l-480.0 0z" fill-rule="evenodd"/><defs><linearGradient id="p.1" gradientUnits="userSpaceOnUse" gradientTransform="matrix(9.79804764204886 0.0 0.0 9.79804764204886 0.0 0.0)" spreadMethod="pad" x1="6.419725156360095E-10" y1="-1.7734096564357889E-4" x2="-3.546819392705154E-5" y2="9.797870301019021"><stop offset="0.0" stop-color="#f5d0d0"/><stop offset="1.0" stop-color="#d96868"/></linearGradient></defs><path fill="url(#p.1)" d="m0 0l480.0 0l0 96.0l-480.0 0z" fill-rule="evenodd"/><path stroke="#000000" stroke-width="1.0" stroke-linejoin="round" stroke-linecap="butt" d="m0 0l480.0 0l0 96.0l-480.0 0z" fill-rule="evenodd"/><path fill="#000000" d="m205.875 16.438126l4.46875 11.421875l-1.6875 0l-1.234375 -3.4375l-4.84375 0l-1.28125 3.4375l-1.5625 0l4.46875 -11.421875l1.671875 0zm-0.875 1.375l-1.9375 5.328125l3.875 0l-1.90625 -5.328125l-0.03125 0zm10.3203125 1.578125q1.765625 0 2.78125 1.21875q1.03125 1.21875 1.03125 3.140625q0 1.921875 -1.015625 3.125q-1.015625 1.1875 -2.765625 1.1875q-0.765625 0 -1.515625 -0.328125q-0.734375 -0.328125 -1.15625 -0.984375l-0.03125 0l0 4.28125l-1.359375 0l0 -11.453125l1.359375 0l0 1.125l0.03125 0q0.3125 -0.640625 1.0 -0.96875q0.703125 -0.34375 1.640625 -0.34375zm-2.71875 4.328125q0 1.4375 0.6875 2.28125q0.703125 0.84375 1.921875 0.84375q1.171875 0 1.8125 -0.84375q0.65625 -0.84375 0.65625 -2.34375q0 -1.34375 -0.6875 -2.203125q-0.671875 -0.859375 -1.875 -0.859375q-1.203125 0 -1.859375 0.875q-0.65625 0.875 -0.65625 2.25zm12.203125 -4.328125q1.765625 0 2.78125 1.21875q1.03125 1.21875 1.03125 3.140625q0 1.921875 -1.015625 3.125q-1.015625 1.1875 -2.765625 1.1875q-0.765625 0 -1.515625 -0.328125q-0.734375 -0.328125 -1.15625 -0.984375l-0.03125 0l0 4.28125l-1.359375 0l0 -11.453125l1.359375 0l0 1.125l0.03125 0q0.3125 -0.640625 1.0 -0.96875q0.703125 -0.34375 1.640625 -0.34375zm-2.71875 4.328125q0 1.4375 0.6875 2.28125q0.703125 0.84375 1.921875 0.84375q1.171875 0 1.8125 -0.84375q0.65625 -0.84375 0.65625 -2.34375q0 -1.34375 -0.6875 -2.203125q-0.671875 -0.859375 -1.875 -0.859375q-1.203125 0 -1.859375 0.875q-0.65625 0.875 -0.65625 2.25zm9.5625 -7.28125l0 11.421875l-1.359375 0l0 -11.421875l1.359375 0zm3.5546875 0l0 1.65625l-1.359375 0l0 -1.65625l1.359375 0zm0 3.140625l0 8.28125l-1.359375 0l0 -8.28125l1.359375 0zm5.5703125 -0.1875q1.515625 0 2.453125 0.71875q0.953125 0.71875 1.109375 2.125l-1.40625 0q-0.15625 -0.796875 -0.703125 -1.21875q-0.53125 -0.421875 -1.34375 -0.421875q-1.265625 0 -1.921875 0.84375q-0.65625 0.84375 -0.65625 2.390625q0 1.375 0.640625 2.203125q0.65625 0.8125 1.78125 0.8125q0.984375 0 1.5625 -0.53125q0.578125 -0.53125 0.703125 -1.484375l1.390625 0q-0.21875 1.546875 -1.15625 2.390625q-0.9375 0.84375 -2.484375 0.84375q-1.8125 0 -2.84375 -1.140625q-1.03125 -1.140625 -1.03125 -3.09375q0 -2.03125 1.046875 -3.234375q1.046875 -1.203125 2.859375 -1.203125zm8.515625 0q1.6875 0 2.390625 0.609375q0.71875 0.59375 0.71875 1.609375q0 4.296875 0 4.765625q0 0.46875 0.421875 0.46875q0.09375 0 0.203125 -0.015625q0.109375 -0.03125 0.21875 -0.0625l0 1.0625q-0.1875 0.109375 -0.4375 0.171875q-0.25 0.0625 -0.53125 0.0625q-0.5625 0 -0.859375 -0.3125q-0.296875 -0.328125 -0.296875 -0.984375q-0.546875 0.640625 -1.28125 0.96875q-0.734375 0.328125 -1.640625 0.328125q-1.28125 0 -2.015625 -0.609375q-0.71875 -0.609375 -0.71875 -1.71875q0 -1.125 0.703125 -1.765625q0.71875 -0.65625 3.359375 -0.984375q0.890625 -0.125 1.203125 -0.34375q0.3125 -0.234375 0.3125 -0.6875q0 -0.6875 -0.4375 -1.015625q-0.4375 -0.34375 -1.40625 -0.34375q-1.0 0 -1.515625 0.390625q-0.5 0.375 -0.53125 1.171875l-1.359375 0q0.0625 -1.375 0.96875 -2.0625q0.90625 -0.703125 2.53125 -0.703125zm-2.390625 6.234375q0 0.578125 0.421875 0.90625q0.421875 0.3125 1.1875 0.3125q1.140625 0 1.828125 -0.5625q0.6875 -0.578125 0.6875 -1.28125l0 -1.421875q-0.34375 0.25 -0.890625 0.34375q-0.546875 0.078125 -1.453125 0.203125q-0.90625 0.125 -1.34375 0.484375q-0.4375 0.359375 -0.4375 1.015625zm9.5 -8.515625l0 2.46875l1.640625 0l0 1.203125l-1.640625 0l0 5.1875q0 0.609375 0.40625 0.65625q0.40625 0.03125 0.859375 0.03125l0.375 0l0 1.203125l-1.125 0q-1.109375 0 -1.5 -0.390625q-0.375 -0.40625 -0.375 -1.34375l0 -5.34375l-1.421875 0l0 -1.203125l1.421875 0l0 -2.46875l1.359375 0zm4.5859375 -0.671875l0 1.65625l-1.359375 0l0 -1.65625l1.359375 0zm0 3.140625l0 8.28125l-1.359375 0l0 -8.28125l1.359375 0zm5.6796875 -0.1875q1.875 0 2.9375 1.21875q1.078125 1.203125 1.078125 3.125q0 1.921875 -1.09375 3.125q-1.09375 1.203125 -2.921875 1.203125q-1.796875 0 -2.90625 -1.171875q-1.109375 -1.1875 -1.109375 -3.15625q0 -1.96875 1.078125 -3.15625q1.09375 -1.1875 2.9375 -1.1875zm-2.578125 4.34375q0 1.421875 0.71875 2.265625q0.734375 0.84375 1.859375 0.84375q1.125 0 1.84375 -0.84375q0.734375 -0.859375 0.734375 -2.265625q0 -1.421875 -0.734375 -2.28125q-0.71875 -0.859375 -1.859375 -0.859375q-1.09375 0 -1.828125 0.84375q-0.734375 0.84375 -0.734375 2.296875zm12.203125 -4.34375q1.5 0 2.171875 0.765625q0.671875 0.765625 0.671875 2.1875l0 5.515625l-1.359375 0l0 -5.65625q0 -0.703125 -0.453125 -1.15625q-0.4375 -0.453125 -1.234375 -0.453125q-1.15625 0 -1.796875 0.703125q-0.640625 0.703125 -0.640625 1.828125l0 4.734375l-1.359375 0l0 -8.28125l1.28125 0l0 1.3125l0.03125 0q0.453125 -0.765625 1.109375 -1.125q0.65625 -0.375 1.578125 -0.375z" fill-rule="nonzero"/><defs><linearGradient id="p.2" gradientUnits="userSpaceOnUse" gradientTransform="matrix(6.928329015463162 0.0 0.0 6.928329015463162 0.0 0.0)" spreadMethod="pad" x1="9.063071021162894E-10" y1="13.855064273271909" x2="-2.50795749025284E-5" y2="20.783393288689677"><stop offset="0.0" stop-color="#fdecdb"/><stop offset="1.0" stop-color="#f0a963"/></linearGradient></defs><path fill="url(#p.2)" d="m0 95.99419l480.0 0l0 48.0l-480.0 0z" fill-rule="evenodd"/><path stroke="#000000" stroke-width="1.0" stroke-linejoin="round" stroke-linecap="butt" d="m0 95.99419l480.0 0l0 48.0l-480.0 0z" fill-rule="evenodd"/><path fill="#000000" d="m138.55469 117.38544q0.875 0 1.5 0.375q0.640625 0.375 0.984375 1.0l0.015625 0l0 -1.1875l1.265625 0l0 7.65625q0 1.953125 -0.9375 2.96875q-0.9375 1.015625 -2.890625 1.015625q-1.421875 0 -2.390625 -0.625q-0.96875 -0.625 -1.03125 -1.796875l1.359375 0q0.03125 0.625 0.671875 0.984375q0.640625 0.359375 1.46875 0.359375q1.203125 0 1.84375 -0.796875q0.640625 -0.796875 0.640625 -2.375l0 -0.515625l-0.03125 0q-0.328125 0.6875 -1.015625 1.09375q-0.6875 0.40625 -1.578125 0.40625q-1.671875 0 -2.6875 -1.15625q-1.0 -1.15625 -1.0 -3.03125q0 -1.90625 1.0 -3.140625q1.015625 -1.234375 2.8125 -1.234375zm-2.375 4.203125q0 1.484375 0.609375 2.328125q0.625 0.828125 1.734375 0.828125q1.125 0 1.78125 -0.859375q0.671875 -0.875 0.671875 -2.34375q0 -1.328125 -0.625 -2.140625q-0.609375 -0.8125 -1.734375 -0.8125q-1.140625 0 -1.796875 0.828125q-0.640625 0.8125 -0.640625 2.171875zm13.875 -7.15625q1.484375 0 2.4375 0.796875q0.953125 0.78125 0.953125 2.1875q0 1.125 -0.5 1.875q-0.484375 0.734375 -1.484375 1.015625l0 0.03125q0.875 0.171875 1.28125 0.8125q0.40625 0.640625 0.46875 2.1875q0.046875 1.0 0.1875 1.578125q0.15625 0.5625 0.453125 0.9375l-1.703125 0q-0.140625 -0.1875 -0.1875 -0.375q-0.03125 -0.1875 -0.078125 -0.5l-0.0625 -1.265625q-0.015625 -0.875 -0.375 -1.78125q-0.359375 -0.921875 -1.5625 -0.96875l-3.765625 0l0 4.890625l-1.515625 0l0 -11.421875l5.453125 0zm-0.6875 5.265625q1.265625 0 1.90625 -0.5q0.65625 -0.5 0.65625 -1.546875q0 -0.921875 -0.515625 -1.421875q-0.515625 -0.515625 -1.453125 -0.515625l-3.84375 0l0 3.984375l3.25 0zm11.2734375 -5.265625q1.578125 0 2.5 0.859375q0.9375 0.84375 0.9375 2.515625q0 1.671875 -0.9375 2.53125q-0.921875 0.84375 -2.390625 0.84375l-3.671875 0l0 4.671875l-1.515625 0l0 -11.421875l5.078125 0zm-0.421875 5.46875q1.09375 0 1.71875 -0.515625q0.625 -0.515625 0.625 -1.578125q0 -1.0625 -0.625 -1.578125q-0.609375 -0.515625 -1.8125 -0.515625l-3.046875 0l0 4.1875l3.140625 0zm10.5546875 -5.75q1.90625 0 3.171875 0.984375q1.28125 0.984375 1.53125 2.734375l-1.515625 0q-0.25 -1.171875 -1.09375 -1.796875q-0.84375 -0.640625 -2.109375 -0.640625q-1.8125 0 -2.84375 1.28125q-1.015625 1.28125 -1.015625 3.34375q0 2.1875 1.0 3.484375q1.015625 1.296875 2.875 1.296875q1.40625 0 2.296875 -0.875q0.890625 -0.890625 1.0 -2.421875l1.53125 0q-0.25 2.21875 -1.546875 3.40625q-1.296875 1.1875 -3.40625 1.1875q-2.453125 0 -3.875 -1.625q-1.40625 -1.640625 -1.40625 -4.34375q0 -2.65625 1.453125 -4.328125q1.46875 -1.6875 3.953125 -1.6875zm16.046875 0q2.015625 0 3.3125 0.96875q1.296875 0.96875 1.59375 2.828125l-1.515625 0q-0.234375 -1.21875 -1.125 -1.859375q-0.875 -0.65625 -2.28125 -0.65625q-1.828125 0 -2.875 1.359375q-1.03125 1.34375 -1.03125 3.484375q0 1.96875 1.078125 3.265625q1.078125 1.296875 2.828125 1.296875q1.640625 0 2.65625 -0.984375q1.015625 -0.984375 1.015625 -2.5625l0 -0.171875l-3.65625 0l0 -1.28125l5.015625 0l0 6.015625l-0.953125 0l-0.40625 -1.421875q-0.625 0.8125 -1.59375 1.265625q-0.953125 0.4375 -2.078125 0.4375q-2.328125 0 -3.890625 -1.671875q-1.546875 -1.6875 -1.546875 -4.109375q0 -2.703125 1.46875 -4.453125q1.46875 -1.75 3.984375 -1.75zm10.59375 3.234375q1.875 0 2.9375 1.21875q1.078125 1.203125 1.078125 3.125q0 1.921875 -1.09375 3.125q-1.09375 1.203125 -2.921875 1.203125q-1.796875 0 -2.90625 -1.171875q-1.109375 -1.1875 -1.109375 -3.15625q0 -1.96875 1.078125 -3.15625q1.09375 -1.1875 2.9375 -1.1875zm-2.578125 4.34375q0 1.421875 0.71875 2.265625q0.734375 0.84375 1.859375 0.84375q1.125 0 1.84375 -0.84375q0.734375 -0.859375 0.734375 -2.265625q0 -1.421875 -0.734375 -2.28125q-0.71875 -0.859375 -1.859375 -0.859375q-1.09375 0 -1.828125 0.84375q-0.734375 0.84375 -0.734375 2.296875zm17.710938 -7.578125q1.90625 0 3.171875 0.984375q1.28125 0.984375 1.53125 2.734375l-1.515625 0q-0.25 -1.171875 -1.09375 -1.796875q-0.84375 -0.640625 -2.109375 -0.640625q-1.8125 0 -2.84375 1.28125q-1.015625 1.28125 -1.015625 3.34375q0 2.1875 1.0 3.484375q1.015625 1.296875 2.875 1.296875q1.40625 0 2.296875 -0.875q0.890625 -0.890625 1.0 -2.421875l1.53125 0q-0.25 2.21875 -1.546875 3.40625q-1.296875 1.1875 -3.40625 1.1875q-2.453125 0 -3.875 -1.625q-1.40625 -1.640625 -1.40625 -4.34375q0 -2.65625 1.453125 -4.328125q1.46875 -1.6875 3.953125 -1.6875zm10.0546875 3.234375q1.875 0 2.9375 1.21875q1.078125 1.203125 1.078125 3.125q0 1.921875 -1.09375 3.125q-1.09375 1.203125 -2.921875 1.203125q-1.796875 0 -2.90625 -1.171875q-1.109375 -1.1875 -1.109375 -3.15625q0 -1.96875 1.078125 -3.15625q1.09375 -1.1875 2.9375 -1.1875zm-2.578125 4.34375q0 1.421875 0.71875 2.265625q0.734375 0.84375 1.859375 0.84375q1.125 0 1.84375 -0.84375q0.734375 -0.859375 0.734375 -2.265625q0 -1.421875 -0.734375 -2.28125q-0.71875 -0.859375 -1.859375 -0.859375q-1.09375 0 -1.828125 0.84375q-0.734375 0.84375 -0.734375 2.296875zm12.3125 -4.34375q0.046875 0 0.078125 0q0.046875 0 0.109375 0l0 1.4375q-1.53125 0 -2.265625 0.8125q-0.71875 0.8125 -0.71875 2.515625l0 3.703125l-1.359375 0l0 -8.28125l1.28125 0l0 1.75l0.03125 0q0.46875 -0.984375 1.171875 -1.453125q0.703125 -0.484375 1.671875 -0.484375zm4.65625 0q1.78125 0 2.765625 1.28125q0.984375 1.28125 0.984375 3.296875l0 0.15625l-6.203125 0l0 0.109375q0 1.171875 0.6875 1.890625q0.6875 0.71875 1.890625 0.71875q0.90625 0 1.4375 -0.421875q0.546875 -0.421875 0.703125 -1.1875l1.34375 0q-0.265625 1.375 -1.203125 2.109375q-0.921875 0.71875 -2.328125 0.71875q-1.296875 0 -2.203125 -0.59375q-0.90625 -0.59375 -1.34375 -1.640625q-0.421875 -1.0625 -0.421875 -2.15625q0 -1.828125 1.09375 -3.046875q1.109375 -1.234375 2.796875 -1.234375zm-2.453125 3.53125l4.75 0q-0.0625 -1.0 -0.734375 -1.65625q-0.65625 -0.671875 -1.65625 -0.671875q-0.9375 0 -1.609375 0.640625q-0.65625 0.625 -0.75 1.6875zm16.367188 -3.15625l0 3.5l3.484375 0l0 1.078125l-3.484375 0l0 3.515625l-1.078125 0l0 -3.515625l-3.5 0l0 -1.078125l3.5 0l0 -3.5l1.078125 0zm11.53125 -3.328125l0 11.421875l-1.515625 0l0 -11.421875l1.515625 0zm6.34375 2.953125q1.5 0 2.171875 0.765625q0.671875 0.765625 0.671875 2.1875l0 5.515625l-1.359375 0l0 -5.65625q0 -0.703125 -0.453125 -1.15625q-0.4375 -0.453125 -1.234375 -0.453125q-1.15625 0 -1.796875 0.703125q-0.640625 0.703125 -0.640625 1.828125l0 4.734375l-1.359375 0l0 -8.28125l1.28125 0l0 1.3125l0.03125 0q0.453125 -0.765625 1.109375 -1.125q0.65625 -0.375 1.578125 -0.375zm6.7890625 -2.28125l0 2.46875l1.640625 0l0 1.203125l-1.640625 0l0 5.1875q0 0.609375 0.40625 0.65625q0.40625 0.03125 0.859375 0.03125l0.375 0l0 1.203125l-1.125 0q-1.109375 0 -1.5 -0.390625q-0.375 -0.40625 -0.375 -1.34375l0 -5.34375l-1.421875 0l0 -1.203125l1.421875 0l0 -2.46875l1.359375 0zm6.5859375 2.28125q1.78125 0 2.765625 1.28125q0.984375 1.28125 0.984375 3.296875l0 0.15625l-6.203125 0l0 0.109375q0 1.171875 0.6875 1.890625q0.6875 0.71875 1.890625 0.71875q0.90625 0 1.4375 -0.421875q0.546875 -0.421875 0.703125 -1.1875l1.34375 0q-0.265625 1.375 -1.203125 2.109375q-0.921875 0.71875 -2.328125 0.71875q-1.296875 0 -2.203125 -0.59375q-0.90625 -0.59375 -1.34375 -1.640625q-0.421875 -1.0625 -0.421875 -2.15625q0 -1.828125 1.09375 -3.046875q1.109375 -1.234375 2.796875 -1.234375zm-2.453125 3.53125l4.75 0q-0.0625 -1.0 -0.734375 -1.65625q-0.65625 -0.671875 -1.65625 -0.671875q-0.9375 0 -1.609375 0.640625q-0.65625 0.625 -0.75 1.6875zm11.71875 -3.53125q0.046875 0 0.078125 0q0.046875 0 0.109375 0l0 1.4375q-1.53125 0 -2.265625 0.8125q-0.71875 0.8125 -0.71875 2.515625l0 3.703125l-1.359375 0l0 -8.28125l1.28125 0l0 1.75l0.03125 0q0.46875 -0.984375 1.171875 -1.453125q0.703125 -0.484375 1.671875 -0.484375zm4.671875 0q1.515625 0 2.453125 0.71875q0.953125 0.71875 1.109375 2.125l-1.40625 0q-0.15625 -0.796875 -0.703125 -1.21875q-0.53125 -0.421875 -1.34375 -0.421875q-1.265625 0 -1.921875 0.84375q-0.65625 0.84375 -0.65625 2.390625q0 1.375 0.640625 2.203125q0.65625 0.8125 1.78125 0.8125q0.984375 0 1.5625 -0.53125q0.578125 -0.53125 0.703125 -1.484375l1.390625 0q-0.21875 1.546875 -1.15625 2.390625q-0.9375 0.84375 -2.484375 0.84375q-1.8125 0 -2.84375 -1.140625q-1.03125 -1.140625 -1.03125 -3.09375q0 -2.03125 1.046875 -3.234375q1.046875 -1.203125 2.859375 -1.203125zm8.578125 0q1.78125 0 2.765625 1.28125q0.984375 1.28125 0.984375 3.296875l0 0.15625l-6.203125 0l0 0.109375q0 1.171875 0.6875 1.890625q0.6875 0.71875 1.890625 0.71875q0.90625 0 1.4375 -0.421875q0.546875 -0.421875 0.703125 -1.1875l1.34375 0q-0.265625 1.375 -1.203125 2.109375q-0.921875 0.71875 -2.328125 0.71875q-1.296875 0 -2.203125 -0.59375q-0.90625 -0.59375 -1.34375 -1.640625q-0.421875 -1.0625 -0.421875 -2.15625q0 -1.828125 1.09375 -3.046875q1.109375 -1.234375 2.796875 -1.234375zm-2.453125 3.53125l4.75 0q-0.0625 -1.0 -0.734375 -1.65625q-0.65625 -0.671875 -1.65625 -0.671875q-0.9375 0 -1.609375 0.640625q-0.65625 0.625 -0.75 1.6875zm11.6875 -3.53125q1.765625 0 2.78125 1.21875q1.03125 1.21875 1.03125 3.140625q0 1.921875 -1.015625 3.125q-1.015625 1.1875 -2.765625 1.1875q-0.765625 0 -1.515625 -0.328125q-0.734375 -0.328125 -1.15625 -0.984375l-0.03125 0l0 4.28125l-1.359375 0l0 -11.453125l1.359375 0l0 1.125l0.03125 0q0.3125 -0.640625 1.0 -0.96875q0.703125 -0.34375 1.640625 -0.34375zm-2.71875 4.328125q0 1.4375 0.6875 2.28125q0.703125 0.84375 1.921875 0.84375q1.171875 0 1.8125 -0.84375q0.65625 -0.84375 0.65625 -2.34375q0 -1.34375 -0.6875 -2.203125q-0.671875 -0.859375 -1.875 -0.859375q-1.203125 0 -1.859375 0.875q-0.65625 0.875 -0.65625 2.25zm10.015625 -6.609375l0 2.46875l1.640625 0l0 1.203125l-1.640625 0l0 5.1875q0 0.609375 0.40625 0.65625q0.40625 0.03125 0.859375 0.03125l0.375 0l0 1.203125l-1.125 0q-1.109375 0 -1.5 -0.390625q-0.375 -0.40625 -0.375 -1.34375l0 -5.34375l-1.421875 0l0 -1.203125l1.421875 0l0 -2.46875l1.359375 0zm6.7109375 2.28125q1.875 0 2.9375 1.21875q1.078125 1.203125 1.078125 3.125q0 1.921875 -1.09375 3.125q-1.09375 1.203125 -2.921875 1.203125q-1.796875 0 -2.90625 -1.171875q-1.109375 -1.1875 -1.109375 -3.15625q0 -1.96875 1.078125 -3.15625q1.09375 -1.1875 2.9375 -1.1875zm-2.578125 4.34375q0 1.421875 0.71875 2.265625q0.734375 0.84375 1.859375 0.84375q1.125 0 1.84375 -0.84375q0.734375 -0.859375 0.734375 -2.265625q0 -1.421875 -0.734375 -2.28125q-0.71875 -0.859375 -1.859375 -0.859375q-1.09375 0 -1.828125 0.84375q-0.734375 0.84375 -0.734375 2.296875zm12.3125 -4.34375q0.046875 0 0.078125 0q0.046875 0 0.109375 0l0 1.4375q-1.53125 0 -2.265625 0.8125q-0.71875 0.8125 -0.71875 2.515625l0 3.703125l-1.359375 0l0 -8.28125l1.28125 0l0 1.75l0.03125 0q0.46875 -0.984375 1.171875 -1.453125q0.703125 -0.484375 1.671875 -0.484375zm3.96875 0q1.671875 0 2.484375 0.65625q0.8125 0.640625 0.890625 1.9375l-1.359375 0l0 -0.015625q-0.0625 -0.65625 -0.578125 -1.015625q-0.515625 -0.359375 -1.34375 -0.359375q-0.8125 0 -1.296875 0.28125q-0.46875 0.265625 -0.46875 0.765625q0 0.453125 0.421875 0.75q0.421875 0.28125 1.265625 0.46875l1.28125 0.28125q1.203125 0.265625 1.828125 0.828125q0.625 0.546875 0.625 1.46875q0 1.21875 -0.953125 1.921875q-0.9375 0.703125 -2.578125 0.703125q-1.578125 0 -2.515625 -0.71875q-0.921875 -0.71875 -0.984375 -2.09375l1.359375 0q0.03125 0.765625 0.609375 1.1875q0.59375 0.40625 1.609375 0.40625q0.984375 0 1.484375 -0.3125q0.515625 -0.3125 0.515625 -0.921875q0 -0.546875 -0.5 -0.875q-0.5 -0.328125 -2.0625 -0.640625q-1.5625 -0.296875 -2.203125 -0.859375q-0.640625 -0.5625 -0.640625 -1.484375q0 -1.09375 0.875 -1.71875q0.890625 -0.640625 2.234375 -0.640625z" fill-rule="nonzero"/><defs><linearGradient id="p.3" gradientUnits="userSpaceOnUse" gradientTransform="matrix(9.798047915111624 0.0 0.0 9.798047915111624 0.0 0.0)" spreadMethod="pad" x1="6.414155533148711E-10" y1="14.695737719424516" x2="-3.546819293858495E-5" y2="24.49378563447194"><stop offset="0.0" stop-color="#dcecd5"/><stop offset="1.0" stop-color="#93bc81"/></linearGradient></defs><path fill="url(#p.3)" d="m0 143.99127l480.0 0l0 96.0l-480.0 0z" fill-rule="evenodd"/><path stroke="#000000" stroke-width="1.0" stroke-linejoin="round" stroke-linecap="butt" d="m0 143.99127l480.0 0l0 96.0l-480.0 0z" fill-rule="evenodd"/><path fill="#000000" d="m215.5039 167.4294l0 4.90625l6.015625 0l0 -4.90625l1.53125 0l0 11.421875l-1.53125 0l0 -5.234375l-6.015625 0l0 5.234375l-1.515625 0l0 -11.421875l1.515625 0zm17.960938 0l0 1.28125l-3.8125 0l0 10.140625l-1.515625 0l0 -10.140625l-3.8125 0l0 -1.28125l9.140625 0zm9.1875 0l0 1.28125l-3.8125 0l0 10.140625l-1.515625 0l0 -10.140625l-3.8125 0l0 -1.28125l9.140625 0zm6.34375 0q1.578125 0 2.5 0.859375q0.9375 0.84375 0.9375 2.515625q0 1.671875 -0.9375 2.53125q-0.921875 0.84375 -2.390625 0.84375l-3.671875 0l0 4.671875l-1.515625 0l0 -11.421875l5.078125 0zm-0.421875 5.46875q1.09375 0 1.71875 -0.515625q0.625 -0.515625 0.625 -1.578125q0 -1.0625 -0.625 -1.578125q-0.609375 -0.515625 -1.8125 -0.515625l-3.046875 0l0 4.1875l3.140625 0zm10.0859375 -5.75l-4.734375 11.984375l-1.1875 0l4.75 -11.984375l1.171875 0zm4.0625 0.359375q1.5625 0 2.546875 0.890625q1.0 0.875 1.0 2.375q0 1.171875 -0.65625 2.125q-0.65625 0.9375 -2.78125 2.15625q-1.296875 0.75 -1.84375 1.34375q-0.53125 0.59375 -0.65625 1.25l5.828125 0l0 1.203125l-7.40625 0q0.109375 -1.421875 0.71875 -2.484375q0.625 -1.0625 2.296875 -2.0625q1.984375 -1.203125 2.515625 -1.890625q0.546875 -0.6875 0.546875 -1.65625q0 -0.890625 -0.625 -1.46875q-0.625 -0.578125 -1.5625 -0.578125q-1.03125 0 -1.625 0.765625q-0.59375 0.75 -0.59375 1.9375l0 0.109375l-1.359375 0l0 -0.28125q0 -1.6875 1.0 -2.703125q1.0 -1.03125 2.65625 -1.03125z" fill-rule="nonzero"/><defs><linearGradient id="p.4" gradientUnits="userSpaceOnUse" gradientTransform="matrix(6.928278701670036 0.0 0.0 6.928278701670036 0.0 0.0)" spreadMethod="pad" x1="11.396492609150378" y1="27.71068197785226" x2="11.396468192074453" y2="34.63896067947927"><stop offset="0.0" stop-color="#dcecd5"/><stop offset="1.0" stop-color="#93bc81"/></linearGradient></defs><path fill="url(#p.4)" d="m78.958084 191.98837l288.0 0l0 48.0l-288.0 0z" fill-rule="evenodd"/><path stroke="#000000" stroke-width="1.0" stroke-linejoin="round" stroke-linecap="butt" d="m78.958084 191.98837l288.0 0l0 48.0l-288.0 0z" fill-rule="evenodd"/><path fill="#000000" d="m105.23543 210.14525q1.90625 0 3.015625 0.921875q1.125 0.921875 1.1875 2.703125l-1.4375 0q-0.125 -1.171875 -0.84375 -1.75q-0.703125 -0.59375 -1.984375 -0.59375q-1.21875 0 -1.890625 0.515625q-0.671875 0.5 -0.671875 1.4375q0 0.671875 0.5625 1.109375q0.578125 0.421875 3.109375 0.921875q1.828125 0.375 2.734375 1.15625q0.90625 0.765625 0.90625 2.140625q0 1.59375 -1.3125 2.515625q-1.296875 0.90625 -3.15625 0.90625q-2.078125 0 -3.390625 -1.046875q-1.3125 -1.046875 -1.328125 -3.0l1.4375 0q0.015625 1.3125 0.9375 2.03125q0.921875 0.71875 2.390625 0.71875q1.390625 0 2.140625 -0.53125q0.765625 -0.53125 0.765625 -1.546875q0 -0.8125 -0.703125 -1.296875q-0.6875 -0.5 -2.515625 -0.84375q-2.4375 -0.46875 -3.265625 -1.1875q-0.828125 -0.734375 -0.828125 -1.9375q0 -1.53125 1.15625 -2.4375q1.171875 -0.90625 2.984375 -0.90625zm9.7421875 3.234375q1.78125 0 2.765625 1.28125q0.984375 1.28125 0.984375 3.296875l0 0.15625l-6.203125 0l0 0.109375q0 1.171875 0.6875 1.890625q0.6875 0.71875 1.890625 0.71875q0.90625 0 1.4375 -0.421875q0.546875 -0.421875 0.703125 -1.1875l1.34375 0q-0.265625 1.375 -1.203125 2.109375q-0.921875 0.71875 -2.328125 0.71875q-1.296875 0 -2.203125 -0.59375q-0.90625 -0.59375 -1.34375 -1.640625q-0.421875 -1.0625 -0.421875 -2.15625q0 -1.828125 1.09375 -3.046875q1.109375 -1.234375 2.796875 -1.234375zm-2.453125 3.53125l4.75 0q-0.0625 -1.0 -0.734375 -1.65625q-0.65625 -0.671875 -1.65625 -0.671875q-0.9375 0 -1.609375 0.640625q-0.65625 0.625 -0.75 1.6875zm11.0625 -3.53125q1.515625 0 2.453125 0.71875q0.953125 0.71875 1.109375 2.125l-1.40625 0q-0.15625 -0.796875 -0.703125 -1.21875q-0.53125 -0.421875 -1.34375 -0.421875q-1.265625 0 -1.921875 0.84375q-0.65625 0.84375 -0.65625 2.390625q0 1.375 0.640625 2.203125q0.65625 0.8125 1.78125 0.8125q0.984375 0 1.5625 -0.53125q0.578125 -0.53125 0.703125 -1.484375l1.390625 0q-0.21875 1.546875 -1.15625 2.390625q-0.9375 0.84375 -2.484375 0.84375q-1.8125 0 -2.84375 -1.140625q-1.03125 -1.140625 -1.03125 -3.09375q0 -2.03125 1.046875 -3.234375q1.046875 -1.203125 2.859375 -1.203125zm6.5 0.1875l0 5.640625q0 0.703125 0.4375 1.171875q0.453125 0.453125 1.25 0.453125q1.171875 0 1.796875 -0.703125q0.640625 -0.71875 0.640625 -1.828125l0 -4.734375l1.359375 0l0 8.28125l-1.28125 0l0 -1.3125l-0.03125 0q-0.453125 0.78125 -1.140625 1.15625q-0.671875 0.359375 -1.546875 0.359375q-1.453125 0 -2.15625 -0.75q-0.6875 -0.75 -0.6875 -2.21875l0 -5.515625l1.359375 0zm11.6484375 -0.1875q0.046875 0 0.078125 0q0.046875 0 0.109375 0l0 1.4375q-1.53125 0 -2.265625 0.8125q-0.71875 0.8125 -0.71875 2.515625l0 3.703125l-1.359375 0l0 -8.28125l1.28125 0l0 1.75l0.03125 0q0.46875 -0.984375 1.171875 -1.453125q0.703125 -0.484375 1.671875 -0.484375zm2.65625 -2.953125l0 1.65625l-1.359375 0l0 -1.65625l1.359375 0zm0 3.140625l0 8.28125l-1.359375 0l0 -8.28125l1.359375 0zm4.0078125 -2.46875l0 2.46875l1.640625 0l0 1.203125l-1.640625 0l0 5.1875q0 0.609375 0.40625 0.65625q0.40625 0.03125 0.859375 0.03125l0.375 0l0 1.203125l-1.125 0q-1.109375 0 -1.5 -0.390625q-0.375 -0.40625 -0.375 -1.34375l0 -5.34375l-1.421875 0l0 -1.203125l1.421875 0l0 -2.46875l1.359375 0zm3.7890625 2.46875l2.40625 6.765625l0.03125 0l2.328125 -6.765625l1.4375 0l-3.515625 9.171875q-0.546875 1.421875 -1.0625 1.921875q-0.515625 0.5 -1.421875 0.5q-0.25 0 -0.484375 -0.03125q-0.234375 -0.03125 -0.453125 -0.109375l0 -1.25q0.1875 0.0625 0.390625 0.125q0.203125 0.0625 0.40625 0.0625q0.828125 0 1.15625 -0.828125q0.328125 -0.828125 0.515625 -1.328125l-3.28125 -8.234375l1.546875 0zm15.0859375 -3.421875q-1.078125 1.6875 -1.59375 3.484375q-0.515625 1.78125 -0.515625 3.890625q0 2.140625 0.5 3.953125q0.515625 1.8125 1.609375 3.546875l-1.046875 0q-1.375 -2.140625 -1.953125 -3.90625q-0.5625 -1.78125 -0.5625 -3.59375q0 -1.875 0.640625 -3.796875q0.640625 -1.921875 1.875 -3.578125l1.046875 0zm9.0 0.28125l0 1.28125l-3.8125 0l0 10.140625l-1.515625 0l0 -10.140625l-3.8125 0l0 -1.28125l9.140625 0zm2.78125 0l0 10.140625l6.046875 0l0 1.28125l-7.5625 0l0 -11.421875l1.515625 0zm11.2265625 -0.28125q1.90625 0 3.015625 0.921875q1.125 0.921875 1.1875 2.703125l-1.4375 0q-0.125 -1.171875 -0.84375 -1.75q-0.703125 -0.59375 -1.984375 -0.59375q-1.21875 0 -1.890625 0.515625q-0.671875 0.5 -0.671875 1.4375q0 0.671875 0.5625 1.109375q0.578125 0.421875 3.109375 0.921875q1.828125 0.375 2.734375 1.15625q0.90625 0.765625 0.90625 2.140625q0 1.59375 -1.3125 2.515625q-1.296875 0.90625 -3.15625 0.90625q-2.078125 0 -3.390625 -1.046875q-1.3125 -1.046875 -1.328125 -3.0l1.4375 0q0.015625 1.3125 0.9375 2.03125q0.921875 0.71875 2.390625 0.71875q1.390625 0 2.140625 -0.53125q0.765625 -0.53125 0.765625 -1.546875q0 -0.8125 -0.703125 -1.296875q-0.6875 -0.5 -2.515625 -0.84375q-2.4375 -0.46875 -3.265625 -1.1875q-0.828125 -0.734375 -0.828125 -1.9375q0 -1.53125 1.15625 -2.4375q1.171875 -0.90625 2.984375 -0.90625zm10.8984375 0l-4.734375 11.984375l-1.1875 0l4.75 -11.984375l1.171875 0zm4.796875 0q1.90625 0 3.015625 0.921875q1.125 0.921875 1.1875 2.703125l-1.4375 0q-0.125 -1.171875 -0.84375 -1.75q-0.703125 -0.59375 -1.984375 -0.59375q-1.21875 0 -1.890625 0.515625q-0.671875 0.5 -0.671875 1.4375q0 0.671875 0.5625 1.109375q0.578125 0.421875 3.109375 0.921875q1.828125 0.375 2.734375 1.15625q0.90625 0.765625 0.90625 2.140625q0 1.59375 -1.3125 2.515625q-1.296875 0.90625 -3.15625 0.90625q-2.078125 0 -3.390625 -1.046875q-1.3125 -1.046875 -1.328125 -3.0l1.4375 0q0.015625 1.3125 0.9375 2.03125q0.921875 0.71875 2.390625 0.71875q1.390625 0 2.140625 -0.53125q0.765625 -0.53125 0.765625 -1.546875q0 -0.8125 -0.703125 -1.296875q-0.6875 -0.5 -2.515625 -0.84375q-2.4375 -0.46875 -3.265625 -1.1875q-0.828125 -0.734375 -0.828125 -1.9375q0 -1.53125 1.15625 -2.4375q1.171875 -0.90625 2.984375 -0.90625zm10.3671875 0q1.90625 0 3.015625 0.921875q1.125 0.921875 1.1875 2.703125l-1.4375 0q-0.125 -1.171875 -0.84375 -1.75q-0.703125 -0.59375 -1.984375 -0.59375q-1.21875 0 -1.890625 0.515625q-0.671875 0.5 -0.671875 1.4375q0 0.671875 0.5625 1.109375q0.578125 0.421875 3.109375 0.921875q1.828125 0.375 2.734375 1.15625q0.90625 0.765625 0.90625 2.140625q0 1.59375 -1.3125 2.515625q-1.296875 0.90625 -3.15625 0.90625q-2.078125 0 -3.390625 -1.046875q-1.3125 -1.046875 -1.328125 -3.0l1.4375 0q0.015625 1.3125 0.9375 2.03125q0.921875 0.71875 2.390625 0.71875q1.390625 0 2.140625 -0.53125q0.765625 -0.53125 0.765625 -1.546875q0 -0.8125 -0.703125 -1.296875q-0.6875 -0.5 -2.515625 -0.84375q-2.4375 -0.46875 -3.265625 -1.1875q-0.828125 -0.734375 -0.828125 -1.9375q0 -1.53125 1.15625 -2.4375q1.171875 -0.90625 2.984375 -0.90625zm8.0390625 0.28125l0 10.140625l6.046875 0l0 1.28125l-7.5625 0l0 -11.421875l1.515625 0zm15.171875 2.953125q1.875 0 2.9375 1.21875q1.078125 1.203125 1.078125 3.125q0 1.921875 -1.09375 3.125q-1.09375 1.203125 -2.921875 1.203125q-1.796875 0 -2.90625 -1.171875q-1.109375 -1.1875 -1.109375 -3.15625q0 -1.96875 1.078125 -3.15625q1.09375 -1.1875 2.9375 -1.1875zm-2.578125 4.34375q0 1.421875 0.71875 2.265625q0.734375 0.84375 1.859375 0.84375q1.125 0 1.84375 -0.84375q0.734375 -0.859375 0.734375 -2.265625q0 -1.421875 -0.734375 -2.28125q-0.71875 -0.859375 -1.859375 -0.859375q-1.09375 0 -1.828125 0.84375q-0.734375 0.84375 -0.734375 2.296875zm12.3125 -4.34375q0.046875 0 0.078125 0q0.046875 0 0.109375 0l0 1.4375q-1.53125 0 -2.265625 0.8125q-0.71875 0.8125 -0.71875 2.515625l0 3.703125l-1.359375 0l0 -8.28125l1.28125 0l0 1.75l0.03125 0q0.46875 -0.984375 1.171875 -1.453125q0.703125 -0.484375 1.671875 -0.484375zm10.664047 -2.953125l4.46875 11.421875l-1.6875 0l-1.234375 -3.4375l-4.84375 0l-1.2812347 3.4375l-1.5625 0l4.4687347 -11.421875l1.671875 0zm-0.875 1.375l-1.9375 5.328125l3.875 0l-1.90625 -5.328125l-0.03125 0zm7.9765625 -1.375l0 10.140625l6.046875 0l0 1.28125l-7.5625 0l0 -11.421875l1.515625 0zm15.3046875 0l0 1.28125l-3.8125 0l0 10.140625l-1.515625 0l0 -10.140625l-3.8125 0l0 -1.28125l9.140625 0zm5.109375 -0.28125q1.90625 0 3.015625 0.921875q1.125 0.921875 1.1875 2.703125l-1.4375 0q-0.125 -1.171875 -0.84375 -1.75q-0.703125 -0.59375 -1.984375 -0.59375q-1.21875 0 -1.890625 0.515625q-0.671875 0.5 -0.671875 1.4375q0 0.671875 0.5625 1.109375q0.578125 0.421875 3.109375 0.921875q1.828125 0.375 2.734375 1.15625q0.90625 0.765625 0.90625 2.140625q0 1.59375 -1.3125 2.515625q-1.296875 0.90625 -3.15625 0.90625q-2.078125 0 -3.390625 -1.046875q-1.3125 -1.046875 -1.328125 -3.0l1.4375 0q0.015625 1.3125 0.9375 2.03125q0.921875 0.71875 2.390625 0.71875q1.390625 0 2.140625 -0.53125q0.765625 -0.53125 0.765625 -1.546875q0 -0.8125 -0.703125 -1.296875q-0.6875 -0.5 -2.515625 -0.84375q-2.4375 -0.46875 -3.265625 -1.1875q-0.828125 -0.734375 -0.828125 -1.9375q0 -1.53125 1.15625 -2.4375q1.171875 -0.90625 2.984375 -0.90625zm8.3828125 9.921875l0 1.703125q0 0.890625 -0.4375 1.515625q-0.4375 0.640625 -1.328125 0.921875l0 -0.796875q0.421875 -0.15625 0.671875 -0.546875q0.265625 -0.390625 0.265625 -0.921875l0 -0.09375l-0.953125 0l0 -1.78125l1.78125 0zm10.25 -6.6875q1.78125 0 2.765625 1.28125q0.984375 1.28125 0.984375 3.296875l0 0.15625l-6.203125 0l0 0.109375q0 1.171875 0.6875 1.890625q0.6875 0.71875 1.890625 0.71875q0.90625 0 1.4375 -0.421875q0.546875 -0.421875 0.703125 -1.1875l1.34375 0q-0.265625 1.375 -1.203125 2.109375q-0.921875 0.71875 -2.328125 0.71875q-1.296875 0 -2.203125 -0.59375q-0.90625 -0.59375 -1.34375 -1.640625q-0.421875 -1.0625 -0.421875 -2.15625q0 -1.828125 1.09375 -3.046875q1.109375 -1.234375 2.796875 -1.234375zm-2.453125 3.53125l4.75 0q-0.0625 -1.0 -0.734375 -1.65625q-0.65625 -0.671875 -1.65625 -0.671875q-0.9375 0 -1.609375 0.640625q-0.65625 0.625 -0.75 1.6875zm9.5 -5.8125l0 2.46875l1.640625 0l0 1.203125l-1.640625 0l0 5.1875q0 0.609375 0.40625 0.65625q0.40625 0.03125 0.859375 0.03125l0.375 0l0 1.203125l-1.125 0q-1.109375 0 -1.5 -0.390625q-0.375 -0.40625 -0.375 -1.34375l0 -5.34375l-1.421875 0l0 -1.203125l1.421875 0l0 -2.46875l1.359375 0zm6.6015625 2.28125q1.515625 0 2.453125 0.71875q0.953125 0.71875 1.109375 2.125l-1.40625 0q-0.15625 -0.796875 -0.703125 -1.21875q-0.53125 -0.421875 -1.34375 -0.421875q-1.265625 0 -1.921875 0.84375q-0.65625 0.84375 -0.65625 2.390625q0 1.375 0.640625 2.203125q0.65625 0.8125 1.78125 0.8125q0.984375 0 1.5625 -0.53125q0.578125 -0.53125 0.703125 -1.484375l1.390625 0q-0.21875 1.546875 -1.15625 2.390625q-0.9375 0.84375 -2.484375 0.84375q-1.8125 0 -2.84375 -1.140625q-1.03125 -1.140625 -1.03125 -3.09375q0 -2.03125 1.046875 -3.234375q1.046875 -1.203125 2.859375 -1.203125zm5.0 -3.234375q1.265625 1.96875 1.875 3.78125q0.625 1.796875 0.625 3.703125q0 1.953125 -0.65625 3.859375q-0.640625 1.890625 -1.84375 3.53125l-1.046875 0q1.078125 -1.6875 1.59375 -3.484375q0.515625 -1.796875 0.515625 -3.90625q0 -2.125 -0.515625 -3.9375q-0.515625 -1.8125 -1.59375 -3.546875l1.046875 0z" fill-rule="nonzero"/><path fill="#333333" d="m342.1026 216.489q0 0.390625 -0.03125 1.734375q-0.015625 1.328125 -0.09375 1.625q-0.0625 0.28125 -0.25 0.578125q-0.1875 0.28125 -0.46875 0.484375q-0.625 0.484375 -1.34375 0.78125q-0.703125 0.28125 -1.421875 0.28125q-0.359375 0 -0.65625 -0.125q-0.296875 -0.109375 -0.546875 -0.390625q-0.25 -0.28125 -0.640625 -1.21875q-0.375 -0.953125 -0.515625 -1.46875q-0.0625 -0.15625 -0.0625 -0.296875q0 -0.4375 0.421875 -0.859375q-0.296875 -0.515625 -0.46875 -1.03125q-0.171875 -0.53125 -0.171875 -1.125q0 -0.953125 0.46875 -1.6875q0.484375 -0.75 1.359375 -1.171875q0.890625 -0.421875 1.625 -0.421875q0.578125 0 1.03125 0.3125q0.453125 0.296875 0.71875 0.921875q0.28125 0.609375 0.28125 1.203125q0 0.515625 -0.046875 1.046875q0.359375 0.0625 0.578125 0.296875q0.234375 0.234375 0.234375 0.53125zm-5.359375 1.546875q-0.203125 0.265625 -0.203125 0.4375q0 0.25 0.25 0.390625q0.25 0.140625 0.578125 0.140625q0.375 0 0.875 -0.171875q0.046875 0 0.46875 -0.1875q0.4375 -0.203125 0.9375 -0.46875q0.5 -0.265625 1.015625 -0.59375q0.53125 -0.34375 0.75 -0.578125q0.234375 -0.25 0.234375 -0.453125q0 -0.34375 -0.390625 -0.4375q-0.03125 0.390625 -0.09375 0.609375q-0.046875 0.203125 -0.359375 0.328125q-0.0625 0.015625 -0.171875 0.015625q-0.140625 0 -0.28125 -0.046875q-0.125 -0.0625 -0.171875 -0.171875q-0.03125 -0.109375 -0.03125 -0.40625l0.015625 -0.25q-0.9375 0.265625 -2.375 1.078125q0.1875 0.40625 0.3125 0.609375q0.0625 0.078125 0.0625 0.21875q0 0.234375 -0.234375 0.375q-0.21875 0.140625 -0.4375 0.140625q-0.171875 0 -0.34375 -0.109375q-0.171875 -0.125 -0.40625 -0.46875zm0.609375 -2.4375q0 0.546875 0.25 1.234375q1.46875 -0.828125 2.5625 -1.125q0 -1.078125 -0.25 -1.53125q-0.25 -0.46875 -0.71875 -0.46875q-0.390625 0 -0.875 0.265625q-0.484375 0.265625 -0.734375 0.671875q-0.234375 0.390625 -0.234375 0.953125zm3.0 4.3125q0.21875 -0.15625 0.34375 -0.34375q0.125 -0.203125 0.125 -0.375q0 -0.1875 -0.125 -0.28125q-0.125 -0.109375 -0.296875 -0.109375q-0.25 0 -0.515625 0.15625q-0.25 0.140625 -0.40625 0.375q-0.15625 0.21875 -0.15625 0.40625q0 0.1875 0.125 0.28125q0.125 0.09375 0.3125 0.09375q0.125 0 0.265625 -0.046875l-0.046875 0.65625l0.578125 -0.3125l-0.203125 -0.5z" fill-rule="nonzero"/><defs><linearGradient id="p.5" gradientUnits="userSpaceOnUse" gradientTransform="matrix(9.797994548840427 0.0 0.0 9.797994548840427 0.0 0.0)" spreadMethod="pad" x1="2.557474246866643E-10" y1="24.493253533003777" x2="-3.5468386121505585E-5" y2="34.291248081780004"><stop offset="0.0" stop-color="#dfe9fb"/><stop offset="1.0" stop-color="#6e9be7"/></linearGradient></defs><path fill="url(#p.5)" d="m0 239.98546l192.0 0l0 96.000015l-192.0 0z" fill-rule="evenodd"/><path stroke="#000000" stroke-width="1.0" stroke-linejoin="round" stroke-linecap="butt" d="m0 239.98546l192.0 0l0 96.000015l-192.0 0z" fill-rule="evenodd"/><path fill="#000000" d="m52.757812 272.92358l0 7.359375q0 1.390625 0.796875 2.21875q0.8125 0.828125 2.375 0.828125q1.484375 0 2.234375 -0.8125q0.75 -0.828125 0.75 -2.234375l0 -7.359375l1.515625 0l0 7.375q0 2.015625 -1.140625 3.171875q-1.125 1.15625 -3.359375 1.15625q-2.328125 0 -3.515625 -1.125q-1.171875 -1.140625 -1.171875 -3.203125l0 -7.375l1.515625 0zm13.8828125 2.953125q1.5 0 2.171875 0.765625q0.671875 0.765625 0.671875 2.1875l0 5.515625l-1.359375 0l0 -5.65625q0 -0.703125 -0.453125 -1.15625q-0.4375 -0.453125 -1.234375 -0.453125q-1.15625 0 -1.796875 0.703125q-0.640625 0.703125 -0.640625 1.828125l0 4.734375l-1.359375 0l0 -8.28125l1.28125 0l0 1.3125l0.03125 0q0.453125 -0.765625 1.109375 -1.125q0.65625 -0.375 1.578125 -0.375zm6.3359375 -2.953125l0 1.65625l-1.359375 0l0 -1.65625l1.359375 0zm0 3.140625l0 8.28125l-1.359375 0l0 -8.28125l1.359375 0zm3.1953125 0l1.984375 2.890625l0.015625 0l2.046875 -2.890625l1.640625 0l-2.84375 3.8125l3.1875 4.46875l-1.734375 0l-2.3125 -3.421875l-2.296875 3.421875l-1.65625 0l3.109375 -4.359375l-2.875 -3.921875l1.734375 0zm15.890625 -3.140625q2.59375 0 3.984375 1.375q1.40625 1.375 1.40625 4.0625q0 3.015625 -1.390625 4.5q-1.375 1.484375 -4.0 1.484375l-4.015625 0l0 -11.421875l4.015625 0zm0.09375 10.140625q1.703125 0 2.734375 -1.109375q1.046875 -1.125 1.046875 -3.390625q0 -2.265625 -0.953125 -3.3125q-0.9375 -1.046875 -2.78125 -1.046875l-2.640625 0l0 8.859375l2.59375 0zm10.5 -7.1875q1.875 0 2.9375 1.21875q1.078125 1.203125 1.078125 3.125q0 1.921875 -1.09375 3.125q-1.09375 1.203125 -2.921875 1.203125q-1.796875 0 -2.90625 -1.171875q-1.109375 -1.1875 -1.109375 -3.15625q0 -1.96875 1.078125 -3.15625q1.09375 -1.1875 2.9375 -1.1875zm-2.578125 4.34375q0 1.421875 0.71875 2.265625q0.734375 0.84375 1.859375 0.84375q1.125 0 1.84375 -0.84375q0.734375 -0.859375 0.734375 -2.265625q0 -1.421875 -0.734375 -2.28125q-0.71875 -0.859375 -1.859375 -0.859375q-1.09375 0 -1.828125 0.84375q-0.734375 0.84375 -0.734375 2.296875zm12.1875 -4.34375q0.90625 0 1.46875 0.375q0.578125 0.359375 0.796875 1.03125q0.421875 -0.65625 1.09375 -1.03125q0.6875 -0.375 1.515625 -0.375q1.390625 0 2.0625 0.640625q0.671875 0.625 0.671875 1.703125l0 6.125l-1.359375 0l0 -5.484375q0 -0.890625 -0.375 -1.328125q-0.375 -0.453125 -1.21875 -0.453125q-1.015625 0 -1.59375 0.59375q-0.5625 0.59375 -0.5625 1.46875l0 5.203125l-1.375 0l0 -5.484375q0 -0.890625 -0.375 -1.328125q-0.375 -0.453125 -1.171875 -0.453125q-0.640625 0 -1.140625 0.3125q-0.5 0.3125 -0.78125 0.859375q-0.28125 0.53125 -0.28125 0.90625l0 5.1875l-1.359375 0l0 -8.28125l1.28125 0l0 1.21875l0.03125 0q0.46875 -0.703125 1.125 -1.046875q0.671875 -0.359375 1.546875 -0.359375zm13.0390625 0q1.6875 0 2.390625 0.609375q0.71875 0.59375 0.71875 1.609375q0 4.296875 0 4.765625q0 0.46875 0.421875 0.46875q0.09375 0 0.203125 -0.015625q0.109375 -0.03125 0.21875 -0.0625l0 1.0625q-0.1875 0.109375 -0.4375 0.171875q-0.25 0.0625 -0.53125 0.0625q-0.5625 0 -0.859375 -0.3125q-0.296875 -0.328125 -0.296875 -0.984375q-0.546875 0.640625 -1.28125 0.96875q-0.734375 0.328125 -1.640625 0.328125q-1.28125 0 -2.015625 -0.609375q-0.71875 -0.609375 -0.71875 -1.71875q0 -1.125 0.703125 -1.765625q0.71875 -0.65625 3.359375 -0.984375q0.890625 -0.125 1.203125 -0.34375q0.3125 -0.234375 0.3125 -0.6875q0 -0.6875 -0.4375 -1.015625q-0.4375 -0.34375 -1.40625 -0.34375q-1.0 0 -1.515625 0.390625q-0.5 0.375 -0.53125 1.171875l-1.359375 0q0.0625 -1.375 0.96875 -2.0625q0.90625 -0.703125 2.53125 -0.703125zm-2.390625 6.234375q0 0.578125 0.421875 0.90625q0.421875 0.3125 1.1875 0.3125q1.140625 0 1.828125 -0.5625q0.6875 -0.578125 0.6875 -1.28125l0 -1.421875q-0.34375 0.25 -0.890625 0.34375q-0.546875 0.078125 -1.453125 0.203125q-0.90625 0.125 -1.34375 0.484375q-0.4375 0.359375 -0.4375 1.015625zm9.046875 -9.1875l0 1.65625l-1.359375 0l0 -1.65625l1.359375 0zm0 3.140625l0 8.28125l-1.359375 0l0 -8.28125l1.359375 0zm6.1171875 -0.1875q1.5 0 2.171875 0.765625q0.671875 0.765625 0.671875 2.1875l0 5.515625l-1.359375 0l0 -5.65625q0 -0.703125 -0.453125 -1.15625q-0.4375 -0.453125 -1.234375 -0.453125q-1.15625 0 -1.796875 0.703125q-0.640625 0.703125 -0.640625 1.828125l0 4.734375l-1.359375 0l0 -8.28125l1.28125 0l0 1.3125l0.03125 0q0.453125 -0.765625 1.109375 -1.125q0.65625 -0.375 1.578125 -0.375z" fill-rule="nonzero"/><path fill="#000000" d="m72.05078 291.64233q1.90625 0 3.015625 0.921875q1.125 0.921875 1.1875 2.703125l-1.4375 0q-0.125 -1.171875 -0.84375 -1.75q-0.703125 -0.59375 -1.984375 -0.59375q-1.21875 0 -1.890625 0.515625q-0.671875 0.5 -0.671875 1.4375q0 0.671875 0.5625 1.109375q0.578125 0.421875 3.109375 0.921875q1.828125 0.375 2.734375 1.15625q0.90625 0.765625 0.90625 2.140625q0 1.59375 -1.3125 2.515625q-1.296875 0.90625 -3.15625 0.90625q-2.078125 0 -3.390625 -1.046875q-1.3125 -1.046875 -1.328125 -3.0l1.4375 0q0.015625 1.3125 0.9375 2.03125q0.921875 0.71875 2.390625 0.71875q1.390625 0 2.140625 -0.53125q0.765625 -0.53125 0.765625 -1.546875q0 -0.8125 -0.703125 -1.296875q-0.6875 -0.5 -2.515625 -0.84375q-2.4375 -0.46875 -3.265625 -1.1875q-0.828125 -0.734375 -0.828125 -1.9375q0 -1.53125 1.15625 -2.4375q1.171875 -0.90625 2.984375 -0.90625zm9.8671875 3.234375q1.875 0 2.9375 1.21875q1.078125 1.203125 1.078125 3.125q0 1.921875 -1.09375 3.125q-1.09375 1.203125 -2.921875 1.203125q-1.796875 0 -2.90625 -1.171875q-1.109375 -1.1875 -1.109375 -3.15625q0 -1.96875 1.078125 -3.15625q1.09375 -1.1875 2.9375 -1.1875zm-2.578125 4.34375q0 1.421875 0.71875 2.265625q0.734375 0.84375 1.859375 0.84375q1.125 0 1.84375 -0.84375q0.734375 -0.859375 0.734375 -2.265625q0 -1.421875 -0.734375 -2.28125q-0.71875 -0.859375 -1.859375 -0.859375q-1.09375 0 -1.828125 0.84375q-0.734375 0.84375 -0.734375 2.296875zm11.65625 -4.34375q1.515625 0 2.453125 0.71875q0.953125 0.71875 1.109375 2.125l-1.40625 0q-0.15625 -0.796875 -0.703125 -1.21875q-0.53125 -0.421875 -1.34375 -0.421875q-1.265625 0 -1.921875 0.84375q-0.65625 0.84375 -0.65625 2.390625q0 1.375 0.640625 2.203125q0.65625 0.8125 1.78125 0.8125q0.984375 0 1.5625 -0.53125q0.578125 -0.53125 0.703125 -1.484375l1.390625 0q-0.21875 1.546875 -1.15625 2.390625q-0.9375 0.84375 -2.484375 0.84375q-1.8125 0 -2.84375 -1.140625q-1.03125 -1.140625 -1.03125 -3.09375q0 -2.03125 1.046875 -3.234375q1.046875 -1.203125 2.859375 -1.203125zm6.578125 -2.953125l0 6.765625l3.78125 -3.625l1.8125 0l-3.28125 3.015625l3.53125 5.265625l-1.734375 0l-2.828125 -4.328125l-1.28125 1.1875l0 3.140625l-1.359375 0l0 -11.421875l1.359375 0zm10.3046875 2.953125q1.78125 0 2.765625 1.28125q0.984375 1.28125 0.984375 3.296875l0 0.15625l-6.203125 0l0 0.109375q0 1.171875 0.6875 1.890625q0.6875 0.71875 1.890625 0.71875q0.90625 0 1.4375 -0.421875q0.546875 -0.421875 0.703125 -1.1875l1.34375 0q-0.265625 1.375 -1.203125 2.109375q-0.921875 0.71875 -2.328125 0.71875q-1.296875 0 -2.203125 -0.59375q-0.90625 -0.59375 -1.34375 -1.640625q-0.421875 -1.0625 -0.421875 -2.15625q0 -1.828125 1.09375 -3.046875q1.109375 -1.234375 2.796875 -1.234375zm-2.453125 3.53125l4.75 0q-0.0625 -1.0 -0.734375 -1.65625q-0.65625 -0.671875 -1.65625 -0.671875q-0.9375 0 -1.609375 0.640625q-0.65625 0.625 -0.75 1.6875zm9.5 -5.8125l0 2.46875l1.640625 0l0 1.203125l-1.640625 0l0 5.1875q0 0.609375 0.40625 0.65625q0.40625 0.03125 0.859375 0.03125l0.375 0l0 1.203125l-1.125 0q-1.109375 0 -1.5 -0.390625q-0.375 -0.40625 -0.375 -1.34375l0 -5.34375l-1.421875 0l0 -1.203125l1.421875 0l0 -2.46875l1.359375 0zm5.8984375 2.28125q1.671875 0 2.484375 0.65625q0.8125 0.640625 0.890625 1.9375l-1.359375 0l0 -0.015625q-0.0625 -0.65625 -0.578125 -1.015625q-0.515625 -0.359375 -1.34375 -0.359375q-0.8125 0 -1.296875 0.28125q-0.46875 0.265625 -0.46875 0.765625q0 0.453125 0.421875 0.75q0.421875 0.28125 1.265625 0.46875l1.28125 0.28125q1.203125 0.265625 1.828125 0.828125q0.625 0.546875 0.625 1.46875q0 1.21875 -0.953125 1.921875q-0.9375 0.703125 -2.578125 0.703125q-1.578125 0 -2.515625 -0.71875q-0.921875 -0.71875 -0.984375 -2.09375l1.359375 0q0.03125 0.765625 0.609375 1.1875q0.59375 0.40625 1.609375 0.40625q0.984375 0 1.484375 -0.3125q0.515625 -0.3125 0.515625 -0.921875q0 -0.546875 -0.5 -0.875q-0.5 -0.328125 -2.0625 -0.640625q-1.5625 -0.296875 -2.203125 -0.859375q-0.640625 -0.5625 -0.640625 -1.484375q0 -1.09375 0.875 -1.71875q0.890625 -0.640625 2.234375 -0.640625z" fill-rule="nonzero"/><defs><linearGradient id="p.6" gradientUnits="userSpaceOnUse" gradientTransform="matrix(9.798012337629984 0.0 0.0 9.798012337629984 0.0 0.0)" spreadMethod="pad" x1="19.595179185203907" y1="24.49317348671025" x2="19.59514360765748" y2="34.291185824275644"><stop offset="0.0" stop-color="#dfe9fb"/><stop offset="1.0" stop-color="#6e9be7"/></linearGradient></defs><path fill="url(#p.6)" d="m191.9938 239.98546l288.0 0l0 96.000015l-288.0 0z" fill-rule="evenodd"/><path stroke="#000000" stroke-width="1.0" stroke-linejoin="round" stroke-linecap="butt" d="m191.9938 239.98546l288.0 0l0 96.000015l-288.0 0z" fill-rule="evenodd"/><path fill="#000000" d="m329.611 282.42358l0 1.28125l-3.8125 0l0 10.140625l-1.515625 0l0 -10.140625l-3.8125 0l0 -1.28125l9.140625 0zm6.109375 -0.28125q1.90625 0 3.171875 0.984375q1.28125 0.984375 1.53125 2.734375l-1.515625 0q-0.25 -1.171875 -1.09375 -1.796875q-0.84375 -0.640625 -2.109375 -0.640625q-1.8125 0 -2.84375 1.28125q-1.015625 1.28125 -1.015625 3.34375q0 2.1875 1.0 3.484375q1.015625 1.296875 2.875 1.296875q1.40625 0 2.296875 -0.875q0.890625 -0.890625 1.0 -2.421875l1.53125 0q-0.25 2.21875 -1.546875 3.40625q-1.296875 1.1875 -3.40625 1.1875q-2.453125 0 -3.875 -1.625q-1.40625 -1.640625 -1.40625 -4.34375q0 -2.65625 1.453125 -4.328125q1.46875 -1.6875 3.953125 -1.6875zm11.7890625 0.28125q1.578125 0 2.5 0.859375q0.9375 0.84375 0.9375 2.515625q0 1.671875 -0.9375 2.53125q-0.921875 0.84375 -2.390625 0.84375l-3.671875 0l0 4.671875l-1.515625 0l0 -11.421875l5.078125 0zm-0.421875 5.46875q1.09375 0 1.71875 -0.515625q0.625 -0.515625 0.625 -1.578125q0 -1.0625 -0.625 -1.578125q-0.609375 -0.515625 -1.8125 -0.515625l-3.046875 0l0 4.1875l3.140625 0z" fill-rule="nonzero"/><defs><linearGradient id="p.7" gradientUnits="userSpaceOnUse" gradientTransform="matrix(6.92830311870412 0.0 0.0 6.92830311870412 0.0 0.0)" spreadMethod="pad" x1="7.236799721807422E-10" y1="6.927483299726017" x2="-2.507966582296991E-5" y2="13.85578641838474"><stop offset="0.0" stop-color="#fdecdb"/><stop offset="1.0" stop-color="#f0a963"/></linearGradient></defs><path fill="url(#p.7)" d="m0 47.997093l383.9685 0l0 48.0l-383.9685 0z" fill-rule="evenodd"/><path stroke="#000000" stroke-width="1.0" stroke-linejoin="round" stroke-linecap="butt" d="m0 47.997093l383.9685 0l0 48.0l-383.9685 0z" fill-rule="evenodd"/><path fill="#000000" d="m137.37488 66.15397q2.015625 0 3.3125 0.96875q1.296875 0.96875 1.59375 2.828125l-1.515625 0q-0.234375 -1.21875 -1.125 -1.859375q-0.875 -0.65625 -2.28125 -0.65625q-1.828125 0 -2.875 1.359375q-1.03125 1.34375 -1.03125 3.484375q0 1.96875 1.078125 3.265625q1.078125 1.296875 2.828125 1.296875q1.640625 0 2.65625 -0.984375q1.015625 -0.984375 1.015625 -2.5625l0 -0.171875l-3.65625 0l0 -1.28125l5.015625 0l0 6.015625l-0.953125 0l-0.40625 -1.421875q-0.625 0.8125 -1.59375 1.265625q-0.953125 0.4375 -2.078125 0.4375q-2.328125 0 -3.890625 -1.671875q-1.546875 -1.6875 -1.546875 -4.109375q0 -2.703125 1.46875 -4.453125q1.46875 -1.75 3.984375 -1.75zm10.46875 3.234375q1.78125 0 2.765625 1.28125q0.984375 1.28125 0.984375 3.296875l0 0.15625l-6.203125 0l0 0.109375q0 1.171875 0.6875 1.890625q0.6875 0.71875 1.890625 0.71875q0.90625 0 1.4375 -0.421875q0.546875 -0.421875 0.703125 -1.1875l1.34375 0q-0.265625 1.375 -1.203125 2.109375q-0.921875 0.71875 -2.328125 0.71875q-1.296875 0 -2.203125 -0.59375q-0.90625 -0.59375 -1.34375 -1.640625q-0.421875 -1.0625 -0.421875 -2.15625q0 -1.828125 1.09375 -3.046875q1.109375 -1.234375 2.796875 -1.234375zm-2.453125 3.53125l4.75 0q-0.0625 -1.0 -0.734375 -1.65625q-0.65625 -0.671875 -1.65625 -0.671875q-0.9375 0 -1.609375 0.640625q-0.65625 0.625 -0.75 1.6875zm11.609375 -3.53125q1.5 0 2.171875 0.765625q0.671875 0.765625 0.671875 2.1875l0 5.515625l-1.359375 0l0 -5.65625q0 -0.703125 -0.453125 -1.15625q-0.4375 -0.453125 -1.234375 -0.453125q-1.15625 0 -1.796875 0.703125q-0.640625 0.703125 -0.640625 1.828125l0 4.734375l-1.359375 0l0 -8.28125l1.28125 0l0 1.3125l0.03125 0q0.453125 -0.765625 1.109375 -1.125q0.65625 -0.375 1.578125 -0.375zm8.3359375 0q1.78125 0 2.765625 1.28125q0.984375 1.28125 0.984375 3.296875l0 0.15625l-6.203125 0l0 0.109375q0 1.171875 0.6875 1.890625q0.6875 0.71875 1.890625 0.71875q0.90625 0 1.4375 -0.421875q0.546875 -0.421875 0.703125 -1.1875l1.34375 0q-0.265625 1.375 -1.203125 2.109375q-0.921875 0.71875 -2.328125 0.71875q-1.296875 0 -2.203125 -0.59375q-0.90625 -0.59375 -1.34375 -1.640625q-0.421875 -1.0625 -0.421875 -2.15625q0 -1.828125 1.09375 -3.046875q1.109375 -1.234375 2.796875 -1.234375zm-2.453125 3.53125l4.75 0q-0.0625 -1.0 -0.734375 -1.65625q-0.65625 -0.671875 -1.65625 -0.671875q-0.9375 0 -1.609375 0.640625q-0.65625 0.625 -0.75 1.6875zm11.71875 -3.53125q0.046875 0 0.078125 0q0.046875 0 0.109375 0l0 1.4375q-1.53125 0 -2.265625 0.8125q-0.71875 0.8125 -0.71875 2.515625l0 3.703125l-1.359375 0l0 -8.28125l1.28125 0l0 1.75l0.03125 0q0.46875 -0.984375 1.171875 -1.453125q0.703125 -0.484375 1.671875 -0.484375zm4.59375 0q1.6875 0 2.390625 0.609375q0.71875 0.59375 0.71875 1.609375q0 4.296875 0 4.765625q0 0.46875 0.421875 0.46875q0.09375 0 0.203125 -0.015625q0.109375 -0.03125 0.21875 -0.0625l0 1.0625q-0.1875 0.109375 -0.4375 0.171875q-0.25 0.0625 -0.53125 0.0625q-0.5625 0 -0.859375 -0.3125q-0.296875 -0.328125 -0.296875 -0.984375q-0.546875 0.640625 -1.28125 0.96875q-0.734375 0.328125 -1.640625 0.328125q-1.28125 0 -2.015625 -0.609375q-0.71875 -0.609375 -0.71875 -1.71875q0 -1.125 0.703125 -1.765625q0.71875 -0.65625 3.359375 -0.984375q0.890625 -0.125 1.203125 -0.34375q0.3125 -0.234375 0.3125 -0.6875q0 -0.6875 -0.4375 -1.015625q-0.4375 -0.34375 -1.40625 -0.34375q-1.0 0 -1.515625 0.390625q-0.5 0.375 -0.53125 1.171875l-1.359375 0q0.0625 -1.375 0.96875 -2.0625q0.90625 -0.703125 2.53125 -0.703125zm-2.390625 6.234375q0 0.578125 0.421875 0.90625q0.421875 0.3125 1.1875 0.3125q1.140625 0 1.828125 -0.5625q0.6875 -0.578125 0.6875 -1.28125l0 -1.421875q-0.34375 0.25 -0.890625 0.34375q-0.546875 0.078125 -1.453125 0.203125q-0.90625 0.125 -1.34375 0.484375q-0.4375 0.359375 -0.4375 1.015625zm9.5 -8.515625l0 2.46875l1.640625 0l0 1.203125l-1.640625 0l0 5.1875q0 0.609375 0.40625 0.65625q0.40625 0.03125 0.859375 0.03125l0.375 0l0 1.203125l-1.125 0q-1.109375 0 -1.5 -0.390625q-0.375 -0.40625 -0.375 -1.34375l0 -5.34375l-1.421875 0l0 -1.203125l1.421875 0l0 -2.46875l1.359375 0zm6.5859375 2.28125q1.78125 0 2.765625 1.28125q0.984375 1.28125 0.984375 3.296875l0 0.15625l-6.203125 0l0 0.109375q0 1.171875 0.6875 1.890625q0.6875 0.71875 1.890625 0.71875q0.90625 0 1.4375 -0.421875q0.546875 -0.421875 0.703125 -1.1875l1.34375 0q-0.265625 1.375 -1.203125 2.109375q-0.921875 0.71875 -2.328125 0.71875q-1.296875 0 -2.203125 -0.59375q-0.90625 -0.59375 -1.34375 -1.640625q-0.421875 -1.0625 -0.421875 -2.15625q0 -1.828125 1.09375 -3.046875q1.109375 -1.234375 2.796875 -1.234375zm-2.453125 3.53125l4.75 0q-0.0625 -1.0 -0.734375 -1.65625q-0.65625 -0.671875 -1.65625 -0.671875q-0.9375 0 -1.609375 0.640625q-0.65625 0.625 -0.75 1.6875zm15.0 -6.484375l0 11.421875l-1.359375 0l0 -1.125l-0.03125 0q-0.328125 0.640625 -1.03125 0.984375q-0.6875 0.34375 -1.609375 0.34375q-1.734375 0 -2.78125 -1.203125q-1.03125 -1.21875 -1.03125 -3.15625q0 -1.921875 1.0 -3.109375q1.015625 -1.203125 2.765625 -1.203125q0.8125 0 1.546875 0.328125q0.734375 0.328125 1.140625 0.96875l0.03125 0l0 -4.25l1.359375 0zm-6.40625 7.34375q0 1.34375 0.6875 2.203125q0.703125 0.859375 1.875 0.859375q1.203125 0 1.859375 -0.859375q0.671875 -0.859375 0.671875 -2.25q0 -1.421875 -0.6875 -2.28125q-0.671875 -0.859375 -1.9375 -0.859375q-1.171875 0 -1.828125 0.859375q-0.640625 0.84375 -0.640625 2.328125zm17.007812 -7.625q1.90625 0 3.015625 0.921875q1.125 0.921875 1.1875 2.703125l-1.4375 0q-0.125 -1.171875 -0.84375 -1.75q-0.703125 -0.59375 -1.984375 -0.59375q-1.21875 0 -1.890625 0.515625q-0.671875 0.5 -0.671875 1.4375q0 0.671875 0.5625 1.109375q0.578125 0.421875 3.109375 0.921875q1.828125 0.375 2.734375 1.15625q0.90625 0.765625 0.90625 2.140625q0 1.59375 -1.3125 2.515625q-1.296875 0.90625 -3.15625 0.90625q-2.078125 0 -3.390625 -1.046875q-1.3125 -1.046875 -1.328125 -3.0l1.4375 0q0.015625 1.3125 0.9375 2.03125q0.921875 0.71875 2.390625 0.71875q1.390625 0 2.140625 -0.53125q0.765625 -0.53125 0.765625 -1.546875q0 -0.8125 -0.703125 -1.296875q-0.6875 -0.5 -2.515625 -0.84375q-2.4375 -0.46875 -3.265625 -1.1875q-0.828125 -0.734375 -0.828125 -1.9375q0 -1.53125 1.15625 -2.4375q1.171875 -0.90625 2.984375 -0.90625zm8.1953125 0.953125l0 2.46875l1.640625 0l0 1.203125l-1.640625 0l0 5.1875q0 0.609375 0.40625 0.65625q0.40625 0.03125 0.859375 0.03125l0.375 0l0 1.203125l-1.125 0q-1.109375 0 -1.5 -0.390625q-0.375 -0.40625 -0.375 -1.34375l0 -5.34375l-1.421875 0l0 -1.203125l1.421875 0l0 -2.46875l1.359375 0zm4.5078125 2.46875l0 5.640625q0 0.703125 0.4375 1.171875q0.453125 0.453125 1.25 0.453125q1.171875 0 1.796875 -0.703125q0.640625 -0.71875 0.640625 -1.828125l0 -4.734375l1.359375 0l0 8.28125l-1.28125 0l0 -1.3125l-0.03125 0q-0.453125 0.78125 -1.140625 1.15625q-0.671875 0.359375 -1.546875 0.359375q-1.453125 0 -2.15625 -0.75q-0.6875 -0.75 -0.6875 -2.21875l0 -5.515625l1.359375 0zm8.9453125 -3.140625l0 4.265625l0.03125 0q0.3125 -0.640625 1.0 -0.96875q0.6875 -0.34375 1.640625 -0.34375q1.765625 0 2.78125 1.21875q1.03125 1.21875 1.03125 3.140625q0 1.921875 -1.015625 3.125q-1.015625 1.1875 -2.765625 1.1875q-0.765625 0 -1.515625 -0.328125q-0.734375 -0.328125 -1.15625 -0.984375l-0.03125 0l0 1.109375l-1.359375 0l0 -11.421875l1.359375 0zm-0.046875 7.28125q0 1.4375 0.6875 2.28125q0.703125 0.84375 1.921875 0.84375q1.171875 0 1.8125 -0.84375q0.65625 -0.84375 0.65625 -2.34375q0 -1.34375 -0.6875 -2.203125q-0.671875 -0.859375 -1.875 -0.859375q-1.203125 0 -1.859375 0.875q-0.65625 0.875 -0.65625 2.25zm10.875 -4.328125q1.671875 0 2.484375 0.65625q0.8125 0.640625 0.890625 1.9375l-1.359375 0l0 -0.015625q-0.0625 -0.65625 -0.578125 -1.015625q-0.515625 -0.359375 -1.34375 -0.359375q-0.8125 0 -1.296875 0.28125q-0.46875 0.265625 -0.46875 0.765625q0 0.453125 0.421875 0.75q0.421875 0.28125 1.265625 0.46875l1.28125 0.28125q1.203125 0.265625 1.828125 0.828125q0.625 0.546875 0.625 1.46875q0 1.21875 -0.953125 1.921875q-0.9375 0.703125 -2.578125 0.703125q-1.578125 0 -2.515625 -0.71875q-0.921875 -0.71875 -0.984375 -2.09375l1.359375 0q0.03125 0.765625 0.609375 1.1875q0.59375 0.40625 1.609375 0.40625q0.984375 0 1.484375 -0.3125q0.515625 -0.3125 0.515625 -0.921875q0 -0.546875 -0.5 -0.875q-0.5 -0.328125 -2.0625 -0.640625q-1.5625 -0.296875 -2.203125 -0.859375q-0.640625 -0.5625 -0.640625 -1.484375q0 -1.09375 0.875 -1.71875q0.890625 -0.640625 2.234375 -0.640625z" fill-rule="nonzero"/></g></svg>