<svg id="Layer_1" data-name="Layer 1" xmlns="http://www.w3.org/2000/svg" viewBox="0 0 194.23217 189.76706"><defs><style>.cls-1{fill:#5cc0c8;}</style></defs><title>link-external</title><path class="cls-1" d="M8.17831,6.74c.75449-.05326,1.509-.15263,2.26349-.153,17.76352-.00869,35.52723.03145,53.29035-.05376,2.28311-.011,3.00631.62024,2.96721,2.94191-.13293,7.89266-.11074,15.78971-.01,23.68332.02627,2.05968-.42878,2.89818-2.7058,3.00895-7.96781.38757-15.93664.24633-23.90384.28643-1.9416.00978-2.62953.50045-2.6264,2.55442q.08437,55.454.0076,110.90806c-.00228,1.87438.5564,2.47621,2.45467,2.47385q55.68174-.0694,111.36355.0061c2.03912.003,2.56579-.65113,2.55415-2.61413-.07563-12.75284.01564-25.50679-.0876-38.25926-.0187-2.31175.66727-2.99053,2.962-2.94621,8.79887.1699,17.60134.15366,26.40247.20688v72.88827c-.98129.05338-1.96255.15334-2.94384.15348q-84.52209.01119-169.04417,0c-.98128-.00012-1.96255-.10011-2.94382-.15349Z"/><path class="cls-1" d="M183.11014,94.20587a6.00563,6.00563,0,0,1-2.07568-1.73234c-8.38255-8.36538-16.79128-16.70526-25.09317-25.15011-1.51532-1.54143-2.37164-1.61874-3.94-.03557-13.19629,13.32071-26.51047,26.52467-39.70439,39.8477-1.62428,1.6402-2.5265,1.65643-4.14858.00361Q95.4671,94.21759,82.5495,81.52907c-1.50559-1.48273-1.4606-2.34858.01628-3.81424,13.36315-13.26142,26.62771-26.62222,40.00264-39.87165,1.59121-1.57628,1.48526-2.4325-.048-3.93992-8.39041-8.249-16.67859-16.602-24.98433-24.93685-.5641-.56607-1.65872-1.07978-1.37532-1.90854.31684-.92657,1.47127-.45733,2.24219-.458q41.22132-.03559,82.44266-.013c.75485.00022,1.50966.09981,2.26451.15307Z"/></svg>