<?xml version="1.0" encoding="utf-8"?>
<!-- Generator: Adobe Illustrator 21.1.0, SVG Export Plug-In . SVG Version: 6.00 Build 0)  -->
<svg version="1.1" id="Layer_1" xmlns="http://www.w3.org/2000/svg" xmlns:xlink="http://www.w3.org/1999/xlink" x="0px" y="0px"
	 viewBox="0 0 288 122.3333359" style="enable-background:new 0 0 288 122.3333359;" xml:space="preserve">
<style type="text/css">
	.st0{fill:#FFFFFF;}
	.st1{clip-path:url(#SVGID_2_);fill:#74CBCB;}
	.st2{clip-path:url(#SVGID_2_);fill:#73CBCB;}
	.st3{clip-path:url(#SVGID_2_);fill:#72CBCA;}
	.st4{clip-path:url(#SVGID_2_);fill:#71CACA;}
	.st5{clip-path:url(#SVGID_2_);fill:#70CACA;}
	.st6{clip-path:url(#SVGID_2_);fill:#6FCAC9;}
	.st7{clip-path:url(#SVGID_2_);fill:#6ECAC9;}
	.st8{clip-path:url(#SVGID_2_);fill:#6DC9C9;}
	.st9{clip-path:url(#SVGID_2_);fill:#6CC9C8;}
	.st10{clip-path:url(#SVGID_2_);fill:#6BC9C8;}
	.st11{clip-path:url(#SVGID_2_);fill:#6AC9C8;}
	.st12{clip-path:url(#SVGID_2_);fill:#69C8C8;}
	.st13{clip-path:url(#SVGID_2_);fill:#68C8C7;}
	.st14{clip-path:url(#SVGID_2_);fill:#67C8C7;}
	.st15{clip-path:url(#SVGID_2_);fill:#66C7C7;}
	.st16{clip-path:url(#SVGID_2_);fill:#65C7C6;}
	.st17{clip-path:url(#SVGID_2_);fill:#64C7C6;}
	.st18{clip-path:url(#SVGID_2_);fill:#62C7C6;}
	.st19{clip-path:url(#SVGID_2_);fill:#61C6C6;}
	.st20{clip-path:url(#SVGID_2_);fill:#60C6C5;}
	.st21{clip-path:url(#SVGID_2_);fill:#5EC6C5;}
	.st22{clip-path:url(#SVGID_2_);fill:#5DC5C5;}
	.st23{clip-path:url(#SVGID_2_);fill:#5BC5C4;}
	.st24{clip-path:url(#SVGID_2_);fill:#5AC5C4;}
	.st25{clip-path:url(#SVGID_2_);fill:#58C4C3;}
	.st26{clip-path:url(#SVGID_2_);fill:#57C4C3;}
	.st27{clip-path:url(#SVGID_2_);fill:#55C4C3;}
	.st28{clip-path:url(#SVGID_2_);fill:#53C3C2;}
	.st29{clip-path:url(#SVGID_2_);fill:#51C3C2;}
	.st30{clip-path:url(#SVGID_2_);fill:#4FC3C1;}
	.st31{clip-path:url(#SVGID_2_);fill:#4DC2C1;}
	.st32{clip-path:url(#SVGID_2_);fill:#4BC2C0;}
	.st33{clip-path:url(#SVGID_2_);fill:#49C1C0;}
	.st34{clip-path:url(#SVGID_2_);fill:#46C1C0;}
	.st35{clip-path:url(#SVGID_2_);fill:#44C0BF;}
	.st36{clip-path:url(#SVGID_2_);fill:#41C0BF;}
	.st37{clip-path:url(#SVGID_2_);fill:#3EC0BE;}
	.st38{clip-path:url(#SVGID_2_);fill:#3BBFBE;}
	.st39{clip-path:url(#SVGID_2_);fill:#38BFBD;}
	.st40{clip-path:url(#SVGID_2_);fill:#34BEBD;}
	.st41{clip-path:url(#SVGID_2_);fill:#30BEBC;}
	.st42{clip-path:url(#SVGID_2_);fill:#2CBDBB;}
	.st43{clip-path:url(#SVGID_2_);fill:#27BDBB;}
	.st44{clip-path:url(#SVGID_2_);fill:#21BCBA;}
	.st45{clip-path:url(#SVGID_2_);fill:#1ABCBA;}
	.st46{clip-path:url(#SVGID_2_);fill:#10BBB9;}
	.st47{clip-path:url(#SVGID_2_);fill:#00BBB9;}
	.st48{clip-path:url(#SVGID_2_);fill:#00BAB8;}
	.st49{clip-path:url(#SVGID_2_);fill:#00BAB7;}
	.st50{clip-path:url(#SVGID_2_);fill:#00B9B7;}
	.st51{clip-path:url(#SVGID_2_);fill:#00B9B6;}
	.st52{clip-path:url(#SVGID_2_);fill:#00B8B6;}
	.st53{clip-path:url(#SVGID_2_);fill:#00B7B5;}
	.st54{clip-path:url(#SVGID_2_);fill:#00B7B4;}
	.st55{clip-path:url(#SVGID_2_);fill:#00B6B4;}
	.st56{clip-path:url(#SVGID_2_);fill:#00B6B3;}
	.st57{clip-path:url(#SVGID_2_);fill:#00B5B2;}
	.st58{clip-path:url(#SVGID_2_);fill:#00B4B1;}
	.st59{clip-path:url(#SVGID_2_);fill:#00B3B0;}
	.st60{clip-path:url(#SVGID_2_);fill:#00B2AF;}
	.st61{clip-path:url(#SVGID_2_);fill:#00B2AE;}
	.st62{clip-path:url(#SVGID_2_);fill:#00B1AD;}
	.st63{clip-path:url(#SVGID_2_);fill:#00B0AD;}
	.st64{clip-path:url(#SVGID_4_);fill:#74CBCB;}
	.st65{clip-path:url(#SVGID_4_);fill:#73CBCB;}
	.st66{clip-path:url(#SVGID_4_);fill:#73CBCA;}
	.st67{clip-path:url(#SVGID_4_);fill:#72CBCA;}
	.st68{clip-path:url(#SVGID_4_);fill:#71CACA;}
	.st69{clip-path:url(#SVGID_4_);fill:#70CACA;}
	.st70{clip-path:url(#SVGID_4_);fill:#6FCAC9;}
	.st71{clip-path:url(#SVGID_4_);fill:#6EC9C9;}
	.st72{clip-path:url(#SVGID_4_);fill:#6DC9C9;}
	.st73{clip-path:url(#SVGID_4_);fill:#6CC9C8;}
	.st74{clip-path:url(#SVGID_4_);fill:#6BC9C8;}
	.st75{clip-path:url(#SVGID_4_);fill:#6AC8C8;}
	.st76{clip-path:url(#SVGID_4_);fill:#69C8C8;}
	.st77{clip-path:url(#SVGID_4_);fill:#68C8C7;}
	.st78{clip-path:url(#SVGID_4_);fill:#67C8C7;}
	.st79{clip-path:url(#SVGID_4_);fill:#66C7C7;}
	.st80{clip-path:url(#SVGID_4_);fill:#65C7C6;}
	.st81{clip-path:url(#SVGID_4_);fill:#63C7C6;}
	.st82{clip-path:url(#SVGID_4_);fill:#62C7C6;}
	.st83{clip-path:url(#SVGID_4_);fill:#61C6C6;}
	.st84{clip-path:url(#SVGID_4_);fill:#60C6C5;}
	.st85{clip-path:url(#SVGID_4_);fill:#5FC6C5;}
	.st86{clip-path:url(#SVGID_4_);fill:#5DC5C5;}
	.st87{clip-path:url(#SVGID_4_);fill:#5CC5C4;}
	.st88{clip-path:url(#SVGID_4_);fill:#5BC5C4;}
	.st89{clip-path:url(#SVGID_4_);fill:#59C5C4;}
	.st90{clip-path:url(#SVGID_4_);fill:#58C4C3;}
	.st91{clip-path:url(#SVGID_4_);fill:#57C4C3;}
	.st92{clip-path:url(#SVGID_4_);fill:#55C4C3;}
	.st93{clip-path:url(#SVGID_4_);fill:#54C3C2;}
	.st94{clip-path:url(#SVGID_4_);fill:#52C3C2;}
	.st95{clip-path:url(#SVGID_4_);fill:#50C3C2;}
	.st96{clip-path:url(#SVGID_4_);fill:#4FC2C1;}
	.st97{clip-path:url(#SVGID_4_);fill:#4DC2C1;}
	.st98{clip-path:url(#SVGID_4_);fill:#4BC2C1;}
	.st99{clip-path:url(#SVGID_4_);fill:#4AC1C0;}
	.st100{clip-path:url(#SVGID_4_);fill:#48C1C0;}
	.st101{clip-path:url(#SVGID_4_);fill:#46C1C0;}
	.st102{clip-path:url(#SVGID_4_);fill:#44C1BF;}
	.st103{clip-path:url(#SVGID_4_);fill:#42C0BF;}
	.st104{clip-path:url(#SVGID_4_);fill:#40C0BE;}
	.st105{clip-path:url(#SVGID_4_);fill:#3EC0BE;}
	.st106{clip-path:url(#SVGID_4_);fill:#3CBFBE;}
	.st107{clip-path:url(#SVGID_4_);fill:#39BFBD;}
	.st108{clip-path:url(#SVGID_4_);fill:#37BFBD;}
	.st109{clip-path:url(#SVGID_4_);fill:#34BEBD;}
	.st110{clip-path:url(#SVGID_4_);fill:#32BEBC;}
	.st111{clip-path:url(#SVGID_4_);fill:#2FBDBC;}
	.st112{clip-path:url(#SVGID_4_);fill:#2CBDBB;}
	.st113{clip-path:url(#SVGID_4_);fill:#28BDBB;}
	.st114{clip-path:url(#SVGID_4_);fill:#25BCBB;}
	.st115{clip-path:url(#SVGID_4_);fill:#21BCBA;}
	.st116{clip-path:url(#SVGID_4_);fill:#1CBCBA;}
	.st117{clip-path:url(#SVGID_4_);fill:#16BBBA;}
	.st118{clip-path:url(#SVGID_4_);fill:#0FBBB9;}
	.st119{clip-path:url(#SVGID_4_);fill:#04BBB9;}
	.st120{clip-path:url(#SVGID_4_);fill:#00BAB8;}
	.st121{clip-path:url(#SVGID_4_);fill:#00B9B7;}
	.st122{clip-path:url(#SVGID_4_);fill:#00B9B6;}
	.st123{clip-path:url(#SVGID_4_);fill:#00B8B6;}
	.st124{clip-path:url(#SVGID_4_);fill:#00B8B5;}
	.st125{clip-path:url(#SVGID_4_);fill:#00B7B5;}
	.st126{clip-path:url(#SVGID_4_);fill:#00B7B4;}
	.st127{clip-path:url(#SVGID_4_);fill:#00B6B4;}
	.st128{clip-path:url(#SVGID_4_);fill:#00B6B3;}
	.st129{clip-path:url(#SVGID_4_);fill:#00B5B2;}
</style>
<g>
	<path class="st0" d="M33.85812,102.6989899c2.0253677,2.7248077,4.6634712,4.9082489,7.9122009,6.5503235
		c3.2492561,1.6410217,6.8648872,2.4625854,10.8474236,2.4625854c3.4929771,0,6.4620361-0.5075302,8.9082298-1.5194244
		c2.445137-1.0139999,4.4181633-2.3938522,5.9211998-4.1395493c1.501976-1.7478104,2.5841827-3.7906265,3.2492599-6.1316147
		c0.6629562-2.3409882,0.9954987-4.8384628,0.9954987-7.4924316v-8.8035507h-0.2093582
		c-2.2368393,3.3528824-4.9621735,5.7298203-8.1749535,7.1265869c-3.2143631,1.3978271-6.6026649,2.0956802-10.1659546,2.0956802
		c-3.5632935,0-6.9003143-0.6291275-10.0084114-1.886322c-3.110218-1.258255-5.8170509-2.9870377-8.1226158-5.1873932
		c-2.3055687-2.201416-4.1231632-4.83741-5.4496174-7.9132614c-1.3280411-3.0737381-1.9915314-6.3927765-1.9915314-9.9560699
		s0.6291275-6.881279,1.8868523-9.9566002c1.2571983-3.0737381,2.9865055-5.764183,5.1873913-8.0697479
		c2.2008896-2.3055649,4.8210182-4.1036034,7.8603935-5.3972778c3.0393715-1.2920914,6.3753319-1.9391937,10.0089378-1.9391937
		c1.467083,0,3.0213966,0.1411591,4.6634712,0.4192429c1.6410179,0.280201,3.2836227,0.7697563,4.9256973,1.4676132
		c1.6410179,0.6989098,3.2656479,1.6600494,4.8733597,2.8818245c1.6066513,1.223362,3.1081009,2.7771492,4.5069809,4.6640015
		h0.2093582v-8.1749535h6.9172287v48.6294212c0,2.6539688-0.3325424,5.4834595-0.9960327,8.4884644
		c-0.6645432,3.0028915-1.9566345,5.7647095-3.877327,8.2791061c-1.9227982,2.5154495-4.5952682,4.6121902-8.0174026,6.2891541
		C62.2941437,117.1615143,57.8220558,118,52.3031807,118c-4.8913345,0-9.2587433-0.8035889-13.1001244-2.4097137
		c-3.8434906-1.6082458-7.3364677-4.0877457-10.4805183-7.4416809L33.85812,102.6989899z M35.1153183,67.6951904
		c0,2.5852356,0.4715805,5.0139847,1.4152718,7.2830734c0.943161,2.2712021,2.2352524,4.2632675,3.877327,5.9740677
		c1.6410179,1.7129211,3.5632935,3.0758514,5.7641792,4.087738c2.2008896,1.0129547,4.593689,1.5194244,7.1794548,1.5194244
		c2.5149231,0,4.9077187-0.4536057,7.1789246-1.3629303c2.2696152-0.9072113,4.2791252-2.1823883,6.0258751-3.8244629
		c1.745697-1.6410141,3.091713-3.6161575,4.0354004-5.9222565c0.943161-2.3050385,1.3787918-4.8892136,1.3100662-7.7546539
		c0-2.5847092-0.4192429-5.012928-1.2577286-7.2841301c-0.8384781-2.2696152-2.0618439-4.2611465-3.6684952-5.9740677
		c-1.6077118-1.7113304-3.5632935-3.0737343-5.8688583-4.0872116c-2.3055687-1.0118904-4.8913345-1.5194206-7.7551842-1.5194206
		c-2.5857658,0-4.9785652,0.5075302-7.1794548,1.5194206c-2.2008858,1.0134773-4.1231613,2.3758812-5.7641792,4.0872116
		c-1.6420746,1.7129211-2.934166,3.7044525-3.877327,5.9740677C35.5868988,62.6822624,35.1153183,65.1104813,35.1153183,67.6951904z
		"/>
	<path class="st0" d="M106.8004074,92.8475952h-7.5458221V18.6465225h22.8468323
		c7.5458298,0,13.501915,1.6426048,17.8693314,4.9256973c4.3658295,3.2852077,6.5503235,8.2452679,6.5503235,14.8822975
		c0,5.1715317-1.6246185,9.5209694-4.8733521,13.0483131c-3.2492676,3.5289268-7.9486847,5.5722694-14.0961533,6.1305542
		l21.3802872,35.2142105h-9.2233276l-20.3319168-34.4804039h-12.5762024V92.8475952z M106.8004074,51.4499626h13.4146881
		c3.3539352,0,6.1998138-0.3484001,8.5413284-1.0478401c2.3404541-0.6973267,4.2088013-1.62463,5.6071625-2.7771492
		c1.3967743-1.1530495,2.4107666-2.5154533,3.0393677-4.0872116c0.6286011-1.5722923,0.943161-3.2656479,0.943161-5.0832443
		c0-1.745697-0.3145599-3.4062767-0.943161-4.978035c-0.6286011-1.5722904-1.6425934-2.9510841-3.0393677-4.1400814
		c-1.3983612-1.1868839-3.2667084-2.1120701-5.6071625-2.7771473c-2.3415146-0.6629639-5.1873932-0.9955025-8.5413284-0.9955025
		h-13.4146881V51.4499626z"/>
	<path class="st0" d="M161.925705,18.6465225h21.5901642c7.5453033,0,13.5013885,1.6426048,17.8682861,4.9256973
		c4.3658142,3.2852077,6.5503235,8.2452679,6.5503235,14.8822975c0,6.6386147-2.1845093,11.6166496-6.5503235,14.9346352
		c-4.3668976,3.319046-10.3229828,4.9780388-17.8682861,4.9780388h-14.043808v34.4804039h-7.5463562V18.6465225z
		 M169.4720612,51.4499626h12.157486c3.35289,0,6.1992798-0.3484001,8.5413361-1.0478401
		c2.33992-0.6973267,4.2082825-1.62463,5.6071625-2.7771492c1.396759-1.1530495,2.4097137-2.5154533,3.0388336-4.0872116
		c0.6291351-1.5722923,0.9431763-3.2656479,0.9431763-5.0832443c0-1.745697-0.3140411-3.4062767-0.9431763-4.978035
		c-0.6291199-1.5722904-1.6420746-2.9510841-3.0388336-4.1400814c-1.39888-1.1868839-3.2672424-2.1120701-5.6071625-2.7771473
		c-2.3420563-0.6629639-5.188446-0.9955025-8.5413361-0.9955025h-12.157486V51.4499626z"/>
	<path class="st0" d="M283.705719,81.1098785c-1.2572021,1.886322-2.812561,3.6679688-4.6629333,5.3449402
		c-1.8525085,1.6769638-3.966156,3.1276627-6.3409729,4.3489075c-2.375885,1.2233582-4.9442139,2.1834412-7.7028503,2.8823547
		c-2.7607422,0.6978531-5.678009,1.0478363-8.7517395,1.0478363c-5.5194092,0-10.6370087-0.9791107-15.352829-2.9341583
		c-4.7168579-1.9550552-8.8035431-4.6640015-12.2621613-8.1226196c-3.4586182-3.4586105-6.1675568-7.5622177-8.1226196-12.3139801
		c-1.9571686-4.7507019-2.9341583-9.9565964-2.9341583-15.6161003s0.9769897-10.8632851,2.9341583-15.6155739
		c1.9550629-4.7507057,4.6640015-8.8558922,8.1226196-12.3145065s7.5453033-6.1654472,12.2621613-8.1220856
		c4.7158203-1.9555817,9.8334198-2.9346943,15.352829-2.9346943c4.6121826,0,9.2233276,0.9087982,13.8344421,2.7248096
		c4.611145,1.8175945,8.5582581,4.8210182,11.8424072,9.0134373l-6.6021423,4.9256954
		c-0.7697449-1.1874084-1.8175964-2.3748226-3.1445618-3.5632915c-1.3280334-1.1874104-2.8474731-2.2352524-4.5582886-3.1440506
		c-1.7128906-0.9072113-3.5474243-1.6410179-5.5024719-2.2008877c-1.9571533-0.5588131-3.913269-0.8384838-5.8693848-0.8384838
		c-4.7517548,0-9.0129089,0.8744335-12.785553,2.6201305c-3.7726593,1.747282-6.9690399,4.0872116-9.5891724,7.0213776
		c-2.6201324,2.9346924-4.6301727,6.3409691-6.0269318,10.2188263c-1.3978271,3.877327-2.0956879,7.9486771-2.0956879,12.2092972
		c0,4.2627335,0.6978607,8.331974,2.0956879,12.209301c1.396759,3.8783875,3.4067993,7.2841339,6.0269318,10.2182922
		c2.6201324,2.9352264,5.8165131,5.2762146,9.5891724,7.0219116c3.772644,1.7478104,8.0337982,2.6201248,12.785553,2.6201248
		c1.9561157,0,3.8942566-0.1734009,5.8165283-0.5233917c1.9212036-0.3489227,3.8075256-0.943161,5.6600342-1.7816391
		c1.8503723-0.8384857,3.5971069-1.9740906,5.2402344-3.4068069c1.6410217-1.430603,3.1604614-3.2302246,4.5582886-5.3967514
		L283.705719,81.1098785z"/>
	<g>
		<g>
			<defs>
				
					<rect id="SVGID_1_" x="8.4597559" y="9.702548" transform="matrix(-0.7097267 -0.7044771 0.7044771 -0.7097267 21.4684124 55.7859459)" width="27.5349865" height="27.5349865"/>
			</defs>
			<clipPath id="SVGID_2_">
				<use xlink:href="#SVGID_1_"  style="overflow:visible;"/>
			</clipPath>
			<polygon class="st1" points="3.1017478,4 2.7572079,7.0492859 2.7572079,4 			"/>
			<polygon class="st2" points="3.556953,4 2.7572079,11.0779982 2.7572079,7.0492859 3.1017478,4 			"/>
			<polygon class="st2" points="4.0121584,4 2.7572079,15.1067104 2.7572079,11.0779982 3.556953,4 			"/>
			<polygon class="st3" points="4.4673638,4 2.7572079,19.1354218 2.7572079,15.1067104 4.0121584,4 			"/>
			<polygon class="st3" points="4.9225693,4 2.7572079,23.1641331 2.7572079,19.1354218 4.4673638,4 			"/>
			<polygon class="st4" points="5.3777747,4 2.7572079,27.1928463 2.7572079,23.1641331 4.9225693,4 			"/>
			<polygon class="st5" points="5.8329797,4 2.7572079,31.2215576 2.7572079,27.1928463 5.3777747,4 			"/>
			<polygon class="st5" points="6.2881851,4 2.7572079,35.2502708 2.7572079,31.2215576 5.8329797,4 			"/>
			<polygon class="st6" points="6.7433906,4 2.7572079,39.2789803 2.7572079,35.2502708 6.2881851,4 			"/>
			<polygon class="st7" points="7.198596,4 2.801439,42.9162331 2.7572079,42.9112358 2.7572079,39.2789803 6.7433906,4 			"/>
			<polygon class="st8" points="7.6538014,4 3.2539499,42.9400826 3.0125036,42.9400826 2.801439,42.9162331 7.198596,4 			"/>
			<polygon class="st8" points="8.1090069,4 3.7091551,42.9400826 3.2539499,42.9400826 7.6538014,4 			"/>
			<polygon class="st9" points="8.5642118,4 4.1643605,42.9400826 3.7091551,42.9400826 8.1090069,4 			"/>
			<polygon class="st10" points="9.0194178,4 4.619566,42.9400826 4.1643605,42.9400826 8.5642118,4 			"/>
			<polygon class="st11" points="9.4746227,4 5.0747714,42.9400826 4.619566,42.9400826 9.0194178,4 			"/>
			<polygon class="st12" points="9.9298286,4 5.5299768,42.9400826 5.0747714,42.9400826 9.4746227,4 			"/>
			<polygon class="st13" points="10.3850336,4 5.9851818,42.9400826 5.5299768,42.9400826 9.9298286,4 			"/>
			<polygon class="st14" points="10.8402386,4 6.4403872,42.9400826 5.9851818,42.9400826 10.3850336,4 			"/>
			<polygon class="st15" points="11.2954445,4 6.8955927,42.9400826 6.4403872,42.9400826 10.8402386,4 			"/>
			<polygon class="st16" points="11.7506495,4 7.3507981,42.9400826 6.8955927,42.9400826 11.2954445,4 			"/>
			<polygon class="st17" points="12.2058554,4 7.8060036,42.9400826 7.3507981,42.9400826 11.7506495,4 			"/>
			<polygon class="st18" points="12.6610603,4 8.2612085,42.9400826 7.8060036,42.9400826 12.2058554,4 			"/>
			<polygon class="st19" points="13.1162663,4 8.7164145,42.9400826 8.2612085,42.9400826 12.6610603,4 			"/>
			<polygon class="st20" points="13.5714712,4 9.1716194,42.9400826 8.7164145,42.9400826 13.1162663,4 			"/>
			<polygon class="st21" points="14.0266762,4 9.6268253,42.9400826 9.1716194,42.9400826 13.5714712,4 			"/>
			<polygon class="st22" points="14.4818821,4 10.0820303,42.9400826 9.6268253,42.9400826 14.0266762,4 			"/>
			<polygon class="st23" points="14.9370871,4 10.5372353,42.9400826 10.0820303,42.9400826 14.4818821,4 			"/>
			<polygon class="st24" points="15.392293,4 10.9924412,42.9400826 10.5372353,42.9400826 14.9370871,4 			"/>
			<polygon class="st25" points="15.8474979,4 11.4476461,42.9400826 10.9924412,42.9400826 15.392293,4 			"/>
			<polygon class="st26" points="16.3027039,4 11.9028521,42.9400826 11.4476461,42.9400826 15.8474979,4 			"/>
			<polygon class="st27" points="16.7579079,4 12.358057,42.9400826 11.9028521,42.9400826 16.3027039,4 			"/>
			<polygon class="st28" points="17.2131138,4 12.8132629,42.9400826 12.358057,42.9400826 16.7579079,4 			"/>
			<polygon class="st29" points="17.6683197,4 13.2684679,42.9400826 12.8132629,42.9400826 17.2131138,4 			"/>
			<polygon class="st30" points="18.1235256,4 13.7236729,42.9400826 13.2684679,42.9400826 17.6683197,4 			"/>
			<polygon class="st31" points="18.5787296,4 14.1788788,42.9400826 13.7236729,42.9400826 18.1235256,4 			"/>
			<polygon class="st32" points="19.0339355,4 14.6340837,42.9400826 14.1788788,42.9400826 18.5787296,4 			"/>
			<polygon class="st33" points="19.4891415,4 15.0892897,42.9400826 14.6340837,42.9400826 19.0339355,4 			"/>
			<polygon class="st34" points="19.9443455,4 15.5444946,42.9400826 15.0892897,42.9400826 19.4891415,4 			"/>
			<polygon class="st35" points="20.3995514,4 15.9997005,42.9400826 15.5444946,42.9400826 19.9443455,4 			"/>
			<polygon class="st36" points="20.8547573,4 16.4549046,42.9400826 15.9997005,42.9400826 20.3995514,4 			"/>
			<polygon class="st37" points="21.3099632,4 16.9101105,42.9400826 16.4549046,42.9400826 20.8547573,4 			"/>
			<polygon class="st38" points="21.7651672,4 17.3653164,42.9400826 16.9101105,42.9400826 21.3099632,4 			"/>
			<polygon class="st39" points="22.2203732,4 17.8205223,42.9400826 17.3653164,42.9400826 21.7651672,4 			"/>
			<polygon class="st40" points="22.6755791,4 18.2757263,42.9400826 17.8205223,42.9400826 22.2203732,4 			"/>
			<polygon class="st41" points="23.1307831,4 18.7309322,42.9400826 18.2757263,42.9400826 22.6755791,4 			"/>
			<polygon class="st42" points="23.585989,4 19.1861382,42.9400826 18.7309322,42.9400826 23.1307831,4 			"/>
			<polygon class="st43" points="24.0411949,4 19.6413422,42.9400826 19.1861382,42.9400826 23.585989,4 			"/>
			<polygon class="st44" points="24.4964008,4 20.0965481,42.9400826 19.6413422,42.9400826 24.0411949,4 			"/>
			<polygon class="st45" points="24.9516048,4 20.551754,42.9400826 20.0965481,42.9400826 24.4964008,4 			"/>
			<polygon class="st46" points="25.4068108,4 21.0069599,42.9400826 20.551754,42.9400826 24.9516048,4 			"/>
			<polygon class="st47" points="25.8620167,4 21.4621639,42.9400826 21.0069599,42.9400826 25.4068108,4 			"/>
			<polygon class="st48" points="26.3172207,4 21.9173698,42.9400826 21.4621639,42.9400826 25.8620167,4 			"/>
			<polygon class="st49" points="26.7724266,4 22.3725758,42.9400826 21.9173698,42.9400826 26.3172207,4 			"/>
			<polygon class="st50" points="27.2276325,4 22.8277798,42.9400826 22.3725758,42.9400826 26.7724266,4 			"/>
			<polygon class="st51" points="27.6828384,4 23.2829857,42.9400826 22.8277798,42.9400826 27.2276325,4 			"/>
			<polygon class="st52" points="28.1380424,4 23.7381916,42.9400826 23.2829857,42.9400826 27.6828384,4 			"/>
			<polygon class="st53" points="28.5932484,4 24.1933975,42.9400826 23.7381916,42.9400826 28.1380424,4 			"/>
			<polygon class="st54" points="29.0484543,4 24.6486015,42.9400826 24.1933975,42.9400826 28.5932484,4 			"/>
			<polygon class="st55" points="29.5036583,4 25.1038074,42.9400826 24.6486015,42.9400826 29.0484543,4 			"/>
			<polygon class="st56" points="29.9588642,4 25.5590134,42.9400826 25.1038074,42.9400826 29.5036583,4 			"/>
			<polygon class="st57" points="30.4140701,4 26.0142174,42.9400826 25.5590134,42.9400826 29.9588642,4 			"/>
			<polygon class="st57" points="30.869276,4 26.4694233,42.9400826 26.0142174,42.9400826 30.4140701,4 			"/>
			<polygon class="st58" points="31.3244801,4 26.9246292,42.9400826 26.4694233,42.9400826 30.869276,4 			"/>
			<polygon class="st59" points="31.779686,4 27.3798351,42.9400826 26.9246292,42.9400826 31.3244801,4 			"/>
			<polygon class="st59" points="32.23489,4 27.8350391,42.9400826 27.3798351,42.9400826 31.779686,4 			"/>
			<polygon class="st60" points="32.6900978,4 28.2902451,42.9400826 27.8350391,42.9400826 32.23489,4 			"/>
			<polygon class="st61" points="33.1453018,4 28.745451,42.9400826 28.2902451,42.9400826 32.6900978,4 			"/>
			<polygon class="st62" points="33.6005058,4 29.200655,42.9400826 28.745451,42.9400826 33.1453018,4 			"/>
			<polygon class="st63" points="34.0557137,4 29.6558609,42.9400826 29.200655,42.9400826 33.6005058,4 			"/>
			<polygon class="st63" points="41.4419937,4 41.6972885,4.0288458 41.6972885,42.9400826 29.6558609,42.9400826 34.0557137,4 			
				"/>
		</g>
	</g>
	<g>
		<g>
			<defs>
				
					<rect id="SVGID_3_" x="67.3577652" y="15.1644592" transform="matrix(-0.7097267 -0.7044771 0.7044771 -0.7097267 112.5981827 92.8748322)" width="16.1508694" height="16.1508694"/>
			</defs>
			<clipPath id="SVGID_4_">
				<use xlink:href="#SVGID_3_"  style="overflow:visible;"/>
			</clipPath>
			<polygon class="st64" points="86.8535156,18.491106 86.542778,11.8195839 86.8535156,11.8195839 			"/>
			<polygon class="st65" points="86.8535156,25.5011005 86.2162781,11.8195839 86.542778,11.8195839 86.8535156,18.491106 			"/>
			<polygon class="st66" points="86.8535156,32.511097 85.8897705,11.8195839 86.2162781,11.8195839 86.8535156,25.5011005 			"/>
			<polygon class="st67" points="86.6271133,34.6602058 85.5632706,11.8195839 85.8897705,11.8195839 86.8535156,32.511097 
				86.8535156,34.6602058 			"/>
			<polygon class="st68" points="86.3006058,34.6602058 85.2367706,11.8195839 85.5632706,11.8195839 86.6271133,34.6602058 			"/>
			<polygon class="st69" points="85.9741058,34.6602058 84.9102707,11.8195839 85.2367706,11.8195839 86.3006058,34.6602058 			"/>
			<polygon class="st70" points="85.6476059,34.6602058 84.5837708,11.8195839 84.9102707,11.8195839 85.9741058,34.6602058 			"/>
			<polygon class="st70" points="85.321106,34.6602058 84.2572632,11.8195839 84.5837708,11.8195839 85.6476059,34.6602058 			"/>
			<polygon class="st71" points="84.994606,34.6602058 83.9307632,11.8195839 84.2572632,11.8195839 85.321106,34.6602058 			"/>
			<polygon class="st72" points="84.6680984,34.6602058 83.6042633,11.8195839 83.9307632,11.8195839 84.994606,34.6602058 			"/>
			<polygon class="st73" points="84.3415985,34.6602058 83.2777634,11.8195839 83.6042633,11.8195839 84.6680984,34.6602058 			"/>
			<polygon class="st74" points="84.0150986,34.6602058 82.9512634,11.8195839 83.2777634,11.8195839 84.3415985,34.6602058 			"/>
			<polygon class="st75" points="83.6885986,34.6602058 82.6247559,11.8195839 82.9512634,11.8195839 84.0150986,34.6602058 			"/>
			<polygon class="st76" points="83.3620987,34.6602058 82.2982559,11.8195839 82.6247559,11.8195839 83.6885986,34.6602058 			"/>
			<polygon class="st77" points="83.0355911,34.6602058 81.971756,11.8195839 82.2982559,11.8195839 83.3620987,34.6602058 			"/>
			<polygon class="st78" points="82.7090912,34.6602058 81.645256,11.8195839 81.971756,11.8195839 83.0355911,34.6602058 			"/>
			<polygon class="st79" points="82.3825912,34.6602058 81.3187561,11.8195839 81.645256,11.8195839 82.7090912,34.6602058 			"/>
			<polygon class="st80" points="82.0560913,34.6602058 80.9922562,11.8195839 81.3187561,11.8195839 82.3825912,34.6602058 			"/>
			<polygon class="st81" points="81.7295914,34.6602058 80.6657486,11.8195839 80.9922562,11.8195839 82.0560913,34.6602058 			"/>
			<polygon class="st82" points="81.4030838,34.6602058 80.3392487,11.8195839 80.6657486,11.8195839 81.7295914,34.6602058 			"/>
			<polygon class="st83" points="81.0765839,34.6602058 80.0127487,11.8195839 80.3392487,11.8195839 81.4030838,34.6602058 			"/>
			<polygon class="st84" points="80.7500839,34.6602058 79.6862488,11.8195839 80.0127487,11.8195839 81.0765839,34.6602058 			"/>
			<polygon class="st85" points="80.423584,34.6602058 79.3597488,11.8195839 79.6862488,11.8195839 80.7500839,34.6602058 			"/>
			<polygon class="st86" points="80.097084,34.6602058 79.0332413,11.8195839 79.3597488,11.8195839 80.423584,34.6602058 			"/>
			<polygon class="st87" points="79.7705765,34.6602058 78.7067413,11.8195839 79.0332413,11.8195839 80.097084,34.6602058 			"/>
			<polygon class="st88" points="79.4440765,34.6602058 78.3802414,11.8195839 78.7067413,11.8195839 79.7705765,34.6602058 			"/>
			<polygon class="st89" points="79.1175766,34.6602058 78.0537415,11.8195839 78.3802414,11.8195839 79.4440765,34.6602058 			"/>
			<polygon class="st90" points="78.7910767,34.6602058 77.7272415,11.8195839 78.0537415,11.8195839 79.1175766,34.6602058 			"/>
			<polygon class="st91" points="78.4645767,34.6602058 77.4007339,11.8195839 77.7272415,11.8195839 78.7910767,34.6602058 			"/>
			<polygon class="st92" points="78.1380768,34.6602058 77.074234,11.8195839 77.4007339,11.8195839 78.4645767,34.6602058 			"/>
			<polygon class="st93" points="77.8115692,34.6602058 76.7477341,11.8195839 77.074234,11.8195839 78.1380768,34.6602058 			"/>
			<polygon class="st94" points="77.4850693,34.6602058 76.4212341,11.8195839 76.7477341,11.8195839 77.8115692,34.6602058 			"/>
			<polygon class="st95" points="77.1585693,34.6602058 76.0947342,11.8195839 76.4212341,11.8195839 77.4850693,34.6602058 			"/>
			<polygon class="st96" points="76.8320694,34.6602058 75.7682266,11.8195839 76.0947342,11.8195839 77.1585693,34.6602058 			"/>
			<polygon class="st97" points="76.5055695,34.6602058 75.4417267,11.8195839 75.7682266,11.8195839 76.8320694,34.6602058 			"/>
			<polygon class="st98" points="76.1790619,34.6602058 75.1152267,11.8195839 75.4417267,11.8195839 76.5055695,34.6602058 			"/>
			<polygon class="st99" points="75.852562,34.6602058 74.7887268,11.8195839 75.1152267,11.8195839 76.1790619,34.6602058 			"/>
			<polygon class="st100" points="75.526062,34.6602058 74.4622269,11.8195839 74.7887268,11.8195839 75.852562,34.6602058 			"/>
			<polygon class="st101" points="75.1995621,34.6602058 74.1357193,11.8195839 74.4622269,11.8195839 75.526062,34.6602058 			"/>
			<polygon class="st102" points="74.8730621,34.6602058 73.8092194,11.8195839 74.1357193,11.8195839 75.1995621,34.6602058 			"/>
			<polygon class="st103" points="74.5465546,34.6602058 73.4827194,11.8195839 73.8092194,11.8195839 74.8730621,34.6602058 			"/>
			<polygon class="st104" points="74.2200546,34.6602058 73.1562195,11.8195839 73.4827194,11.8195839 74.5465546,34.6602058 			"/>
			<polygon class="st105" points="73.8935547,34.6602058 72.8297195,11.8195839 73.1562195,11.8195839 74.2200546,34.6602058 			"/>
			<polygon class="st106" points="73.5670547,34.6602058 72.5032196,11.8195839 72.8297195,11.8195839 73.8935547,34.6602058 			"/>
			<polygon class="st107" points="73.2405548,34.6602058 72.176712,11.8195839 72.5032196,11.8195839 73.5670547,34.6602058 			"/>
			<polygon class="st108" points="72.9140472,34.6602058 71.8502121,11.8195839 72.176712,11.8195839 73.2405548,34.6602058 			"/>
			<polygon class="st109" points="72.5875473,34.6602058 71.5237122,11.8195839 71.8502121,11.8195839 72.9140472,34.6602058 			"/>
			<polygon class="st110" points="72.2610474,34.6602058 71.1972122,11.8195839 71.5237122,11.8195839 72.5875473,34.6602058 			"/>
			<polygon class="st111" points="71.9345474,34.6602058 70.8707123,11.8195839 71.1972122,11.8195839 72.2610474,34.6602058 			"/>
			<polygon class="st112" points="71.6080475,34.6602058 70.5442047,11.8195839 70.8707123,11.8195839 71.9345474,34.6602058 			"/>
			<polygon class="st113" points="71.2815399,34.6602058 70.2177048,11.8195839 70.5442047,11.8195839 71.6080475,34.6602058 			"/>
			<polygon class="st114" points="70.95504,34.6602058 69.8912048,11.8195839 70.2177048,11.8195839 71.2815399,34.6602058 			"/>
			<polygon class="st115" points="70.62854,34.6602058 69.5647049,11.8195839 69.8912048,11.8195839 70.95504,34.6602058 			"/>
			<polygon class="st116" points="70.3020401,34.6602058 69.238205,11.8195839 69.5647049,11.8195839 70.62854,34.6602058 			"/>
			<polygon class="st117" points="69.9755402,34.6602058 68.9116974,11.8195839 69.238205,11.8195839 70.3020401,34.6602058 			"/>
			<polygon class="st118" points="69.6490402,34.6602058 68.5851974,11.8195839 68.9116974,11.8195839 69.9755402,34.6602058 			"/>
			<polygon class="st119" points="69.3225327,34.6602058 68.2586975,11.8195839 68.5851974,11.8195839 69.6490402,34.6602058 			"/>
			<polygon class="st120" points="68.9960327,34.6602058 67.9321976,11.8195839 68.2586975,11.8195839 69.3225327,34.6602058 			"/>
			<polygon class="st120" points="68.6695328,34.6602058 67.6056976,11.8195839 67.9321976,11.8195839 68.9960327,34.6602058 			"/>
			<polygon class="st120" points="68.3430328,34.6602058 67.2791901,11.8195839 67.6056976,11.8195839 68.6695328,34.6602058 			"/>
			<polygon class="st121" points="68.0165329,34.6602058 66.9526901,11.8195839 67.2791901,11.8195839 68.3430328,34.6602058 			"/>
			<polygon class="st121" points="67.6900253,34.6602058 66.6261902,11.8195839 66.9526901,11.8195839 68.0165329,34.6602058 			"/>
			<polygon class="st122" points="67.3635254,34.6602058 66.2996902,11.8195839 66.6261902,11.8195839 67.6900253,34.6602058 			"/>
			<polygon class="st123" points="67.0370255,34.6602058 65.9731903,11.8195839 66.2996902,11.8195839 67.3635254,34.6602058 			"/>
			<polygon class="st123" points="66.7105255,34.6602058 65.6466904,11.8195839 65.9731903,11.8195839 67.0370255,34.6602058 			"/>
			<polygon class="st124" points="66.3840256,34.6602058 65.3201828,11.8195839 65.6466904,11.8195839 66.7105255,34.6602058 			"/>
			<polygon class="st125" points="66.057518,34.6602058 64.9936829,11.8195839 65.3201828,11.8195839 66.3840256,34.6602058 			"/>
			<polygon class="st126" points="65.7310181,34.6602058 64.6671829,11.8195839 64.9936829,11.8195839 66.057518,34.6602058 			"/>
			<polygon class="st126" points="65.4045181,34.6602058 64.340683,11.8195839 64.6671829,11.8195839 65.7310181,34.6602058 			"/>
			<polygon class="st127" points="65.0780182,34.6602058 64.014183,11.8195839 64.340683,11.8195839 65.4045181,34.6602058 			"/>
			<polygon class="st128" points="64.7515182,34.6602058 64.0128937,18.8019123 64.0128937,11.8195839 64.014183,11.8195839 
				65.0780182,34.6602058 			"/>
			<polygon class="st128" points="64.4250107,34.6602058 64.0128937,25.8119068 64.0128937,18.8019123 64.7515182,34.6602058 			"/>
			<polygon class="st129" points="64.0985107,34.6602058 64.0128937,32.8219032 64.0128937,25.8119068 64.4250107,34.6602058 			"/>
			<polygon class="st129" points="64.0128937,32.8219032 64.0985107,34.6602058 64.0128937,34.6602058 			"/>
		</g>
	</g>
	<g>
		<polygon class="st0" points="23.0104694,11.6978798 11.2639265,23.5324173 23.0981483,35.2791634 33.1096115,35.2420006 
			22.6113586,24.8274956 74.4533539,24.6351719 69.909668,29.2099323 74.9154282,29.1913223 80.7888184,23.274168 
			74.8718109,17.4009247 69.8660812,17.4195061 74.4437408,21.9606667 22.601862,22.1528721 33.0221939,11.6609182 		"/>
	</g>
</g>
</svg>
