<svg version="1.1" viewBox="0.0 0.0 768.0 432.0" fill="none" stroke="none" stroke-linecap="square" stroke-miterlimit="10" xmlns:xlink="http://www.w3.org/1999/xlink" xmlns="http://www.w3.org/2000/svg"><clipPath id="p.0"><path d="m0 0l768.0 0l0 432.0l-768.0 0l0 -432.0z" clip-rule="nonzero"/></clipPath><g clip-path="url(#p.0)"><path fill="#000000" fill-opacity="0.0" d="m0 0l768.0 0l0 432.0l-768.0 0z" fill-rule="evenodd"/><defs><linearGradient id="p.1" gradientUnits="userSpaceOnUse" gradientTransform="matrix(12.0000290491092 0.0 0.0 12.0000290491092 0.0 0.0)" spreadMethod="pad" x1="39.99990316987041" y1="15.998590837101167" x2="39.999858741937715" y2="27.99861988612812"><stop offset="0.0" stop-color="#dcecd5"/><stop offset="1.0" stop-color="#93bc81"/></linearGradient></defs><path fill="url(#p.1)" d="m480.0 191.98425l192.0 0l0 144.0l-192.0 0z" fill-rule="evenodd"/><path stroke="#000000" stroke-width="1.0" stroke-linejoin="round" stroke-linecap="butt" d="m480.0 191.98425l192.0 0l0 144.0l-192.0 0z" fill-rule="evenodd"/><path fill="#000000" d="m562.35254 245.73863q1.421875 0 2.375 0.734375q0.953125 0.734375 1.140625 2.046875l-1.125 0q-0.1875 -0.890625 -0.828125 -1.359375q-0.640625 -0.46875 -1.578125 -0.46875q-1.359375 0 -2.140625 0.96875q-0.765625 0.953125 -0.765625 2.5q0 1.640625 0.75 2.625q0.765625 0.96875 2.171875 0.96875q1.046875 0 1.71875 -0.671875q0.671875 -0.671875 0.75 -1.8125l1.140625 0q-0.1875 1.671875 -1.15625 2.5625q-0.96875 0.875 -2.546875 0.875q-1.84375 0 -2.90625 -1.21875q-1.0625 -1.21875 -1.0625 -3.25q0 -2.0 1.09375 -3.25q1.09375 -1.25 2.96875 -1.25zm7.9472656 2.40625q0.03125 0 0.0625 0q0.03125 0 0.078125 0.015625l0 1.078125q-1.15625 0 -1.703125 0.609375q-0.546875 0.609375 -0.546875 1.875l0 2.78125l-1.015625 0l0 -6.203125l0.953125 0l0 1.296875l0.03125 0q0.359375 -0.734375 0.875 -1.09375q0.53125 -0.359375 1.265625 -0.359375zm3.5898438 0.015625q1.40625 0 2.203125 0.90625q0.796875 0.90625 0.796875 2.34375q0 1.453125 -0.828125 2.34375q-0.8125 0.890625 -2.171875 0.890625q-1.359375 0 -2.1875 -0.875q-0.828125 -0.890625 -0.828125 -2.359375q0 -1.484375 0.8125 -2.359375q0.8125 -0.890625 2.203125 -0.890625zm-1.9375 3.25q0 1.0625 0.546875 1.703125q0.546875 0.640625 1.390625 0.640625q0.828125 0 1.375 -0.640625q0.546875 -0.640625 0.546875 -1.703125q0 -1.0625 -0.546875 -1.703125q-0.53125 -0.65625 -1.390625 -0.65625q-0.828125 0 -1.375 0.640625q-0.546875 0.640625 -0.546875 1.71875zm9.15625 -3.25q1.109375 0 1.609375 0.578125q0.515625 0.5625 0.515625 1.640625l0 4.125l-1.015625 0l0 -4.234375q0 -0.53125 -0.34375 -0.875q-0.328125 -0.34375 -0.9375 -0.34375q-0.859375 0 -1.34375 0.53125q-0.484375 0.53125 -0.484375 1.375l0 3.546875l-1.015625 0l0 -6.203125l0.96875 0l0 0.984375l0.015625 0q0.34375 -0.578125 0.828125 -0.84375q0.5 -0.28125 1.203125 -0.28125zm6.236328 0q1.34375 0 2.078125 0.96875q0.734375 0.953125 0.734375 2.453125l0 0.125l-4.640625 0l0 0.078125q0 0.890625 0.515625 1.4375q0.515625 0.53125 1.421875 0.53125q0.671875 0 1.0625 -0.3125q0.40625 -0.328125 0.53125 -0.90625l1.015625 0q-0.203125 1.03125 -0.90625 1.578125q-0.703125 0.53125 -1.75 0.53125q-0.96875 0 -1.65625 -0.4375q-0.671875 -0.4375 -1.0 -1.21875q-0.3125 -0.796875 -0.3125 -1.625q0 -1.375 0.828125 -2.28125q0.828125 -0.921875 2.078125 -0.921875zm-1.828125 2.640625l3.5625 0q-0.046875 -0.75 -0.546875 -1.25q-0.5 -0.5 -1.25 -0.5q-0.703125 0 -1.203125 0.484375q-0.5 0.46875 -0.5625 1.265625zm7.1171875 -4.359375l0 1.859375l1.234375 0l0 0.90625l-1.234375 0l0 3.875q0 0.46875 0.296875 0.5q0.3125 0.015625 0.65625 0.015625l0.28125 0l0 0.90625l-0.84375 0q-0.84375 0 -1.125 -0.296875q-0.28125 -0.296875 -0.28125 -1.0l0 -4.0l-1.0625 0l0 -0.90625l1.0625 0l0 -1.859375l1.015625 0z" fill-rule="nonzero"/><defs><linearGradient id="p.2" gradientUnits="userSpaceOnUse" gradientTransform="matrix(12.000115839164826 0.0 0.0 12.000115839164826 0.0 0.0)" spreadMethod="pad" x1="8.386689560898974E-10" y1="-2.316771328093216E-4" x2="-4.343946077215273E-5" y2="11.99988416195339"><stop offset="0.0" stop-color="#f5d0d0"/><stop offset="1.0" stop-color="#d96868"/></linearGradient></defs><path fill="url(#p.2)" d="m0 0l768.0 0l0 144.0l-768.0 0z" fill-rule="evenodd"/><path stroke="#000000" stroke-width="1.0" stroke-linejoin="round" stroke-linecap="butt" d="m0 0l768.0 0l0 144.0l-768.0 0z" fill-rule="evenodd"/><path fill="#000000" d="m358.41406 12.9575l3.34375 8.5625l-1.265625 0l-0.9375 -2.578125l-3.625 0l-0.953125 2.578125l-1.171875 0l3.34375 -8.5625l1.265625 0zm-0.671875 1.03125l-1.4375 3.984375l2.890625 0l-1.421875 -3.984375l-0.03125 0zm7.7441406 1.1875q1.328125 0 2.09375 0.921875q0.765625 0.90625 0.765625 2.34375q0 1.4375 -0.765625 2.328125q-0.765625 0.890625 -2.0625 0.890625q-0.578125 0 -1.140625 -0.234375q-0.546875 -0.234375 -0.875 -0.734375l-0.015625 0l0 3.203125l-1.03125 0l0 -8.578125l1.03125 0l0 0.84375l0.015625 0q0.25 -0.484375 0.765625 -0.734375q0.515625 -0.25 1.21875 -0.25zm-2.046875 3.234375q0 1.078125 0.515625 1.71875q0.53125 0.640625 1.453125 0.640625q0.875 0 1.359375 -0.625q0.5 -0.640625 0.5 -1.78125q0 -1.0 -0.515625 -1.640625q-0.515625 -0.65625 -1.421875 -0.65625q-0.890625 0 -1.390625 0.65625q-0.5 0.65625 -0.5 1.6875zm9.160156 -3.234375q1.328125 0 2.09375 0.921875q0.765625 0.90625 0.765625 2.34375q0 1.4375 -0.765625 2.328125q-0.765625 0.890625 -2.0625 0.890625q-0.578125 0 -1.140625 -0.234375q-0.546875 -0.234375 -0.875 -0.734375l-0.015625 0l0 3.203125l-1.03125 0l0 -8.578125l1.03125 0l0 0.84375l0.015625 0q0.25 -0.484375 0.765625 -0.734375q0.515625 -0.25 1.21875 -0.25zm-2.046875 3.234375q0 1.078125 0.515625 1.71875q0.53125 0.640625 1.453125 0.640625q0.875 0 1.359375 -0.625q0.5 -0.640625 0.5 -1.78125q0 -1.0 -0.515625 -1.640625q-0.515625 -0.65625 -1.421875 -0.65625q-0.890625 0 -1.390625 0.65625q-0.5 0.65625 -0.5 1.6875zm7.1757812 -5.453125l0 8.5625l-1.015625 0l0 -8.5625l1.015625 0zm2.6660156 0l0 1.25l-1.015625 0l0 -1.25l1.015625 0zm0 2.359375l0 6.203125l-1.015625 0l0 -6.203125l1.015625 0zm4.1816406 -0.140625q1.140625 0 1.84375 0.546875q0.703125 0.53125 0.828125 1.578125l-1.046875 0q-0.125 -0.59375 -0.53125 -0.90625q-0.390625 -0.328125 -1.0 -0.328125q-0.953125 0 -1.453125 0.640625q-0.484375 0.640625 -0.484375 1.78125q0 1.03125 0.484375 1.65625q0.484375 0.625 1.328125 0.625q0.734375 0 1.15625 -0.40625q0.4375 -0.40625 0.546875 -1.109375l1.046875 0q-0.171875 1.15625 -0.875 1.78125q-0.703125 0.625 -1.875 0.625q-1.34375 0 -2.125 -0.84375q-0.765625 -0.859375 -0.765625 -2.328125q0 -1.515625 0.78125 -2.40625q0.78125 -0.90625 2.140625 -0.90625zm6.3984375 0q1.265625 0 1.78125 0.453125q0.53125 0.453125 0.53125 1.203125q0 3.234375 0 3.59375q0 0.34375 0.328125 0.34375q0.078125 0 0.15625 -0.015625q0.078125 -0.03125 0.15625 -0.046875l0 0.78125q-0.140625 0.09375 -0.328125 0.125q-0.1875 0.046875 -0.40625 0.046875q-0.421875 0 -0.640625 -0.234375q-0.21875 -0.234375 -0.21875 -0.71875q-0.40625 0.484375 -0.953125 0.71875q-0.546875 0.234375 -1.234375 0.234375q-0.953125 0 -1.5 -0.453125q-0.546875 -0.453125 -0.546875 -1.28125q0 -0.84375 0.53125 -1.328125q0.53125 -0.484375 2.5 -0.734375q0.671875 -0.09375 0.90625 -0.25q0.25 -0.171875 0.25 -0.515625q0 -0.515625 -0.34375 -0.765625q-0.328125 -0.265625 -1.046875 -0.265625q-0.75 0 -1.140625 0.296875q-0.375 0.28125 -0.40625 0.890625l-1.015625 0q0.046875 -1.03125 0.71875 -1.546875q0.6875 -0.53125 1.921875 -0.53125zm-1.796875 4.671875q0 0.4375 0.3125 0.6875q0.3125 0.234375 0.890625 0.234375q0.859375 0 1.375 -0.421875q0.515625 -0.4375 0.515625 -0.96875l0 -1.0625q-0.265625 0.171875 -0.671875 0.25q-0.40625 0.0625 -1.09375 0.15625q-0.671875 0.09375 -1.0 0.375q-0.328125 0.265625 -0.328125 0.75zm7.1171875 -6.390625l0 1.859375l1.234375 0l0 0.90625l-1.234375 0l0 3.875q0 0.46875 0.296875 0.5q0.3125 0.015625 0.65625 0.015625l0.28125 0l0 0.90625l-0.84375 0q-0.84375 0 -1.125 -0.296875q-0.28125 -0.296875 -0.28125 -1.0l0 -4.0l-1.0625 0l0 -0.90625l1.0625 0l0 -1.859375l1.015625 0zm3.4355469 -0.5l0 1.25l-1.015625 0l0 -1.25l1.015625 0zm0 2.359375l0 6.203125l-1.015625 0l0 -6.203125l1.015625 0zm4.2753906 -0.140625q1.40625 0 2.203125 0.90625q0.796875 0.90625 0.796875 2.34375q0 1.453125 -0.828125 2.34375q-0.8125 0.890625 -2.171875 0.890625q-1.359375 0 -2.1875 -0.875q-0.828125 -0.890625 -0.828125 -2.359375q0 -1.484375 0.8125 -2.359375q0.8125 -0.890625 2.203125 -0.890625zm-1.9375 3.25q0 1.0625 0.546875 1.703125q0.546875 0.640625 1.390625 0.640625q0.828125 0 1.375 -0.640625q0.546875 -0.640625 0.546875 -1.703125q0 -1.0625 -0.546875 -1.703125q-0.53125 -0.65625 -1.390625 -0.65625q-0.828125 0 -1.375 0.640625q-0.546875 0.640625 -0.546875 1.71875zm9.15625 -3.25q1.109375 0 1.609375 0.578125q0.515625 0.5625 0.515625 1.640625l0 4.125l-1.015625 0l0 -4.234375q0 -0.53125 -0.34375 -0.875q-0.328125 -0.34375 -0.9375 -0.34375q-0.859375 0 -1.34375 0.53125q-0.484375 0.53125 -0.484375 1.375l0 3.546875l-1.015625 0l0 -6.203125l0.96875 0l0 0.984375l0.015625 0q0.34375 -0.578125 0.828125 -0.84375q0.5 -0.28125 1.203125 -0.28125z" fill-rule="nonzero"/><defs><linearGradient id="p.3" gradientUnits="userSpaceOnUse" gradientTransform="matrix(6.926130405833281 0.0 0.0 6.926130405833281 0.0 0.0)" spreadMethod="pad" x1="1.4519269181720488E-9" y1="20.78901371944418" x2="-2.507107276224965E-5" y2="27.71514412523208"><stop offset="0.0" stop-color="#fdecdb"/><stop offset="1.0" stop-color="#f0a963"/></linearGradient></defs><path fill="url(#p.3)" d="m0 143.9902l768.0 0l0 47.968506l-768.0 0z" fill-rule="evenodd"/><path stroke="#000000" stroke-width="1.0" stroke-linejoin="round" stroke-linecap="butt" d="m0 143.9902l768.0 0l0 47.968506l-768.0 0z" fill-rule="evenodd"/><path fill="#000000" d="m342.62793 166.1507q0.640625 0 1.109375 0.28125q0.484375 0.28125 0.75 0.75l0 0l0 -0.890625l0.96875 0l0 5.734375q0 1.46875 -0.703125 2.21875q-0.703125 0.765625 -2.171875 0.765625q-1.0625 0 -1.796875 -0.46875q-0.734375 -0.46875 -0.78125 -1.34375l1.015625 0q0.03125 0.46875 0.515625 0.734375q0.484375 0.265625 1.09375 0.265625q0.90625 0 1.375 -0.59375q0.484375 -0.59375 0.484375 -1.78125l0 -0.390625l-0.015625 0q-0.234375 0.515625 -0.765625 0.828125q-0.515625 0.3125 -1.171875 0.3125q-1.265625 0 -2.015625 -0.875q-0.75 -0.875 -0.75 -2.28125q0 -1.421875 0.75 -2.34375q0.75 -0.921875 2.109375 -0.921875zm-1.78125 3.15625q0 1.09375 0.453125 1.734375q0.46875 0.625 1.296875 0.625q0.84375 0 1.34375 -0.65625q0.5 -0.65625 0.5 -1.75q0 -0.984375 -0.46875 -1.59375q-0.453125 -0.625 -1.3125 -0.625q-0.84375 0 -1.328125 0.625q-0.484375 0.609375 -0.484375 1.640625zm10.390625 -5.375q1.125 0 1.84375 0.59375q0.71875 0.578125 0.71875 1.640625q0 0.84375 -0.375 1.40625q-0.375 0.5625 -1.125 0.765625l0 0.03125q0.65625 0.125 0.953125 0.609375q0.3125 0.46875 0.359375 1.625q0.03125 0.75 0.140625 1.1875q0.109375 0.421875 0.34375 0.703125l-1.28125 0q-0.09375 -0.140625 -0.140625 -0.28125q-0.03125 -0.140625 -0.046875 -0.375l-0.046875 -0.9375q-0.03125 -0.671875 -0.296875 -1.359375q-0.265625 -0.6875 -1.171875 -0.703125l-2.8125 0l0 3.65625l-1.140625 0l0 -8.5625l4.078125 0zm-0.5 3.9375q0.953125 0 1.4375 -0.359375q0.484375 -0.375 0.484375 -1.15625q0 -0.703125 -0.390625 -1.078125q-0.390625 -0.390625 -1.09375 -0.390625l-2.875 0l0 2.984375l2.4375 0zm8.455078 -3.9375q1.171875 0 1.859375 0.640625q0.703125 0.625 0.703125 1.890625q0 1.25 -0.703125 1.890625q-0.6875 0.640625 -1.78125 0.640625l-2.75 0l0 3.5l-1.140625 0l0 -8.5625l3.8125 0zm-0.3125 4.09375q0.8125 0 1.28125 -0.375q0.46875 -0.390625 0.46875 -1.1875q0 -0.796875 -0.46875 -1.1875q-0.46875 -0.390625 -1.359375 -0.390625l-2.28125 0l0 3.140625l2.359375 0zm7.9160156 -4.296875q1.421875 0 2.375 0.734375q0.953125 0.734375 1.140625 2.046875l-1.125 0q-0.1875 -0.890625 -0.828125 -1.359375q-0.640625 -0.46875 -1.578125 -0.46875q-1.359375 0 -2.140625 0.96875q-0.765625 0.953125 -0.765625 2.5q0 1.640625 0.75 2.625q0.765625 0.96875 2.171875 0.96875q1.046875 0 1.71875 -0.671875q0.671875 -0.671875 0.75 -1.8125l1.140625 0q-0.1875 1.671875 -1.15625 2.5625q-0.96875 0.875 -2.546875 0.875q-1.84375 0 -2.90625 -1.21875q-1.0625 -1.21875 -1.0625 -3.25q0 -2.0 1.09375 -3.25q1.09375 -1.25 2.96875 -1.25zm12.71875 0.203125l0 6.46875q0 1.015625 -0.640625 1.65625q-0.640625 0.640625 -1.890625 0.640625q-1.15625 0 -1.828125 -0.609375q-0.671875 -0.609375 -0.671875 -2.109375l0 -0.296875l1.140625 0l0 0.25q0 1.0625 0.34375 1.4375q0.34375 0.375 1.03125 0.375q0.703125 0 1.03125 -0.375q0.34375 -0.375 0.34375 -1.125l0 -6.3125l1.140625 0zm4.2441406 2.21875q1.265625 0 1.78125 0.453125q0.53125 0.453125 0.53125 1.203125q0 3.234375 0 3.59375q0 0.34375 0.328125 0.34375q0.078125 0 0.15625 -0.015625q0.078125 -0.03125 0.15625 -0.046875l0 0.78125q-0.140625 0.09375 -0.328125 0.125q-0.1875 0.046875 -0.40625 0.046875q-0.421875 0 -0.640625 -0.234375q-0.21875 -0.234375 -0.21875 -0.71875q-0.40625 0.484375 -0.953125 0.71875q-0.546875 0.234375 -1.234375 0.234375q-0.953125 0 -1.5 -0.453125q-0.546875 -0.453125 -0.546875 -1.28125q0 -0.84375 0.53125 -1.328125q0.53125 -0.484375 2.5 -0.734375q0.671875 -0.09375 0.90625 -0.25q0.25 -0.171875 0.25 -0.515625q0 -0.515625 -0.34375 -0.765625q-0.328125 -0.265625 -1.046875 -0.265625q-0.75 0 -1.140625 0.296875q-0.375 0.28125 -0.40625 0.890625l-1.015625 0q0.046875 -1.03125 0.71875 -1.546875q0.6875 -0.53125 1.921875 -0.53125zm-1.796875 4.671875q0 0.4375 0.3125 0.6875q0.3125 0.234375 0.890625 0.234375q0.859375 0 1.375 -0.421875q0.515625 -0.4375 0.515625 -0.96875l0 -1.0625q-0.265625 0.171875 -0.671875 0.25q-0.40625 0.0625 -1.09375 0.15625q-0.671875 0.09375 -1.0 0.375q-0.328125 0.265625 -0.328125 0.75zm6.2421875 -4.53125l1.734375 5.171875l0.03125 0l1.6875 -5.171875l1.0625 0l-2.265625 6.203125l-1.09375 0l-2.296875 -6.203125l1.140625 0zm8.0 -0.140625q1.265625 0 1.78125 0.453125q0.53125 0.453125 0.53125 1.203125q0 3.234375 0 3.59375q0 0.34375 0.328125 0.34375q0.078125 0 0.15625 -0.015625q0.078125 -0.03125 0.15625 -0.046875l0 0.78125q-0.140625 0.09375 -0.328125 0.125q-0.1875 0.046875 -0.40625 0.046875q-0.421875 0 -0.640625 -0.234375q-0.21875 -0.234375 -0.21875 -0.71875q-0.40625 0.484375 -0.953125 0.71875q-0.546875 0.234375 -1.234375 0.234375q-0.953125 0 -1.5 -0.453125q-0.546875 -0.453125 -0.546875 -1.28125q0 -0.84375 0.53125 -1.328125q0.53125 -0.484375 2.5 -0.734375q0.671875 -0.09375 0.90625 -0.25q0.25 -0.171875 0.25 -0.515625q0 -0.515625 -0.34375 -0.765625q-0.328125 -0.265625 -1.046875 -0.265625q-0.75 0 -1.140625 0.296875q-0.375 0.28125 -0.40625 0.890625l-1.015625 0q0.046875 -1.03125 0.71875 -1.546875q0.6875 -0.53125 1.921875 -0.53125zm-1.796875 4.671875q0 0.4375 0.3125 0.6875q0.3125 0.234375 0.890625 0.234375q0.859375 0 1.375 -0.421875q0.515625 -0.4375 0.515625 -0.96875l0 -1.0625q-0.265625 0.171875 -0.671875 0.25q-0.40625 0.0625 -1.09375 0.15625q-0.671875 0.09375 -1.0 0.375q-0.328125 0.265625 -0.328125 0.75zm12.841797 -7.09375q1.421875 0 2.375 0.734375q0.953125 0.734375 1.140625 2.046875l-1.125 0q-0.1875 -0.890625 -0.828125 -1.359375q-0.640625 -0.46875 -1.578125 -0.46875q-1.359375 0 -2.140625 0.96875q-0.765625 0.953125 -0.765625 2.5q0 1.640625 0.75 2.625q0.765625 0.96875 2.171875 0.96875q1.046875 0 1.71875 -0.671875q0.671875 -0.671875 0.75 -1.8125l1.140625 0q-0.1875 1.671875 -1.15625 2.5625q-0.96875 0.875 -2.546875 0.875q-1.84375 0 -2.90625 -1.21875q-1.0625 -1.21875 -1.0625 -3.25q0 -2.0 1.09375 -3.25q1.09375 -1.25 2.96875 -1.25zm7.5410156 2.421875q1.40625 0 2.203125 0.90625q0.796875 0.90625 0.796875 2.34375q0 1.453125 -0.828125 2.34375q-0.8125 0.890625 -2.171875 0.890625q-1.359375 0 -2.1875 -0.875q-0.828125 -0.890625 -0.828125 -2.359375q0 -1.484375 0.8125 -2.359375q0.8125 -0.890625 2.203125 -0.890625zm-1.9375 3.25q0 1.0625 0.546875 1.703125q0.546875 0.640625 1.390625 0.640625q0.828125 0 1.375 -0.640625q0.546875 -0.640625 0.546875 -1.703125q0 -1.0625 -0.546875 -1.703125q-0.53125 -0.65625 -1.390625 -0.65625q-0.828125 0 -1.375 0.640625q-0.546875 0.640625 -0.546875 1.71875zm9.234375 -3.265625q0.03125 0 0.0625 0q0.03125 0 0.078125 0.015625l0 1.078125q-1.15625 0 -1.703125 0.609375q-0.546875 0.609375 -0.546875 1.875l0 2.78125l-1.015625 0l0 -6.203125l0.953125 0l0 1.296875l0.03125 0q0.359375 -0.734375 0.875 -1.09375q0.53125 -0.359375 1.265625 -0.359375zm3.4804688 0.015625q1.34375 0 2.078125 0.96875q0.734375 0.953125 0.734375 2.453125l0 0.125l-4.640625 0l0 0.078125q0 0.890625 0.515625 1.4375q0.515625 0.53125 1.421875 0.53125q0.671875 0 1.0625 -0.3125q0.40625 -0.328125 0.53125 -0.90625l1.015625 0q-0.203125 1.03125 -0.90625 1.578125q-0.703125 0.53125 -1.75 0.53125q-0.96875 0 -1.65625 -0.4375q-0.671875 -0.4375 -1.0 -1.21875q-0.3125 -0.796875 -0.3125 -1.625q0 -1.375 0.828125 -2.28125q0.828125 -0.921875 2.078125 -0.921875zm-1.828125 2.640625l3.5625 0q-0.046875 -0.75 -0.546875 -1.25q-0.5 -0.5 -1.25 -0.5q-0.703125 0 -1.203125 0.484375q-0.5 0.46875 -0.5625 1.265625z" fill-rule="nonzero"/><defs><linearGradient id="p.4" gradientUnits="userSpaceOnUse" gradientTransform="matrix(12.000072622577655 0.0 0.0 12.000072622577655 0.0 0.0)" spreadMethod="pad" x1="3.565685414728225E-6" y1="15.99866431916532" x2="-3.987445775228539E-5" y2="27.998736941664347"><stop offset="0.0" stop-color="#dcecd5"/><stop offset="1.0" stop-color="#93bc81"/></linearGradient></defs><path fill="url(#p.4)" d="m4.278215E-5 191.98688l480.0 0l0 144.0l-480.0 0z" fill-rule="evenodd"/><path stroke="#000000" stroke-width="1.0" stroke-linejoin="round" stroke-linecap="butt" d="m4.278215E-5 191.98688l480.0 0l0 144.0l-480.0 0z" fill-rule="evenodd"/><path fill="#000000" d="m221.63188 245.94438l0 3.671875l4.515625 0l0 -3.671875l1.140625 0l0 8.5625l-1.140625 0l0 -3.921875l-4.515625 0l0 3.921875l-1.140625 0l0 -8.5625l1.140625 0zm13.462891 0l0 0.953125l-2.859375 0l0 7.609375l-1.125 0l0 -7.609375l-2.859375 0l0 -0.953125l6.84375 0zm6.890625 0l0 0.953125l-2.859375 0l0 7.609375l-1.125 0l0 -7.609375l-2.859375 0l0 -0.953125l6.84375 0zm4.765625 0q1.171875 0 1.859375 0.640625q0.703125 0.625 0.703125 1.890625q0 1.25 -0.703125 1.890625q-0.6875 0.640625 -1.78125 0.640625l-2.75 0l0 3.5l-1.140625 0l0 -8.5625l3.8125 0zm-0.3125 4.09375q0.8125 0 1.28125 -0.375q0.46875 -0.390625 0.46875 -1.1875q0 -0.796875 -0.46875 -1.1875q-0.46875 -0.390625 -1.359375 -0.390625l-2.28125 0l0 3.140625l2.359375 0zm7.5566406 -4.296875l-3.5625 8.96875l-0.875 0l3.546875 -8.96875l0.890625 0zm3.0429535 0.25q1.171875 0 1.921875 0.671875q0.75 0.671875 0.75 1.78125q0 0.875 -0.5 1.59375q-0.484375 0.703125 -2.078125 1.625q-0.984375 0.5625 -1.3906097 1.015625q-0.40625 0.4375 -0.484375 0.921875l4.3593597 0l0 0.90625l-5.5624847 0q0.09375 -1.0625 0.546875 -1.859375q0.46875 -0.796875 1.7343597 -1.546875q1.484375 -0.90625 1.875 -1.421875q0.40625 -0.515625 0.40625 -1.234375q0 -0.671875 -0.46875 -1.109375q-0.46875 -0.4375 -1.171875 -0.4375q-0.765625 0 -1.2187347 0.578125q-0.4375 0.5625 -0.4375 1.453125l0 0.078125l-1.015625 0l-0.015625 -0.203125q0 -1.265625 0.75 -2.03125q0.75 -0.78125 1.9999847 -0.78125z" fill-rule="nonzero"/><defs><linearGradient id="p.5" gradientUnits="userSpaceOnUse" gradientTransform="matrix(7.065522516571557 0.0 0.0 7.065522516571557 0.0 0.0)" spreadMethod="pad" x1="81.5233760833488" y1="40.488232382182694" x2="81.52334706178769" y2="47.55375489869464"><stop offset="0.0" stop-color="#dcecd5"/><stop offset="1.0" stop-color="#93bc81"/></linearGradient></defs><path fill="url(#p.5)" d="m576.00525 286.07086l96.0 0l0 49.921265l-96.0 0z" fill-rule="evenodd"/><path stroke="#000000" stroke-width="1.0" stroke-linejoin="round" stroke-linecap="butt" d="m576.00525 286.07086l96.0 0l0 49.921265l-96.0 0z" fill-rule="evenodd"/><path fill="#000000" d="m606.7953 306.78586q1.25 0 2.171875 0.578125q0.9375 0.5625 1.4375 1.609375q0.5 1.046875 0.5 2.296875q0 0.953125 -0.328125 1.84375q-0.3125 0.890625 -0.984375 1.5625l1.140625 0.90625l-0.578125 0.71875l-1.3125 -1.0625q-0.421875 0.265625 -0.9375 0.390625q-0.515625 0.125 -1.109375 0.125q-1.234375 0 -2.171875 -0.578125q-0.921875 -0.578125 -1.4375 -1.609375q-0.5 -1.046875 -0.5 -2.296875q0 -1.953125 1.125 -3.21875q1.125 -1.265625 2.984375 -1.265625zm-2.96875 4.484375q0 0.953125 0.34375 1.78125q0.359375 0.828125 1.03125 1.296875q0.671875 0.453125 1.59375 0.453125q0.3125 0 0.609375 -0.0625q0.296875 -0.0625 0.578125 -0.1875l-0.953125 -0.75l0.609375 -0.703125l1.140625 0.921875q0.46875 -0.484375 0.71875 -1.1875q0.265625 -0.71875 0.265625 -1.5625q0 -1.53125 -0.796875 -2.53125q-0.78125 -1.0 -2.1875 -1.0q-1.375 0 -2.171875 1.015625q-0.78125 1.0 -0.78125 2.515625zm9.5546875 -4.28125l0 5.515625q0 1.046875 0.59375 1.671875q0.609375 0.625 1.78125 0.625q1.109375 0 1.671875 -0.625q0.5625 -0.625 0.5625 -1.671875l0 -5.515625l1.140625 0l0 5.53125q0 1.5 -0.859375 2.375q-0.84375 0.859375 -2.515625 0.859375q-1.75 0 -2.640625 -0.84375q-0.875 -0.84375 -0.875 -2.390625l0 -5.53125l1.140625 0zm8.759766 0l0 8.5625l-1.140625 0l0 -8.5625l1.140625 0zm5.5585938 -0.203125q1.421875 0 2.375 0.734375q0.953125 0.734375 1.140625 2.046875l-1.125 0q-0.1875 -0.890625 -0.828125 -1.359375q-0.640625 -0.46875 -1.578125 -0.46875q-1.359375 0 -2.140625 0.96875q-0.765625 0.953125 -0.765625 2.5q0 1.640625 0.75 2.625q0.765625 0.96875 2.171875 0.96875q1.046875 0 1.71875 -0.671875q0.671875 -0.671875 0.75 -1.8125l1.140625 0q-0.1875 1.671875 -1.15625 2.5625q-0.96875 0.875 -2.546875 0.875q-1.84375 0 -2.90625 -1.21875q-1.0625 -1.21875 -1.0625 -3.25q0 -2.0 1.09375 -3.25q1.09375 -1.25 2.96875 -1.25z" fill-rule="nonzero"/><path fill="#333333" d="m642.8402 311.27023q0 0.3125 -0.015625 1.375q-0.015625 1.0625 -0.078125 1.296875q-0.046875 0.234375 -0.203125 0.46875q-0.15625 0.234375 -0.375 0.390625q-0.5 0.390625 -1.078125 0.625q-0.5625 0.21875 -1.140625 0.21875q-0.28125 0 -0.53125 -0.09375q-0.234375 -0.09375 -0.4375 -0.3125q-0.1875 -0.234375 -0.5 -0.984375q-0.296875 -0.75 -0.40625 -1.15625q-0.0625 -0.140625 -0.0625 -0.25q0 -0.34375 0.34375 -0.6875q-0.234375 -0.40625 -0.375 -0.828125q-0.140625 -0.421875 -0.140625 -0.890625q0 -0.765625 0.375 -1.359375q0.390625 -0.59375 1.09375 -0.921875q0.703125 -0.34375 1.296875 -0.34375q0.46875 0 0.828125 0.25q0.359375 0.234375 0.578125 0.734375q0.21875 0.484375 0.21875 0.96875q0 0.40625 -0.03125 0.828125q0.28125 0.0625 0.453125 0.25q0.1875 0.1875 0.1875 0.421875zm-4.28125 1.234375q-0.171875 0.203125 -0.171875 0.359375q0 0.1875 0.203125 0.296875q0.203125 0.109375 0.46875 0.109375q0.296875 0 0.703125 -0.125q0.03125 0 0.375 -0.15625q0.34375 -0.15625 0.734375 -0.375q0.40625 -0.21875 0.828125 -0.484375q0.421875 -0.265625 0.59375 -0.453125q0.1875 -0.203125 0.1875 -0.359375q0 -0.265625 -0.3125 -0.34375q-0.015625 0.296875 -0.0625 0.46875q-0.046875 0.171875 -0.296875 0.265625q-0.046875 0.03125 -0.140625 0.03125q-0.109375 0 -0.21875 -0.046875q-0.109375 -0.046875 -0.140625 -0.140625q-0.03125 -0.09375 -0.03125 -0.328125l0.015625 -0.1875q-0.75 0.203125 -1.90625 0.859375q0.15625 0.328125 0.265625 0.484375q0.03125 0.0625 0.03125 0.171875q0 0.1875 -0.1875 0.3125q-0.171875 0.109375 -0.34375 0.109375q-0.140625 0 -0.28125 -0.09375q-0.125 -0.09375 -0.3125 -0.375zm0.484375 -1.953125q0 0.4375 0.203125 0.984375q1.171875 -0.65625 2.046875 -0.890625q0 -0.875 -0.203125 -1.234375q-0.203125 -0.359375 -0.578125 -0.359375q-0.296875 0 -0.6875 0.203125q-0.390625 0.203125 -0.59375 0.53125q-0.1875 0.328125 -0.1875 0.765625zm2.40625 3.453125q0.171875 -0.125 0.265625 -0.28125q0.109375 -0.15625 0.109375 -0.296875q0 -0.15625 -0.109375 -0.234375q-0.09375 -0.078125 -0.234375 -0.078125q-0.203125 0 -0.40625 0.125q-0.203125 0.109375 -0.328125 0.296875q-0.125 0.171875 -0.125 0.328125q0 0.140625 0.09375 0.21875q0.109375 0.078125 0.25 0.078125q0.109375 0 0.21875 -0.03125l-0.03125 0.515625l0.453125 -0.234375l-0.15625 -0.40625z" fill-rule="nonzero"/><defs><linearGradient id="p.6" gradientUnits="userSpaceOnUse" gradientTransform="matrix(15.49194397374115 0.0 0.0 15.49194397374115 0.0 0.0)" spreadMethod="pad" x1="43.377828560626824" y1="12.39267259759953" x2="43.37777296912237" y2="27.884616571240937"><stop offset="0.0" stop-color="#dfe9fb"/><stop offset="1.0" stop-color="#6e9be7"/></linearGradient></defs><path fill="url(#p.6)" d="m672.0069 191.98694l96.0 0l0 240.0l-96.0 0z" fill-rule="evenodd"/><path stroke="#000000" stroke-width="1.0" stroke-linejoin="round" stroke-linecap="butt" d="m672.0069 191.98694l96.0 0l0 240.0l-96.0 0z" fill-rule="evenodd"/><path fill="#000000" d="m693.7989 307.94443l0 8.5625l-1.140625 0l0 -8.5625l1.140625 0zm4.7617188 2.21875q1.109375 0 1.609375 0.578125q0.515625 0.5625 0.515625 1.640625l0 4.125l-1.015625 0l0 -4.234375q0 -0.53125 -0.34375 -0.875q-0.328125 -0.34375 -0.9375 -0.34375q-0.859375 0 -1.34375 0.53125q-0.484375 0.53125 -0.484375 1.375l0 3.546875l-1.015625 0l0 -6.203125l0.96875 0l0 0.984375l0.015625 0q0.34375 -0.578125 0.828125 -0.84375q0.5 -0.28125 1.203125 -0.28125zm10.9765625 -2.21875q1.171875 0 1.859375 0.640625q0.703125 0.625 0.703125 1.890625q0 1.25 -0.703125 1.890625q-0.6875 0.640625 -1.78125 0.640625l-2.75 0l0 3.5l-1.140625 0l0 -8.5625l3.8125 0zm-0.3125 4.09375q0.8125 0 1.28125 -0.375q0.46875 -0.390625 0.46875 -1.1875q0 -0.796875 -0.46875 -1.1875q-0.46875 -0.390625 -1.359375 -0.390625l-2.28125 0l0 3.140625l2.359375 0zm7.1972656 -1.890625q0.03125 0 0.0625 0q0.03125 0 0.078125 0.015625l0 1.078125q-1.15625 0 -1.703125 0.609375q-0.546875 0.609375 -0.546875 1.875l0 2.78125l-1.015625 0l0 -6.203125l0.953125 0l0 1.296875l0.03125 0q0.359375 -0.734375 0.875 -1.09375q0.53125 -0.359375 1.265625 -0.359375zm3.5898438 0.015625q1.40625 0 2.203125 0.90625q0.796875 0.90625 0.796875 2.34375q0 1.453125 -0.828125 2.34375q-0.8125 0.890625 -2.171875 0.890625q-1.359375 0 -2.1875 -0.875q-0.828125 -0.890625 -0.828125 -2.359375q0 -1.484375 0.8125 -2.359375q0.8125 -0.890625 2.203125 -0.890625zm-1.9375 3.25q0 1.0625 0.546875 1.703125q0.546875 0.640625 1.390625 0.640625q0.828125 0 1.375 -0.640625q0.546875 -0.640625 0.546875 -1.703125q0 -1.0625 -0.546875 -1.703125q-0.53125 -0.65625 -1.390625 -0.65625q-0.828125 0 -1.375 0.640625q-0.546875 0.640625 -0.546875 1.71875zm8.734375 -3.25q1.140625 0 1.84375 0.546875q0.703125 0.53125 0.828125 1.578125l-1.046875 0q-0.125 -0.59375 -0.53125 -0.90625q-0.390625 -0.328125 -1.0 -0.328125q-0.953125 0 -1.453125 0.640625q-0.484375 0.640625 -0.484375 1.78125q0 1.03125 0.484375 1.65625q0.484375 0.625 1.328125 0.625q0.734375 0 1.15625 -0.40625q0.4375 -0.40625 0.546875 -1.109375l1.046875 0q-0.171875 1.15625 -0.875 1.78125q-0.703125 0.625 -1.875 0.625q-1.34375 0 -2.125 -0.84375q-0.765625 -0.859375 -0.765625 -2.328125q0 -1.515625 0.78125 -2.40625q0.78125 -0.90625 2.140625 -0.90625zm6.4296875 0q1.34375 0 2.078125 0.96875q0.734375 0.953125 0.734375 2.453125l0 0.125l-4.640625 0l0 0.078125q0 0.890625 0.515625 1.4375q0.515625 0.53125 1.421875 0.53125q0.671875 0 1.0625 -0.3125q0.40625 -0.328125 0.53125 -0.90625l1.015625 0q-0.203125 1.03125 -0.90625 1.578125q-0.703125 0.53125 -1.75 0.53125q-0.96875 0 -1.65625 -0.4375q-0.671875 -0.4375 -1.0 -1.21875q-0.3125 -0.796875 -0.3125 -1.625q0 -1.375 0.828125 -2.28125q0.828125 -0.921875 2.078125 -0.921875zm-1.828125 2.640625l3.5625 0q-0.046875 -0.75 -0.546875 -1.25q-0.5 -0.5 -1.25 -0.5q-0.703125 0 -1.203125 0.484375q-0.5 0.46875 -0.5625 1.265625zm7.7578125 -2.640625q1.25 0 1.859375 0.484375q0.609375 0.484375 0.671875 1.453125l-1.015625 0l0 -0.015625q-0.046875 -0.484375 -0.4375 -0.75q-0.390625 -0.28125 -1.0 -0.28125q-0.609375 0 -0.96875 0.21875q-0.359375 0.203125 -0.359375 0.578125q0 0.34375 0.3125 0.5625q0.3125 0.203125 0.953125 0.34375l0.953125 0.21875q0.90625 0.203125 1.375 0.609375q0.46875 0.40625 0.46875 1.109375q0 0.921875 -0.71875 1.4375q-0.703125 0.515625 -1.921875 0.515625q-1.1875 0 -1.890625 -0.53125q-0.6875 -0.53125 -0.734375 -1.5625l1.015625 0q0.015625 0.578125 0.453125 0.890625q0.453125 0.3125 1.21875 0.3125q0.734375 0 1.109375 -0.234375q0.390625 -0.234375 0.390625 -0.703125q0 -0.40625 -0.390625 -0.640625q-0.375 -0.25 -1.546875 -0.484375q-1.171875 -0.234375 -1.65625 -0.65625q-0.46875 -0.421875 -0.46875 -1.109375q0 -0.8125 0.65625 -1.28125q0.671875 -0.484375 1.671875 -0.484375zm6.0 0q1.25 0 1.859375 0.484375q0.609375 0.484375 0.671875 1.453125l-1.015625 0l0 -0.015625q-0.046875 -0.484375 -0.4375 -0.75q-0.390625 -0.28125 -1.0 -0.28125q-0.609375 0 -0.96875 0.21875q-0.359375 0.203125 -0.359375 0.578125q0 0.34375 0.3125 0.5625q0.3125 0.203125 0.953125 0.34375l0.953125 0.21875q0.90625 0.203125 1.375 0.609375q0.46875 0.40625 0.46875 1.109375q0 0.921875 -0.71875 1.4375q-0.703125 0.515625 -1.921875 0.515625q-1.1875 0 -1.890625 -0.53125q-0.6875 -0.53125 -0.734375 -1.5625l1.015625 0q0.015625 0.578125 0.453125 0.890625q0.453125 0.3125 1.21875 0.3125q0.734375 0 1.109375 -0.234375q0.390625 -0.234375 0.390625 -0.703125q0 -0.40625 -0.390625 -0.640625q-0.375 -0.25 -1.546875 -0.484375q-1.171875 -0.234375 -1.65625 -0.65625q-0.46875 -0.421875 -0.46875 -1.109375q0 -0.8125 0.65625 -1.28125q0.671875 -0.484375 1.671875 -0.484375z" fill-rule="nonzero"/><defs><linearGradient id="p.7" gradientUnits="userSpaceOnUse" gradientTransform="matrix(6.925980155600075 0.0 0.0 6.925980155600075 0.0 0.0)" spreadMethod="pad" x1="41.58142522995721" y1="41.58246144968483" x2="41.58140154493486" y2="48.50844160524441"><stop offset="0.0" stop-color="#dcecd5"/><stop offset="1.0" stop-color="#93bc81"/></linearGradient></defs><path fill="url(#p.7)" d="m287.99213 288.0l192.0 0l0 47.968506l-192.0 0z" fill-rule="evenodd"/><path stroke="#000000" stroke-width="1.0" stroke-linejoin="round" stroke-linecap="butt" d="m287.99213 288.0l192.0 0l0 47.968506l-192.0 0z" fill-rule="evenodd"/><path fill="#000000" d="m360.09174 307.94174l0 0.953125l-2.859375 0l0 7.609375l-1.125 0l0 -7.609375l-2.859375 0l0 -0.953125l6.84375 0zm2.09375 0l0 7.59375l4.53125 0l0 0.96875l-5.671875 0l0 -8.5625l1.140625 0zm8.408203 -0.203125q1.4375 0 2.265625 0.6875q0.84375 0.6875 0.890625 2.015625l-1.078125 0q-0.09375 -0.875 -0.625 -1.3125q-0.53125 -0.4375 -1.5 -0.4375q-0.90625 0 -1.421875 0.375q-0.5 0.375 -0.5 1.078125q0 0.515625 0.421875 0.84375q0.4375 0.3125 2.328125 0.6875q1.375 0.28125 2.046875 0.875q0.6875 0.578125 0.6875 1.609375q0 1.1875 -0.984375 1.875q-0.96875 0.671875 -2.359375 0.671875q-1.5625 0 -2.546875 -0.78125q-0.984375 -0.78125 -0.984375 -2.234375l1.078125 0q0 0.96875 0.6875 1.515625q0.6875 0.546875 1.796875 0.546875q1.046875 0 1.609375 -0.40625q0.5625 -0.40625 0.5625 -1.15625q0 -0.609375 -0.515625 -0.96875q-0.515625 -0.375 -1.890625 -0.640625q-1.828125 -0.34375 -2.453125 -0.890625q-0.625 -0.5625 -0.625 -1.453125q0 -1.15625 0.875 -1.828125q0.890625 -0.671875 2.234375 -0.671875zm8.181641 0l-3.5625 8.96875l-0.875 0l3.546875 -8.96875l0.890625 0zm3.5898438 0q1.4375 0 2.265625 0.6875q0.84375 0.6875 0.890625 2.015625l-1.078125 0q-0.09375 -0.875 -0.625 -1.3125q-0.53125 -0.4375 -1.5 -0.4375q-0.90625 0 -1.421875 0.375q-0.5 0.375 -0.5 1.078125q0 0.515625 0.421875 0.84375q0.4375 0.3125 2.328125 0.6875q1.375 0.28125 2.046875 0.875q0.6875 0.578125 0.6875 1.609375q0 1.1875 -0.984375 1.875q-0.96875 0.671875 -2.359375 0.671875q-1.5625 0 -2.546875 -0.78125q-0.984375 -0.78125 -0.984375 -2.234375l1.078125 0q0 0.96875 0.6875 1.515625q0.6875 0.546875 1.796875 0.546875q1.046875 0 1.609375 -0.40625q0.5625 -0.40625 0.5625 -1.15625q0 -0.609375 -0.515625 -0.96875q-0.515625 -0.375 -1.890625 -0.640625q-1.828125 -0.34375 -2.453125 -0.890625q-0.625 -0.5625 -0.625 -1.453125q0 -1.15625 0.875 -1.828125q0.890625 -0.671875 2.234375 -0.671875zm7.7753906 0q1.4375 0 2.265625 0.6875q0.84375 0.6875 0.890625 2.015625l-1.078125 0q-0.09375 -0.875 -0.625 -1.3125q-0.53125 -0.4375 -1.5 -0.4375q-0.90625 0 -1.421875 0.375q-0.5 0.375 -0.5 1.078125q0 0.515625 0.421875 0.84375q0.4375 0.3125 2.328125 0.6875q1.375 0.28125 2.046875 0.875q0.6875 0.578125 0.6875 1.609375q0 1.1875 -0.984375 1.875q-0.96875 0.671875 -2.359375 0.671875q-1.5625 0 -2.546875 -0.78125q-0.984375 -0.78125 -0.984375 -2.234375l1.078125 0q0 0.96875 0.6875 1.515625q0.6875 0.546875 1.796875 0.546875q1.046875 0 1.609375 -0.40625q0.5625 -0.40625 0.5625 -1.15625q0 -0.609375 -0.515625 -0.96875q-0.515625 -0.375 -1.890625 -0.640625q-1.828125 -0.34375 -2.453125 -0.890625q-0.625 -0.5625 -0.625 -1.453125q0 -1.15625 0.875 -1.828125q0.890625 -0.671875 2.234375 -0.671875zm6.0410156 0.203125l0 7.59375l4.53125 0l0 0.96875l-5.671875 0l0 -8.5625l1.140625 0z" fill-rule="nonzero"/><path fill="#333333" d="m411.83002 312.223q0 0.3125 -0.015625 1.375q-0.015625 1.0625 -0.078125 1.296875q-0.046875 0.234375 -0.203125 0.46875q-0.15625 0.234375 -0.375 0.390625q-0.5 0.390625 -1.078125 0.625q-0.5625 0.21875 -1.140625 0.21875q-0.28125 0 -0.53125 -0.09375q-0.234375 -0.09375 -0.4375 -0.3125q-0.1875 -0.234375 -0.5 -0.984375q-0.296875 -0.75 -0.40625 -1.15625q-0.0625 -0.140625 -0.0625 -0.25q0 -0.34375 0.34375 -0.6875q-0.234375 -0.40625 -0.375 -0.828125q-0.140625 -0.421875 -0.140625 -0.890625q0 -0.765625 0.375 -1.359375q0.390625 -0.59375 1.09375 -0.921875q0.703125 -0.34375 1.296875 -0.34375q0.46875 0 0.828125 0.25q0.359375 0.234375 0.578125 0.734375q0.21875 0.484375 0.21875 0.96875q0 0.40625 -0.03125 0.828125q0.28125 0.0625 0.453125 0.25q0.1875 0.1875 0.1875 0.421875zm-4.28125 1.234375q-0.171875 0.203125 -0.171875 0.359375q0 0.1875 0.203125 0.296875q0.203125 0.109375 0.46875 0.109375q0.296875 0 0.703125 -0.125q0.03125 0 0.375 -0.15625q0.34375 -0.15625 0.734375 -0.375q0.40625 -0.21875 0.828125 -0.484375q0.421875 -0.265625 0.59375 -0.453125q0.1875 -0.203125 0.1875 -0.359375q0 -0.265625 -0.3125 -0.34375q-0.015625 0.296875 -0.0625 0.46875q-0.046875 0.171875 -0.296875 0.265625q-0.046875 0.03125 -0.140625 0.03125q-0.109375 0 -0.21875 -0.046875q-0.109375 -0.046875 -0.140625 -0.140625q-0.03125 -0.09375 -0.03125 -0.328125l0.015625 -0.1875q-0.75 0.203125 -1.90625 0.859375q0.15625 0.328125 0.265625 0.484375q0.03125 0.0625 0.03125 0.171875q0 0.1875 -0.1875 0.3125q-0.171875 0.109375 -0.34375 0.109375q-0.140625 0 -0.28125 -0.09375q-0.125 -0.09375 -0.3125 -0.375zm0.484375 -1.953125q0 0.4375 0.203125 0.984375q1.171875 -0.65625 2.046875 -0.890625q0 -0.875 -0.203125 -1.234375q-0.203125 -0.359375 -0.578125 -0.359375q-0.296875 0 -0.6875 0.203125q-0.390625 0.203125 -0.59375 0.53125q-0.1875 0.328125 -0.1875 0.765625zm2.40625 3.453125q0.171875 -0.125 0.265625 -0.28125q0.109375 -0.15625 0.109375 -0.296875q0 -0.15625 -0.109375 -0.234375q-0.09375 -0.078125 -0.234375 -0.078125q-0.203125 0 -0.40625 0.125q-0.203125 0.109375 -0.328125 0.296875q-0.125 0.171875 -0.125 0.328125q0 0.140625 0.09375 0.21875q0.109375 0.078125 0.25 0.078125q0.109375 0 0.21875 -0.03125l-0.03125 0.515625l0.453125 -0.234375l-0.15625 -0.40625z" fill-rule="nonzero"/><defs><linearGradient id="p.8" gradientUnits="userSpaceOnUse" gradientTransform="matrix(9.799584948257225 0.0 0.0 9.799584948257225 0.0 0.0)" spreadMethod="pad" x1="-3.347924233796989E-5" y1="34.28479775742885" x2="-6.89536398241056E-5" y2="44.08438270562186"><stop offset="0.0" stop-color="#dfe9fb"/><stop offset="1.0" stop-color="#6e9be7"/></linearGradient></defs><path fill="url(#p.8)" d="m-3.28084E-4 335.97714l96.0 0l0 96.031494l-96.0 0z" fill-rule="evenodd"/><path stroke="#000000" stroke-width="1.0" stroke-linejoin="round" stroke-linecap="butt" d="m-3.28084E-4 335.97714l96.0 0l0 96.031494l-96.0 0z" fill-rule="evenodd"/><path fill="#000000" d="m15.571938 372.95038l0 5.515625q0 1.046875 0.59375 1.671875q0.609375 0.625 1.78125 0.625q1.109375 0 1.671875 -0.625q0.5625 -0.625 0.5625 -1.671875l0 -5.515625l1.140625 0l0 5.53125q0 1.5 -0.859375 2.375q-0.84375 0.859375 -2.515625 0.859375q-1.75 0 -2.640625 -0.84375q-0.875 -0.84375 -0.875 -2.390625l0 -5.53125l1.140625 0zm10.416016 2.21875q1.109375 0 1.609375 0.578125q0.515625 0.5625 0.515625 1.640625l0 4.125l-1.015625 0l0 -4.234375q0 -0.53125 -0.34375 -0.875q-0.328125 -0.34375 -0.9375 -0.34375q-0.859375 0 -1.34375 0.53125q-0.484375 0.53125 -0.484375 1.375l0 3.546875l-1.015625 0l0 -6.203125l0.96875 0l0 0.984375l0.015625 0q0.34375 -0.578125 0.828125 -0.84375q0.5 -0.28125 1.203125 -0.28125zm4.736328 -2.21875l0 1.25l-1.015625 0l0 -1.25l1.015625 0zm0 2.359375l0 6.203125l-1.015625 0l0 -6.203125l1.015625 0zm2.4003906 0l1.484375 2.15625l0.015625 0l1.546875 -2.15625l1.21875 0l-2.140625 2.859375l2.40625 3.34375l-1.3125 0l-1.71875 -2.5625l-1.734375 2.5625l-1.234375 0l2.328125 -3.265625l-2.15625 -2.9375l1.296875 0zm11.910156 -2.359375q1.953125 0 3.0 1.03125q1.0625 1.03125 1.0625 3.046875q0 2.265625 -1.046875 3.375q-1.046875 1.109375 -3.015625 1.109375l-3.0 0l0 -8.5625l3.0 0zm0.078125 7.59375q1.28125 0 2.046875 -0.828125q0.78125 -0.84375 0.78125 -2.53125q0 -1.703125 -0.703125 -2.484375q-0.703125 -0.796875 -2.078125 -0.796875l-1.984375 0l0 6.640625l1.9375 0zm7.8867188 -5.375q1.40625 0 2.203125 0.90625q0.796875 0.90625 0.796875 2.34375q0 1.453125 -0.828125 2.34375q-0.8125 0.890625 -2.171875 0.890625q-1.359375 0 -2.1875 -0.875q-0.828125 -0.890625 -0.828125 -2.359375q0 -1.484375 0.8125 -2.359375q0.8125 -0.890625 2.203125 -0.890625zm-1.9375 3.25q0 1.0625 0.546875 1.703125q0.546875 0.640625 1.390625 0.640625q0.828125 0 1.375 -0.640625q0.546875 -0.640625 0.546875 -1.703125q0 -1.0625 -0.546875 -1.703125q-0.53125 -0.65625 -1.390625 -0.65625q-0.828125 0 -1.375 0.640625q-0.546875 0.640625 -0.546875 1.71875zm9.125 -3.25q0.6875 0 1.109375 0.28125q0.4375 0.265625 0.609375 0.765625q0.3125 -0.5 0.8125 -0.765625q0.515625 -0.28125 1.125 -0.28125q1.0625 0 1.5625 0.484375q0.5 0.46875 0.5 1.265625l0 4.59375l-1.015625 0l0 -4.109375q0 -0.671875 -0.296875 -1.0q-0.28125 -0.34375 -0.90625 -0.34375q-0.765625 0 -1.203125 0.453125q-0.421875 0.4375 -0.421875 1.109375l0 3.890625l-1.015625 0l0 -4.109375q0 -0.671875 -0.28125 -1.0q-0.28125 -0.34375 -0.875 -0.34375q-0.5 0 -0.875 0.234375q-0.375 0.234375 -0.59375 0.640625q-0.203125 0.40625 -0.203125 0.6875l0 3.890625l-1.015625 0l0 -6.203125l0.96875 0l0 0.90625l0.015625 0q0.359375 -0.53125 0.84375 -0.78125q0.5 -0.265625 1.15625 -0.265625zm9.798828 0q1.265625 0 1.78125 0.453125q0.53125 0.453125 0.53125 1.203125q0 3.234375 0 3.59375q0 0.34375 0.328125 0.34375q0.078125 0 0.15625 -0.015625q0.078125 -0.03125 0.15625 -0.046875l0 0.78125q-0.140625 0.09375 -0.328125 0.125q-0.1875 0.046875 -0.40625 0.046875q-0.421875 0 -0.640625 -0.234375q-0.21875 -0.234375 -0.21875 -0.71875q-0.40625 0.484375 -0.953125 0.71875q-0.546875 0.234375 -1.234375 0.234375q-0.953125 0 -1.5 -0.453125q-0.546875 -0.453125 -0.546875 -1.28125q0 -0.84375 0.53125 -1.328125q0.53125 -0.484375 2.5 -0.734375q0.671875 -0.09375 0.90625 -0.25q0.25 -0.171875 0.25 -0.515625q0 -0.515625 -0.34375 -0.765625q-0.328125 -0.265625 -1.046875 -0.265625q-0.75 0 -1.140625 0.296875q-0.375 0.28125 -0.40625 0.890625l-1.015625 0q0.046875 -1.03125 0.71875 -1.546875q0.6875 -0.53125 1.921875 -0.53125zm-1.796875 4.671875q0 0.4375 0.3125 0.6875q0.3125 0.234375 0.890625 0.234375q0.859375 0 1.375 -0.421875q0.515625 -0.4375 0.515625 -0.96875l0 -1.0625q-0.265625 0.171875 -0.671875 0.25q-0.40625 0.0625 -1.09375 0.15625q-0.671875 0.09375 -1.0 0.375q-0.328125 0.265625 -0.328125 0.75zm6.7734375 -6.890625l0 1.25l-1.015625 0l0 -1.25l1.015625 0zm0 2.359375l0 6.203125l-1.015625 0l0 -6.203125l1.015625 0zm4.6035156 -0.140625q1.109375 0 1.609375 0.578125q0.515625 0.5625 0.515625 1.640625l0 4.125l-1.015625 0l0 -4.234375q0 -0.53125 -0.34375 -0.875q-0.328125 -0.34375 -0.9375 -0.34375q-0.859375 0 -1.34375 0.53125q-0.484375 0.53125 -0.484375 1.375l0 3.546875l-1.015625 0l0 -6.203125l0.96875 0l0 0.984375l0.015625 0q0.34375 -0.578125 0.828125 -0.84375q0.5 -0.28125 1.203125 -0.28125z" fill-rule="nonzero"/><path fill="#000000" d="m30.029945 386.74725q1.4375 0 2.265625 0.6875q0.84375 0.6875 0.890625 2.015625l-1.078125 0q-0.09375 -0.875 -0.625 -1.3125q-0.53125 -0.4375 -1.5 -0.4375q-0.90625 0 -1.421875 0.375q-0.5 0.375 -0.5 1.078125q0 0.515625 0.421875 0.84375q0.4375 0.3125 2.328125 0.6875q1.375 0.28125 2.046875 0.875q0.6875 0.578125 0.6875 1.609375q0 1.1875 -0.984375 1.875q-0.96875 0.671875 -2.359375 0.671875q-1.5625 0 -2.546875 -0.78125q-0.984375 -0.78125 -0.984375 -2.234375l1.078125 0q0 0.96875 0.6875 1.515625q0.6875 0.546875 1.796875 0.546875q1.046875 0 1.609375 -0.40625q0.5625 -0.40625 0.5625 -1.15625q0 -0.609375 -0.515625 -0.96875q-0.515625 -0.375 -1.890625 -0.640625q-1.828125 -0.34375 -2.453125 -0.890625q-0.625 -0.5625 -0.625 -1.453125q0 -1.15625 0.875 -1.828125q0.890625 -0.671875 2.234375 -0.671875zm7.4160156 2.421875q1.40625 0 2.203125 0.90625q0.796875 0.90625 0.796875 2.34375q0 1.453125 -0.828125 2.34375q-0.8125 0.890625 -2.171875 0.890625q-1.359375 0 -2.1875 -0.875q-0.828125 -0.890625 -0.828125 -2.359375q0 -1.484375 0.8125 -2.359375q0.8125 -0.890625 2.203125 -0.890625zm-1.9375 3.25q0 1.0625 0.546875 1.703125q0.546875 0.640625 1.390625 0.640625q0.828125 0 1.375 -0.640625q0.546875 -0.640625 0.546875 -1.703125q0 -1.0625 -0.546875 -1.703125q-0.53125 -0.65625 -1.390625 -0.65625q-0.828125 0 -1.375 0.640625q-0.546875 0.640625 -0.546875 1.71875zm8.734375 -3.25q1.140625 0 1.84375 0.546875q0.703125 0.53125 0.828125 1.578125l-1.046875 0q-0.125 -0.59375 -0.53125 -0.90625q-0.390625 -0.328125 -1.0 -0.328125q-0.953125 0 -1.453125 0.640625q-0.484375 0.640625 -0.484375 1.78125q0 1.03125 0.484375 1.65625q0.484375 0.625 1.328125 0.625q0.734375 0 1.15625 -0.40625q0.4375 -0.40625 0.546875 -1.109375l1.046875 0q-0.171875 1.15625 -0.875 1.78125q-0.703125 0.625 -1.875 0.625q-1.34375 0 -2.125 -0.84375q-0.765625 -0.859375 -0.765625 -2.328125q0 -1.515625 0.78125 -2.40625q0.78125 -0.90625 2.140625 -0.90625zm4.9296875 -2.21875l0 5.0625l2.84375 -2.703125l1.359375 0l-2.453125 2.25l2.640625 3.953125l-1.296875 0l-2.125 -3.234375l-0.96875 0.890625l0 2.34375l-1.015625 0l0 -8.5625l1.015625 0zm7.7285156 2.21875q1.34375 0 2.078125 0.96875q0.734375 0.953125 0.734375 2.453125l0 0.125l-4.640625 0l0 0.078125q0 0.890625 0.515625 1.4375q0.515625 0.53125 1.421875 0.53125q0.671875 0 1.0625 -0.3125q0.40625 -0.328125 0.53125 -0.90625l1.015625 0q-0.203125 1.03125 -0.90625 1.578125q-0.703125 0.53125 -1.75 0.53125q-0.96875 0 -1.65625 -0.4375q-0.671875 -0.4375 -1.0 -1.21875q-0.3125 -0.796875 -0.3125 -1.625q0 -1.375 0.828125 -2.28125q0.828125 -0.921875 2.078125 -0.921875zm-1.828125 2.640625l3.5625 0q-0.046875 -0.75 -0.546875 -1.25q-0.5 -0.5 -1.25 -0.5q-0.703125 0 -1.203125 0.484375q-0.5 0.46875 -0.5625 1.265625zm7.1171875 -4.359375l0 1.859375l1.234375 0l0 0.90625l-1.234375 0l0 3.875q0 0.46875 0.296875 0.5q0.3125 0.015625 0.65625 0.015625l0.28125 0l0 0.90625l-0.84375 0q-0.84375 0 -1.125 -0.296875q-0.28125 -0.296875 -0.28125 -1.0l0 -4.0l-1.0625 0l0 -0.90625l1.0625 0l0 -1.859375l1.015625 0zm4.419922 1.71875q1.25 0 1.859375 0.484375q0.609375 0.484375 0.671875 1.453125l-1.015625 0l0 -0.015625q-0.046875 -0.484375 -0.4375 -0.75q-0.390625 -0.28125 -1.0 -0.28125q-0.609375 0 -0.96875 0.21875q-0.359375 0.203125 -0.359375 0.578125q0 0.34375 0.3125 0.5625q0.3125 0.203125 0.953125 0.34375l0.953125 0.21875q0.90625 0.203125 1.375 0.609375q0.46875 0.40625 0.46875 1.109375q0 0.921875 -0.71875 1.4375q-0.703125 0.515625 -1.921875 0.515625q-1.1875 0 -1.890625 -0.53125q-0.6875 -0.53125 -0.734375 -1.5625l1.015625 0q0.015625 0.578125 0.453125 0.890625q0.453125 0.3125 1.21875 0.3125q0.734375 0 1.109375 -0.234375q0.390625 -0.234375 0.390625 -0.703125q0 -0.40625 -0.390625 -0.640625q-0.375 -0.25 -1.546875 -0.484375q-1.171875 -0.234375 -1.65625 -0.65625q-0.46875 -0.421875 -0.46875 -1.109375q0 -0.8125 0.65625 -1.28125q0.671875 -0.484375 1.671875 -0.484375z" fill-rule="nonzero"/><defs><linearGradient id="p.9" gradientUnits="userSpaceOnUse" gradientTransform="matrix(9.799652953004015 0.0 0.0 9.799652953004015 0.0 0.0)" spreadMethod="pad" x1="9.796265282085512" y1="34.28441964396768" x2="9.796229710495322" y2="44.084072596907134"><stop offset="0.0" stop-color="#dfe9fb"/><stop offset="1.0" stop-color="#6e9be7"/></linearGradient></defs><path fill="url(#p.9)" d="m96.0 335.97714l480.0 0l0 96.031494l-480.0 0z" fill-rule="evenodd"/><path stroke="#000000" stroke-width="1.0" stroke-linejoin="round" stroke-linecap="butt" d="m96.0 335.97714l480.0 0l0 96.031494l-480.0 0z" fill-rule="evenodd"/><path fill="#000000" d="m331.20898 379.95038l0 0.953125l-2.859375 0l0 7.609375l-1.125 0l0 -7.609375l-2.859375 0l0 -0.953125l6.84375 0zm4.59375 -0.203125q1.421875 0 2.375 0.734375q0.953125 0.734375 1.140625 2.046875l-1.125 0q-0.1875 -0.890625 -0.828125 -1.359375q-0.640625 -0.46875 -1.578125 -0.46875q-1.359375 0 -2.140625 0.96875q-0.765625 0.953125 -0.765625 2.5q0 1.640625 0.75 2.625q0.765625 0.96875 2.171875 0.96875q1.046875 0 1.71875 -0.671875q0.671875 -0.671875 0.75 -1.8125l1.140625 0q-0.1875 1.671875 -1.15625 2.5625q-0.96875 0.875 -2.546875 0.875q-1.84375 0 -2.90625 -1.21875q-1.0625 -1.21875 -1.0625 -3.25q0 -2.0 1.09375 -3.25q1.09375 -1.25 2.96875 -1.25zm8.837891 0.203125q1.171875 0 1.859375 0.640625q0.703125 0.625 0.703125 1.890625q0 1.25 -0.703125 1.890625q-0.6875 0.640625 -1.78125 0.640625l-2.75 0l0 3.5l-1.140625 0l0 -8.5625l3.8125 0zm-0.3125 4.09375q0.8125 0 1.28125 -0.375q0.46875 -0.390625 0.46875 -1.1875q0 -0.796875 -0.46875 -1.1875q-0.46875 -0.390625 -1.359375 -0.390625l-2.28125 0l0 3.140625l2.359375 0z" fill-rule="nonzero"/><defs><linearGradient id="p.10" gradientUnits="userSpaceOnUse" gradientTransform="matrix(9.799583902023157 0.0 0.0 9.799583902023157 0.0 0.0)" spreadMethod="pad" x1="58.77860848692694" y1="34.28480351024175" x2="58.77857500754733" y2="44.08438741220772"><stop offset="0.0" stop-color="#dfe9fb"/><stop offset="1.0" stop-color="#6e9be7"/></linearGradient></defs><path fill="url(#p.10)" d="m576.0059 335.97714l96.0 0l0 96.031494l-96.0 0z" fill-rule="evenodd"/><path stroke="#000000" stroke-width="1.0" stroke-linejoin="round" stroke-linecap="butt" d="m576.0059 335.97714l96.0 0l0 96.031494l-96.0 0z" fill-rule="evenodd"/><path fill="#000000" d="m613.59186 379.95038l0 5.515625q0 1.046875 0.59375 1.671875q0.609375 0.625 1.78125 0.625q1.109375 0 1.671875 -0.625q0.5625 -0.625 0.5625 -1.671875l0 -5.515625l1.140625 0l0 5.53125q0 1.5 -0.859375 2.375q-0.84375 0.859375 -2.515625 0.859375q-1.75 0 -2.640625 -0.84375q-0.875 -0.84375 -0.875 -2.390625l0 -5.53125l1.140625 0zm10.572266 0q1.953125 0 3.0 1.03125q1.0625 1.03125 1.0625 3.046875q0 2.265625 -1.046875 3.375q-1.046875 1.109375 -3.015625 1.109375l-3.0 0l0 -8.5625l3.0 0zm0.078125 7.59375q1.28125 0 2.046875 -0.828125q0.78125 -0.84375 0.78125 -2.53125q0 -1.703125 -0.703125 -2.484375q-0.703125 -0.796875 -2.078125 -0.796875l-1.984375 0l0 6.640625l1.9375 0zm9.183594 -7.59375q1.171875 0 1.859375 0.640625q0.703125 0.625 0.703125 1.890625q0 1.25 -0.703125 1.890625q-0.6875 0.640625 -1.78125 0.640625l-2.75 0l0 3.5l-1.140625 0l0 -8.5625l3.8125 0zm-0.3125 4.09375q0.8125 0 1.28125 -0.375q0.46875 -0.390625 0.46875 -1.1875q0 -0.796875 -0.46875 -1.1875q-0.46875 -0.390625 -1.359375 -0.390625l-2.28125 0l0 3.140625l2.359375 0z" fill-rule="nonzero"/><defs><linearGradient id="p.11" gradientUnits="userSpaceOnUse" gradientTransform="matrix(6.926032706549418 0.0 0.0 6.926032706549418 0.0 0.0)" spreadMethod="pad" x1="26.56670770684394" y1="6.929697935896179" x2="26.566681061395975" y2="13.855730642394343"><stop offset="0.0" stop-color="#f5d0d0"/><stop offset="1.0" stop-color="#d96868"/></linearGradient></defs><path fill="url(#p.11)" d="m184.00189 47.996735l392.0 0l0 47.968506l-392.0 0z" fill-rule="evenodd"/><path stroke="#000000" stroke-width="1.0" stroke-linejoin="round" stroke-linecap="butt" d="m184.00189 47.996735l392.0 0l0 47.968506l-392.0 0z" fill-rule="evenodd"/><path fill="#000000" d="m353.45306 67.938484l0 0.953125l-4.484375 0l0 2.71875l3.9375 0l0 0.96875l-3.9375 0l0 3.921875l-1.140625 0l0 -8.5625l5.625 0zm4.1875 2.203125q0.03125 0 0.0625 0q0.03125 0 0.078125 0.015625l0 1.078125q-1.15625 0 -1.703125 0.609375q-0.546875 0.609375 -0.546875 1.875l0 2.78125l-1.015625 0l0 -6.203125l0.953125 0l0 1.296875l0.03125 0q0.359375 -0.734375 0.875 -1.09375q0.53125 -0.359375 1.265625 -0.359375zm3.4492188 0.015625q1.265625 0 1.78125 0.453125q0.53125 0.453125 0.53125 1.203125q0 3.234375 0 3.59375q0 0.34375 0.328125 0.34375q0.078125 0 0.15625 -0.015625q0.078125 -0.03125 0.15625 -0.046875l0 0.78125q-0.140625 0.09375 -0.328125 0.125q-0.1875 0.046875 -0.40625 0.046875q-0.421875 0 -0.640625 -0.234375q-0.21875 -0.234375 -0.21875 -0.71875q-0.40625 0.484375 -0.953125 0.71875q-0.546875 0.234375 -1.234375 0.234375q-0.953125 0 -1.5 -0.453125q-0.546875 -0.453125 -0.546875 -1.28125q0 -0.84375 0.53125 -1.328125q0.53125 -0.484375 2.5 -0.734375q0.671875 -0.09375 0.90625 -0.25q0.25 -0.171875 0.25 -0.515625q0 -0.515625 -0.34375 -0.765625q-0.328125 -0.265625 -1.046875 -0.265625q-0.75 0 -1.140625 0.296875q-0.375 0.28125 -0.40625 0.890625l-1.015625 0q0.046875 -1.03125 0.71875 -1.546875q0.6875 -0.53125 1.921875 -0.53125zm-1.796875 4.671875q0 0.4375 0.3125 0.6875q0.3125 0.234375 0.890625 0.234375q0.859375 0 1.375 -0.421875q0.515625 -0.4375 0.515625 -0.96875l0 -1.0625q-0.265625 0.171875 -0.671875 0.25q-0.40625 0.0625 -1.09375 0.15625q-0.671875 0.09375 -1.0 0.375q-0.328125 0.265625 -0.328125 0.75zm8.6796875 -4.671875q0.6875 0 1.109375 0.28125q0.4375 0.265625 0.609375 0.765625q0.3125 -0.5 0.8125 -0.765625q0.515625 -0.28125 1.125 -0.28125q1.0625 0 1.5625 0.484375q0.5 0.46875 0.5 1.265625l0 4.59375l-1.015625 0l0 -4.109375q0 -0.671875 -0.296875 -1.0q-0.28125 -0.34375 -0.90625 -0.34375q-0.765625 0 -1.203125 0.453125q-0.421875 0.4375 -0.421875 1.109375l0 3.890625l-1.015625 0l0 -4.109375q0 -0.671875 -0.28125 -1.0q-0.28125 -0.34375 -0.875 -0.34375q-0.5 0 -0.875 0.234375q-0.375 0.234375 -0.59375 0.640625q-0.203125 0.40625 -0.203125 0.6875l0 3.890625l-1.015625 0l0 -6.203125l0.96875 0l0 0.90625l0.015625 0q0.359375 -0.53125 0.84375 -0.78125q0.5 -0.265625 1.15625 -0.265625zm9.830078 0q1.34375 0 2.078125 0.96875q0.734375 0.953125 0.734375 2.453125l0 0.125l-4.640625 0l0 0.078125q0 0.890625 0.515625 1.4375q0.515625 0.53125 1.421875 0.53125q0.671875 0 1.0625 -0.3125q0.40625 -0.328125 0.53125 -0.90625l1.015625 0q-0.203125 1.03125 -0.90625 1.578125q-0.703125 0.53125 -1.75 0.53125q-0.96875 0 -1.65625 -0.4375q-0.671875 -0.4375 -1.0 -1.21875q-0.3125 -0.796875 -0.3125 -1.625q0 -1.375 0.828125 -2.28125q0.828125 -0.921875 2.078125 -0.921875zm-1.828125 2.640625l3.5625 0q-0.046875 -0.75 -0.546875 -1.25q-0.5 -0.5 -1.25 -0.5q-0.703125 0 -1.203125 0.484375q-0.5 0.46875 -0.5625 1.265625zm6.2578125 -2.5l1.40625 5.078125l0.03125 0l1.25 -5.078125l1.109375 0l1.296875 5.046875l0 0.03125l0.03125 0l1.375 -5.078125l1.0625 0l-1.96875 6.1875l-0.015625 0.015625l-1.078125 0l-1.25 -4.90625l-0.015625 -0.03125l-0.015625 0l-1.25 4.9375l-1.09375 0l-2.0 -6.203125l1.125 0zm11.21875 -0.140625q1.40625 0 2.203125 0.90625q0.796875 0.90625 0.796875 2.34375q0 1.453125 -0.828125 2.34375q-0.8125 0.890625 -2.171875 0.890625q-1.359375 0 -2.1875 -0.875q-0.828125 -0.890625 -0.828125 -2.359375q0 -1.484375 0.8125 -2.359375q0.8125 -0.890625 2.203125 -0.890625zm-1.9375 3.25q0 1.0625 0.546875 1.703125q0.546875 0.640625 1.390625 0.640625q0.828125 0 1.375 -0.640625q0.546875 -0.640625 0.546875 -1.703125q0 -1.0625 -0.546875 -1.703125q-0.53125 -0.65625 -1.390625 -0.65625q-0.828125 0 -1.375 0.640625q-0.546875 0.640625 -0.546875 1.71875zm9.234375 -3.265625q0.03125 0 0.0625 0q0.03125 0 0.078125 0.015625l0 1.078125q-1.15625 0 -1.703125 0.609375q-0.546875 0.609375 -0.546875 1.875l0 2.78125l-1.015625 0l0 -6.203125l0.953125 0l0 1.296875l0.03125 0q0.359375 -0.734375 0.875 -1.09375q0.53125 -0.359375 1.265625 -0.359375zm1.9804688 -2.203125l0 5.0625l2.84375 -2.703125l1.359375 0l-2.453125 2.25l2.640625 3.953125l-1.296875 0l-2.125 -3.234375l-0.96875 0.890625l0 2.34375l-1.015625 0l0 -8.5625l1.015625 0zm7.2128906 2.21875q1.25 0 1.859375 0.484375q0.609375 0.484375 0.671875 1.453125l-1.015625 0l0 -0.015625q-0.046875 -0.484375 -0.4375 -0.75q-0.390625 -0.28125 -1.0 -0.28125q-0.609375 0 -0.96875 0.21875q-0.359375 0.203125 -0.359375 0.578125q0 0.34375 0.3125 0.5625q0.3125 0.203125 0.953125 0.34375l0.953125 0.21875q0.90625 0.203125 1.375 0.609375q0.46875 0.40625 0.46875 1.109375q0 0.921875 -0.71875 1.4375q-0.703125 0.515625 -1.921875 0.515625q-1.1875 0 -1.890625 -0.53125q-0.6875 -0.53125 -0.734375 -1.5625l1.015625 0q0.015625 0.578125 0.453125 0.890625q0.453125 0.3125 1.21875 0.3125q0.734375 0 1.109375 -0.234375q0.390625 -0.234375 0.390625 -0.703125q0 -0.40625 -0.390625 -0.640625q-0.375 -0.25 -1.546875 -0.484375q-1.171875 -0.234375 -1.65625 -0.65625q-0.46875 -0.421875 -0.46875 -1.109375q0 -0.8125 0.65625 -1.28125q0.671875 -0.484375 1.671875 -0.484375z" fill-rule="nonzero"/><defs><linearGradient id="p.12" gradientUnits="userSpaceOnUse" gradientTransform="matrix(6.926105240997239 0.0 0.0 6.926105240997239 0.0 0.0)" spreadMethod="pad" x1="1.2680377692825185E-9" y1="13.859309939133368" x2="-2.5071163853766958E-5" y2="20.785415180085227"><stop offset="0.0" stop-color="#fdecdb"/><stop offset="1.0" stop-color="#f0a963"/></linearGradient></defs><path fill="url(#p.12)" d="m0 95.99347l672.0 0l0 47.968506l-672.0 0z" fill-rule="evenodd"/><path stroke="#000000" stroke-width="1.0" stroke-linejoin="round" stroke-linecap="butt" d="m0 95.99347l672.0 0l0 47.968506l-672.0 0z" fill-rule="evenodd"/><path fill="#000000" d="m305.79004 115.93522l0 8.5625l-1.140625 0l0 -8.5625l1.140625 0zm4.7617188 2.21875q1.109375 0 1.609375 0.578125q0.515625 0.5625 0.515625 1.640625l0 4.125l-1.015625 0l0 -4.234375q0 -0.53125 -0.34375 -0.875q-0.328125 -0.34375 -0.9375 -0.34375q-0.859375 0 -1.34375 0.53125q-0.484375 0.53125 -0.484375 1.375l0 3.546875l-1.015625 0l0 -6.203125l0.96875 0l0 0.984375l0.015625 0q0.34375 -0.578125 0.828125 -0.84375q0.5 -0.28125 1.203125 -0.28125zm5.080078 -1.71875l0 1.859375l1.234375 0l0 0.90625l-1.234375 0l0 3.875q0 0.46875 0.296875 0.5q0.3125 0.015625 0.65625 0.015625l0.28125 0l0 0.90625l-0.84375 0q-0.84375 0 -1.125 -0.296875q-0.28125 -0.296875 -0.28125 -1.0l0 -4.0l-1.0625 0l0 -0.90625l1.0625 0l0 -1.859375l1.015625 0zm4.935547 1.71875q1.34375 0 2.078125 0.96875q0.734375 0.953125 0.734375 2.453125l0 0.125l-4.640625 0l0 0.078125q0 0.890625 0.515625 1.4375q0.515625 0.53125 1.421875 0.53125q0.671875 0 1.0625 -0.3125q0.40625 -0.328125 0.53125 -0.90625l1.015625 0q-0.203125 1.03125 -0.90625 1.578125q-0.703125 0.53125 -1.75 0.53125q-0.96875 0 -1.65625 -0.4375q-0.671875 -0.4375 -1.0 -1.21875q-0.3125 -0.796875 -0.3125 -1.625q0 -1.375 0.828125 -2.28125q0.828125 -0.921875 2.078125 -0.921875zm-1.828125 2.640625l3.5625 0q-0.046875 -0.75 -0.546875 -1.25q-0.5 -0.5 -1.25 -0.5q-0.703125 0 -1.203125 0.484375q-0.5 0.46875 -0.5625 1.265625zm8.7890625 -2.65625q0.03125 0 0.0625 0q0.03125 0 0.078125 0.015625l0 1.078125q-1.15625 0 -1.703125 0.609375q-0.546875 0.609375 -0.546875 1.875l0 2.78125l-1.015625 0l0 -6.203125l0.953125 0l0 1.296875l0.03125 0q0.359375 -0.734375 0.875 -1.09375q0.53125 -0.359375 1.265625 -0.359375zm3.4960938 0.015625q1.140625 0 1.84375 0.546875q0.703125 0.53125 0.828125 1.578125l-1.046875 0q-0.125 -0.59375 -0.53125 -0.90625q-0.390625 -0.328125 -1.0 -0.328125q-0.953125 0 -1.453125 0.640625q-0.484375 0.640625 -0.484375 1.78125q0 1.03125 0.484375 1.65625q0.484375 0.625 1.328125 0.625q0.734375 0 1.15625 -0.40625q0.4375 -0.40625 0.546875 -1.109375l1.046875 0q-0.171875 1.15625 -0.875 1.78125q-0.703125 0.625 -1.875 0.625q-1.34375 0 -2.125 -0.84375q-0.765625 -0.859375 -0.765625 -2.328125q0 -1.515625 0.78125 -2.40625q0.78125 -0.90625 2.140625 -0.90625zm6.4296875 0q1.34375 0 2.078125 0.96875q0.734375 0.953125 0.734375 2.453125l0 0.125l-4.640625 0l0 0.078125q0 0.890625 0.515625 1.4375q0.515625 0.53125 1.421875 0.53125q0.671875 0 1.0625 -0.3125q0.40625 -0.328125 0.53125 -0.90625l1.015625 0q-0.203125 1.03125 -0.90625 1.578125q-0.703125 0.53125 -1.75 0.53125q-0.96875 0 -1.65625 -0.4375q-0.671875 -0.4375 -1.0 -1.21875q-0.3125 -0.796875 -0.3125 -1.625q0 -1.375 0.828125 -2.28125q0.828125 -0.921875 2.078125 -0.921875zm-1.828125 2.640625l3.5625 0q-0.046875 -0.75 -0.546875 -1.25q-0.5 -0.5 -1.25 -0.5q-0.703125 0 -1.203125 0.484375q-0.5 0.46875 -0.5625 1.265625zm8.7578125 -2.640625q1.328125 0 2.09375 0.921875q0.765625 0.90625 0.765625 2.34375q0 1.4375 -0.765625 2.328125q-0.765625 0.890625 -2.0625 0.890625q-0.578125 0 -1.140625 -0.234375q-0.546875 -0.234375 -0.875 -0.734375l-0.015625 0l0 3.203125l-1.03125 0l0 -8.578125l1.03125 0l0 0.84375l0.015625 0q0.25 -0.484375 0.765625 -0.734375q0.515625 -0.25 1.21875 -0.25zm-2.046875 3.234375q0 1.078125 0.515625 1.71875q0.53125 0.640625 1.453125 0.640625q0.875 0 1.359375 -0.625q0.5 -0.640625 0.5 -1.78125q0 -1.0 -0.515625 -1.640625q-0.515625 -0.65625 -1.421875 -0.65625q-0.890625 0 -1.390625 0.65625q-0.5 0.65625 -0.5 1.6875zm7.5195312 -4.953125l0 1.859375l1.234375 0l0 0.90625l-1.234375 0l0 3.875q0 0.46875 0.296875 0.5q0.3125 0.015625 0.65625 0.015625l0.28125 0l0 0.90625l-0.84375 0q-0.84375 0 -1.125 -0.296875q-0.28125 -0.296875 -0.28125 -1.0l0 -4.0l-1.0625 0l0 -0.90625l1.0625 0l0 -1.859375l1.015625 0zm5.044922 1.71875q1.40625 0 2.203125 0.90625q0.796875 0.90625 0.796875 2.34375q0 1.453125 -0.828125 2.34375q-0.8125 0.890625 -2.171875 0.890625q-1.359375 0 -2.1875 -0.875q-0.828125 -0.890625 -0.828125 -2.359375q0 -1.484375 0.8125 -2.359375q0.8125 -0.890625 2.203125 -0.890625zm-1.9375 3.25q0 1.0625 0.546875 1.703125q0.546875 0.640625 1.390625 0.640625q0.828125 0 1.375 -0.640625q0.546875 -0.640625 0.546875 -1.703125q0 -1.0625 -0.546875 -1.703125q-0.53125 -0.65625 -1.390625 -0.65625q-0.828125 0 -1.375 0.640625q-0.546875 0.640625 -0.546875 1.71875zm9.234375 -3.265625q0.03125 0 0.0625 0q0.03125 0 0.078125 0.015625l0 1.078125q-1.15625 0 -1.703125 0.609375q-0.546875 0.609375 -0.546875 1.875l0 2.78125l-1.015625 0l0 -6.203125l0.953125 0l0 1.296875l0.03125 0q0.359375 -0.734375 0.875 -1.09375q0.53125 -0.359375 1.265625 -0.359375zm2.9648438 0.015625q1.25 0 1.859375 0.484375q0.609375 0.484375 0.671875 1.453125l-1.015625 0l0 -0.015625q-0.046875 -0.484375 -0.4375 -0.75q-0.390625 -0.28125 -1.0 -0.28125q-0.609375 0 -0.96875 0.21875q-0.359375 0.203125 -0.359375 0.578125q0 0.34375 0.3125 0.5625q0.3125 0.203125 0.953125 0.34375l0.953125 0.21875q0.90625 0.203125 1.375 0.609375q0.46875 0.40625 0.46875 1.109375q0 0.921875 -0.71875 1.4375q-0.703125 0.515625 -1.921875 0.515625q-1.1875 0 -1.890625 -0.53125q-0.6875 -0.53125 -0.734375 -1.5625l1.015625 0q0.015625 0.578125 0.453125 0.890625q0.453125 0.3125 1.21875 0.3125q0.734375 0 1.109375 -0.234375q0.390625 -0.234375 0.390625 -0.703125q0 -0.40625 -0.390625 -0.640625q-0.375 -0.25 -1.546875 -0.484375q-1.171875 -0.234375 -1.65625 -0.65625q-0.46875 -0.421875 -0.46875 -1.109375q0 -0.8125 0.65625 -1.28125q0.671875 -0.484375 1.671875 -0.484375z" fill-rule="nonzero"/><defs><linearGradient id="p.13" gradientUnits="userSpaceOnUse" gradientTransform="matrix(6.925977565052713 0.0 0.0 6.925977565052713 0.0 0.0)" spreadMethod="pad" x1="3.473388710977027E-10" y1="6.929861910124888" x2="-2.5071623201081595E-5" y2="13.855839475132221"><stop offset="0.0" stop-color="#fdecdb"/><stop offset="1.0" stop-color="#f0a963"/></linearGradient></defs><path fill="url(#p.13)" d="m0 47.996735l184.0315 0l0 47.968506l-184.0315 0z" fill-rule="evenodd"/><path stroke="#000000" stroke-width="1.0" stroke-linejoin="round" stroke-linecap="butt" d="m0 47.996735l184.0315 0l0 47.968506l-184.0315 0z" fill-rule="evenodd"/><path fill="#000000" d="m51.046997 67.73536q1.53125 0 2.5 0.734375q0.96875 0.71875 1.1875 2.09375l-1.140625 0q-0.171875 -0.90625 -0.84375 -1.390625q-0.65625 -0.484375 -1.703125 -0.484375q-1.375 0 -2.15625 1.015625q-0.78125 1.015625 -0.78125 2.625q0 1.46875 0.8125 2.453125q0.8125 0.96875 2.125 0.96875q1.234375 0 1.984375 -0.734375q0.765625 -0.75 0.765625 -1.9375l0 -0.125l-2.734375 0l0 -0.96875l3.75 0l0 4.515625l-0.71875 0l-0.296875 -1.0625q-0.46875 0.609375 -1.1875 0.9375q-0.71875 0.328125 -1.5625 0.328125q-1.75 0 -2.921875 -1.25q-1.15625 -1.265625 -1.15625 -3.078125q0 -2.015625 1.09375 -3.328125q1.109375 -1.3125 2.984375 -1.3125zm7.8554688 2.421875q1.34375 0 2.078125 0.96875q0.734375 0.953125 0.734375 2.453125l0 0.125l-4.640625 0l0 0.078125q0 0.890625 0.515625 1.4375q0.515625 0.53125 1.421875 0.53125q0.671875 0 1.0625 -0.3125q0.40625 -0.328125 0.53125 -0.90625l1.015625 0q-0.203125 1.03125 -0.90625 1.578125q-0.703125 0.53125 -1.75 0.53125q-0.96875 0 -1.65625 -0.4375q-0.671875 -0.4375 -1.0 -1.21875q-0.3125 -0.796875 -0.3125 -1.625q0 -1.375 0.828125 -2.28125q0.828125 -0.921875 2.078125 -0.921875zm-1.828125 2.640625l3.5625 0q-0.046875 -0.75 -0.546875 -1.25q-0.5 -0.5 -1.25 -0.5q-0.703125 0 -1.203125 0.484375q-0.5 0.46875 -0.5625 1.265625zm8.7109375 -2.640625q1.109375 0 1.609375 0.578125q0.515625 0.5625 0.515625 1.640625l0 4.125l-1.015625 0l0 -4.234375q0 -0.53125 -0.34375 -0.875q-0.328125 -0.34375 -0.9375 -0.34375q-0.859375 0 -1.34375 0.53125q-0.484375 0.53125 -0.484375 1.375l0 3.546875l-1.015625 0l0 -6.203125l0.96875 0l0 0.984375l0.015625 0q0.34375 -0.578125 0.828125 -0.84375q0.5 -0.28125 1.203125 -0.28125zm6.236328 0q1.34375 0 2.078125 0.96875q0.734375 0.953125 0.734375 2.453125l0 0.125l-4.640625 0l0 0.078125q0 0.890625 0.515625 1.4375q0.515625 0.53125 1.421875 0.53125q0.671875 0 1.0625 -0.3125q0.40625 -0.328125 0.53125 -0.90625l1.015625 0q-0.203125 1.03125 -0.90625 1.578125q-0.703125 0.53125 -1.75 0.53125q-0.96875 0 -1.65625 -0.4375q-0.671875 -0.4375 -1.0 -1.21875q-0.3125 -0.796875 -0.3125 -1.625q0 -1.375 0.828125 -2.28125q0.828125 -0.921875 2.078125 -0.921875zm-1.828125 2.640625l3.5625 0q-0.046875 -0.75 -0.546875 -1.25q-0.5 -0.5 -1.25 -0.5q-0.703125 0 -1.203125 0.484375q-0.5 0.46875 -0.5625 1.265625zm8.7890625 -2.65625q0.03125 0 0.0625 0q0.03125 0 0.078125 0.015625l0 1.078125q-1.15625 0 -1.703125 0.609375q-0.546875 0.609375 -0.546875 1.875l0 2.78125l-1.015625 0l0 -6.203125l0.953125 0l0 1.296875l0.03125 0q0.359375 -0.734375 0.875 -1.09375q0.53125 -0.359375 1.265625 -0.359375zm3.4492188 0.015625q1.265625 0 1.78125 0.453125q0.53125 0.453125 0.53125 1.203125q0 3.234375 0 3.59375q0 0.34375 0.328125 0.34375q0.078125 0 0.15625 -0.015625q0.078125 -0.03125 0.15625 -0.046875l0 0.78125q-0.140625 0.09375 -0.328125 0.125q-0.1875 0.046875 -0.40625 0.046875q-0.421875 0 -0.640625 -0.234375q-0.21875 -0.234375 -0.21875 -0.71875q-0.40625 0.484375 -0.953125 0.71875q-0.546875 0.234375 -1.234375 0.234375q-0.953125 0 -1.5 -0.453125q-0.546875 -0.453125 -0.546875 -1.28125q0 -0.84375 0.53125 -1.328125q0.53125 -0.484375 2.5 -0.734375q0.671875 -0.09375 0.90625 -0.25q0.25 -0.171875 0.25 -0.515625q0 -0.515625 -0.34375 -0.765625q-0.328125 -0.265625 -1.046875 -0.265625q-0.75 0 -1.140625 0.296875q-0.375 0.28125 -0.40625 0.890625l-1.015625 0q0.046875 -1.03125 0.71875 -1.546875q0.6875 -0.53125 1.921875 -0.53125zm-1.796875 4.671875q0 0.4375 0.3125 0.6875q0.3125 0.234375 0.890625 0.234375q0.859375 0 1.375 -0.421875q0.515625 -0.4375 0.515625 -0.96875l0 -1.0625q-0.265625 0.171875 -0.671875 0.25q-0.40625 0.0625 -1.09375 0.15625q-0.671875 0.09375 -1.0 0.375q-0.328125 0.265625 -0.328125 0.75zm7.1171875 -6.390625l0 1.859375l1.234375 0l0 0.90625l-1.234375 0l0 3.875q0 0.46875 0.296875 0.5q0.3125 0.015625 0.65625 0.015625l0.28125 0l0 0.90625l-0.84375 0q-0.84375 0 -1.125 -0.296875q-0.28125 -0.296875 -0.28125 -1.0l0 -4.0l-1.0625 0l0 -0.90625l1.0625 0l0 -1.859375l1.015625 0zm4.935547 1.71875q1.34375 0 2.078125 0.96875q0.734375 0.953125 0.734375 2.453125l0 0.125l-4.640625 0l0 0.078125q0 0.890625 0.515625 1.4375q0.515625 0.53125 1.421875 0.53125q0.671875 0 1.0625 -0.3125q0.40625 -0.328125 0.53125 -0.90625l1.015625 0q-0.203125 1.03125 -0.90625 1.578125q-0.703125 0.53125 -1.75 0.53125q-0.96875 0 -1.65625 -0.4375q-0.671875 -0.4375 -1.0 -1.21875q-0.3125 -0.796875 -0.3125 -1.625q0 -1.375 0.828125 -2.28125q0.828125 -0.921875 2.078125 -0.921875zm-1.828125 2.640625l3.5625 0q-0.046875 -0.75 -0.546875 -1.25q-0.5 -0.5 -1.25 -0.5q-0.703125 0 -1.203125 0.484375q-0.5 0.46875 -0.5625 1.265625zm11.2421875 -4.859375l0 8.5625l-1.015625 0l0 -0.84375l-0.03125 0q-0.234375 0.484375 -0.765625 0.734375q-0.515625 0.25 -1.21875 0.25q-1.296875 0 -2.078125 -0.890625q-0.765625 -0.90625 -0.765625 -2.375q0 -1.421875 0.75 -2.3125q0.75 -0.90625 2.078125 -0.90625q0.609375 0 1.15625 0.25q0.546875 0.234375 0.84375 0.71875l0.03125 0l0 -3.1875l1.015625 0zm-4.796875 5.515625q0 1.0 0.515625 1.65625q0.515625 0.640625 1.40625 0.640625q0.90625 0 1.390625 -0.640625q0.5 -0.65625 0.5 -1.703125q0 -1.0625 -0.515625 -1.703125q-0.5 -0.65625 -1.453125 -0.65625q-0.875 0 -1.359375 0.640625q-0.484375 0.640625 -0.484375 1.765625zm12.744141 -5.71875q1.4375 0 2.265625 0.6875q0.84375 0.6875 0.890625 2.015625l-1.078125 0q-0.09375 -0.875 -0.625 -1.3125q-0.53125 -0.4375 -1.5 -0.4375q-0.90625 0 -1.421875 0.375q-0.5 0.375 -0.5 1.078125q0 0.515625 0.421875 0.84375q0.4375 0.3125 2.328125 0.6875q1.375 0.28125 2.046875 0.875q0.6875 0.578125 0.6875 1.609375q0 1.1875 -0.984375 1.875q-0.96875 0.671875 -2.359375 0.671875q-1.5625 0 -2.546875 -0.78125q-0.984375 -0.78125 -0.984375 -2.234375l1.078125 0q0 0.96875 0.6875 1.515625q0.6875 0.546875 1.796875 0.546875q1.046875 0 1.609375 -0.40625q0.5625 -0.40625 0.5625 -1.15625q0 -0.609375 -0.515625 -0.96875q-0.515625 -0.375 -1.890625 -0.640625q-1.828125 -0.34375 -2.453125 -0.890625q-0.625 -0.5625 -0.625 -1.453125q0 -1.15625 0.875 -1.828125q0.890625 -0.671875 2.234375 -0.671875zm6.1503906 0.703125l0 1.859375l1.234375 0l0 0.90625l-1.234375 0l0 3.875q0 0.46875 0.296875 0.5q0.3125 0.015625 0.65625 0.015625l0.28125 0l0 0.90625l-0.84375 0q-0.84375 0 -1.125 -0.296875q-0.28125 -0.296875 -0.28125 -1.0l0 -4.0l-1.0625 0l0 -0.90625l1.0625 0l0 -1.859375l1.015625 0zm3.3730469 1.859375l0 4.234375q0 0.515625 0.34375 0.875q0.34375 0.34375 0.921875 0.34375q0.890625 0 1.359375 -0.53125q0.484375 -0.546875 0.484375 -1.375l0 -3.546875l1.015625 0l0 6.203125l-0.953125 0l0 -0.984375l-0.03125 0q-0.34375 0.59375 -0.859375 0.859375q-0.5 0.265625 -1.15625 0.265625q-1.09375 0 -1.625 -0.546875q-0.515625 -0.5625 -0.515625 -1.65625l0 -4.140625l1.015625 0zm6.720703 -2.359375l0 3.203125l0.015625 0q0.25 -0.484375 0.75 -0.734375q0.515625 -0.25 1.234375 -0.25q1.328125 0 2.09375 0.921875q0.765625 0.90625 0.765625 2.34375q0 1.4375 -0.765625 2.328125q-0.765625 0.890625 -2.0625 0.890625q-0.578125 0 -1.140625 -0.234375q-0.546875 -0.234375 -0.875 -0.734375l-0.015625 0l0 0.828125l-1.03125 0l0 -8.5625l1.03125 0zm-0.046875 5.453125q0 1.078125 0.515625 1.71875q0.53125 0.640625 1.453125 0.640625q0.875 0 1.359375 -0.625q0.5 -0.640625 0.5 -1.78125q0 -1.0 -0.515625 -1.640625q-0.515625 -0.65625 -1.421875 -0.65625q-0.890625 0 -1.390625 0.65625q-0.5 0.65625 -0.5 1.6875zm8.160156 -3.234375q1.25 0 1.859375 0.484375q0.609375 0.484375 0.671875 1.453125l-1.015625 0l0 -0.015625q-0.046875 -0.484375 -0.4375 -0.75q-0.390625 -0.28125 -1.0 -0.28125q-0.609375 0 -0.96875 0.21875q-0.359375 0.203125 -0.359375 0.578125q0 0.34375 0.3125 0.5625q0.3125 0.203125 0.953125 0.34375l0.953125 0.21875q0.90625 0.203125 1.375 0.609375q0.46875 0.40625 0.46875 1.109375q0 0.921875 -0.71875 1.4375q-0.703125 0.515625 -1.921875 0.515625q-1.1875 0 -1.890625 -0.53125q-0.6875 -0.53125 -0.734375 -1.5625l1.015625 0q0.015625 0.578125 0.453125 0.890625q0.453125 0.3125 1.21875 0.3125q0.734375 0 1.109375 -0.234375q0.390625 -0.234375 0.390625 -0.703125q0 -0.40625 -0.390625 -0.640625q-0.375 -0.25 -1.546875 -0.484375q-1.171875 -0.234375 -1.65625 -0.65625q-0.46875 -0.421875 -0.46875 -1.109375q0 -0.8125 0.65625 -1.28125q0.671875 -0.484375 1.671875 -0.484375z" fill-rule="nonzero"/><defs><linearGradient id="p.14" gradientUnits="userSpaceOnUse" gradientTransform="matrix(6.925954990218116 0.0 0.0 6.925954990218116 0.0 0.0)" spreadMethod="pad" x1="27.719535030137102" y1="41.58266286996059" x2="27.719511345028696" y2="48.50861786013821"><stop offset="0.0" stop-color="#dcecd5"/><stop offset="1.0" stop-color="#93bc81"/></linearGradient></defs><path fill="url(#p.14)" d="m191.98425 288.0l96.0 0l0 47.968506l-96.0 0z" fill-rule="evenodd"/><path stroke="#000000" stroke-width="1.0" stroke-linejoin="round" stroke-linecap="butt" d="m191.98425 288.0l96.0 0l0 47.968506l-96.0 0z" fill-rule="evenodd"/><path fill="#000000" d="m222.96277 307.94174l3.34375 8.5625l-1.265625 0l-0.9375 -2.578125l-3.625 0l-0.953125 2.578125l-1.171875 0l3.34375 -8.5625l1.265625 0zm-0.671875 1.03125l-1.4375 3.984375l2.890625 0l-1.421875 -3.984375l-0.03125 0zm5.9941406 -1.03125l0 7.59375l4.53125 0l0 0.96875l-5.671875 0l0 -8.5625l1.140625 0zm11.470703 0l0 0.953125l-2.859375 0l0 7.609375l-1.125 0l0 -7.609375l-2.859375 0l0 -0.953125l6.84375 0zm3.828125 -0.203125q1.4375 0 2.265625 0.6875q0.84375 0.6875 0.890625 2.015625l-1.078125 0q-0.09375 -0.875 -0.625 -1.3125q-0.53125 -0.4375 -1.5 -0.4375q-0.90625 0 -1.421875 0.375q-0.5 0.375 -0.5 1.078125q0 0.515625 0.421875 0.84375q0.4375 0.3125 2.328125 0.6875q1.375 0.28125 2.046875 0.875q0.6875 0.578125 0.6875 1.609375q0 1.1875 -0.984375 1.875q-0.96875 0.671875 -2.359375 0.671875q-1.5625 0 -2.546875 -0.78125q-0.984375 -0.78125 -0.984375 -2.234375l1.078125 0q0 0.96875 0.6875 1.515625q0.6875 0.546875 1.796875 0.546875q1.046875 0 1.609375 -0.40625q0.5625 -0.40625 0.5625 -1.15625q0 -0.609375 -0.515625 -0.96875q-0.515625 -0.375 -1.890625 -0.640625q-1.828125 -0.34375 -2.453125 -0.890625q-0.625 -0.5625 -0.625 -1.453125q0 -1.15625 0.875 -1.828125q0.890625 -0.671875 2.234375 -0.671875z" fill-rule="nonzero"/><path fill="#333333" d="m258.5995 312.223q0 0.3125 -0.015625 1.375q-0.015625 1.0625 -0.078125 1.296875q-0.046875 0.234375 -0.203125 0.46875q-0.15625 0.234375 -0.375 0.390625q-0.5 0.390625 -1.078125 0.625q-0.5625 0.21875 -1.140625 0.21875q-0.28125 0 -0.53125 -0.09375q-0.234375 -0.09375 -0.4375 -0.3125q-0.1875 -0.234375 -0.5 -0.984375q-0.296875 -0.75 -0.40625 -1.15625q-0.0625 -0.140625 -0.0625 -0.25q0 -0.34375 0.34375 -0.6875q-0.234375 -0.40625 -0.375 -0.828125q-0.140625 -0.421875 -0.140625 -0.890625q0 -0.765625 0.375 -1.359375q0.390625 -0.59375 1.09375 -0.921875q0.703125 -0.34375 1.296875 -0.34375q0.46875 0 0.828125 0.25q0.359375 0.234375 0.578125 0.734375q0.21875 0.484375 0.21875 0.96875q0 0.40625 -0.03125 0.828125q0.28125 0.0625 0.453125 0.25q0.1875 0.1875 0.1875 0.421875zm-4.28125 1.234375q-0.171875 0.203125 -0.171875 0.359375q0 0.1875 0.203125 0.296875q0.203125 0.109375 0.46875 0.109375q0.296875 0 0.703125 -0.125q0.03125 0 0.375 -0.15625q0.34375 -0.15625 0.734375 -0.375q0.40625 -0.21875 0.828125 -0.484375q0.421875 -0.265625 0.59375 -0.453125q0.1875 -0.203125 0.1875 -0.359375q0 -0.265625 -0.3125 -0.34375q-0.015625 0.296875 -0.0625 0.46875q-0.046875 0.171875 -0.296875 0.265625q-0.046875 0.03125 -0.140625 0.03125q-0.109375 0 -0.21875 -0.046875q-0.109375 -0.046875 -0.140625 -0.140625q-0.03125 -0.09375 -0.03125 -0.328125l0.015625 -0.1875q-0.75 0.203125 -1.90625 0.859375q0.15625 0.328125 0.265625 0.484375q0.03125 0.0625 0.03125 0.171875q0 0.1875 -0.1875 0.3125q-0.171875 0.109375 -0.34375 0.109375q-0.140625 0 -0.28125 -0.09375q-0.125 -0.09375 -0.3125 -0.375zm0.484375 -1.953125q0 0.4375 0.203125 0.984375q1.171875 -0.65625 2.046875 -0.890625q0 -0.875 -0.203125 -1.234375q-0.203125 -0.359375 -0.578125 -0.359375q-0.296875 0 -0.6875 0.203125q-0.390625 0.203125 -0.59375 0.53125q-0.1875 0.328125 -0.1875 0.765625zm2.40625 3.453125q0.171875 -0.125 0.265625 -0.28125q0.109375 -0.15625 0.109375 -0.296875q0 -0.15625 -0.109375 -0.234375q-0.09375 -0.078125 -0.234375 -0.078125q-0.203125 0 -0.40625 0.125q-0.203125 0.109375 -0.328125 0.296875q-0.125 0.171875 -0.125 0.328125q0 0.140625 0.09375 0.21875q0.109375 0.078125 0.25 0.078125q0.109375 0 0.21875 -0.03125l-0.03125 0.515625l0.453125 -0.234375l-0.15625 -0.40625z" fill-rule="nonzero"/></g></svg>