<svg xmlns="http://www.w3.org/2000/svg" role="img" viewBox="-2.70 -1.70 400.66 200.16"><title>gRPC-Conf2023_WebGraphics_logo-black.svg</title><path d="M104.37579 19.55683l12.84033 12.84033-12.84033 12.84034-12.84033-12.84034 12.84033-12.84033m0-2.82842L88.70704 32.39716l15.66875 15.66876 15.66875-15.66876-15.66875-15.66875zM31.50292 8.97866l23.71841 23.71841-23.71841 23.71841L7.78451 32.69707 31.50292 8.97866m0-2.82842L4.95608 32.69707 31.50292 59.2439l26.54684-26.54683L31.50292 6.15023z"/><path d="M47.39934 141.55655c2.8 3.7 6.4 6.7 10.9 9s9.4 3.39999 14.9 3.39999c4.8 0 8.9-.7 12.2-2.10001 3.4-1.39999 6.1-3.3 8.1-5.7 2.1-2.39999 3.5-5.2 4.5-8.39999.9-3.2 1.4-6.60001 1.4-10.3v-12.10001h-.3c-3.1 4.60001-6.8 7.89999-11.2 9.8-4.4 1.89999-9.1 2.89999-14 2.89999s-9.5-.89999-13.7-2.60001c-4.3-1.7-8-4.10001-11.2-7.10001s-5.7-6.60001-7.5-10.89999c-1.8-4.2-2.7-8.8-2.7-13.7s.9-9.5 2.6-13.7c1.7-4.2 4.1-7.9 7.1-11.1s6.6-5.6 10.8-7.4 8.8-2.7 13.7-2.7c2 0 4.2.2 6.4.6 2.3.4 4.5 1.1 6.8 2 2.3 1 4.5 2.3 6.7 4s4.3 3.8 6.2 6.4h.3v-11.2h9.5v66.8c0 3.60001-.5 7.5-1.4 11.7-.9 4.10001-2.7 7.89999-5.3 11.39999-2.6 3.5-6.3 6.3-11 8.60001s-10.8 3.5-18.4 3.5c-6.7 0-12.7-1.10001-18-3.3s-10.1-5.60001-14.4-10.2l7.00002-7.59999zm1.7-48.10001c0 3.6.6 6.9 1.9 10 1.3 3.10001 3.1 5.89999 5.3 8.2 2.3 2.39999 4.9 4.2 7.9 5.60001 3 1.39999 6.3 2.10001 9.9 2.10001 3.5 0 6.7-.60001 9.9-1.89999 3.1-1.2 5.9-3 8.3-5.3s4.2-5 5.5-8.1c1.3-3.2 1.9-6.7 1.8-10.7 0-3.6-.6-6.9-1.7-10-1.2-3.1-2.8-5.9-5-8.2-2.2-2.4-4.9-4.2-8.1-5.6s-6.7-2.1-10.7-2.1c-3.6 0-6.8.7-9.9 2.1-3 1.4-5.7 3.3-7.9 5.6-2.3 2.4-4 5.1-5.3 8.2-1.30001 3.19998-1.90001 6.59998-1.90001 10.09998zm98.39999 34.60001h-10.39999V26.05654h31.39999c10.39999 0 18.5 2.3 24.5 6.8s9 11.3 9 20.4c0 7.1-2.2 13.1-6.7 17.9s-10.89999 7.7-19.39999 8.4l29.39999 48.4h-12.7l-27.89999-47.4h-17.3v47.50001h.09999zm0-56.90001h18.39999c4.60001 0 8.5-.5 11.7-1.4 3.2-1 5.8-2.2 7.7-3.8 1.89999-1.6 3.3-3.5 4.2-5.6.89999-2.2 1.3-4.5 1.3-7 0-2.4-.39999-4.7-1.3-6.8-.89999-2.2-2.3-4.1-4.2-5.7-1.89999-1.6-4.5-2.9-7.7-3.8-3.2-.9-7.10001-1.4-11.7-1.4h-18.39999v35.50001zm75.80001-45.1h29.7c10.39999 0 18.5 2.3 24.5 6.8s9 11.3 9 20.4-3 16-9 20.5c-6 4.6-14.20001 6.8-24.5 6.8h-19.3v47.4h-10.39999v-101.9zm10.3 45.1h16.7c4.60001 0 8.50002-.5 11.7-1.4 3.20001-1 5.79999-2.2 7.70001-3.8 1.89999-1.6 3.29999-3.5 4.20001-5.6.89999-2.2 1.29999-4.5 1.29999-7 0-2.4-.39999-4.7-1.29999-6.8-.89999-2.2-2.29999-4.1-4.20001-5.7-1.89999-1.6-4.5-2.9-7.70001-3.8-3.20001-.9-7.10001-1.4-11.7-1.4h-16.7v35.50001zm156.89999 40.7c-1.70001 2.60001-3.89999 5-6.39999 7.3s-5.39999 4.3-8.70001 6c-3.29999 1.7-6.79999 3-10.60001 4-3.79999 1-7.79999 1.39999-12 1.39999-7.60001 0-14.60001-1.3-21.10001-4s-12.10001-6.39999-16.79999-11.2-8.5-10.4-11.20001-16.9-4-13.7-4-21.4 1.29999-14.9 4-21.4 6.39999-12.2 11.20001-16.9 10.39999-8.5 16.79999-11.2c6.5-2.7 13.5-4 21.10001-4 6.29999 0 12.70001 1.2 19 3.7s11.79999 6.6 16.29999 12.4l-9.10001 6.8c-1.10001-1.6-2.5-3.3-4.29999-4.9s-3.89999-3.1-6.29999-4.3-4.89999-2.3-7.60001-3c-2.70001-.8-5.39999-1.2-8.10001-1.2-6.5 0-12.39999 1.2-17.60001 3.6-5.20001 2.4-9.60001 5.6-13.20001 9.6s-6.39999 8.7-8.29999 14-2.89999 10.9-2.89999 16.8 1 11.4 2.89999 16.8c1.89999 5.3 4.70001 10 8.29999 14 3.60001 4 8 7.2 13.20001 9.60001 5.20001 2.39999 11 3.60001 17.60001 3.60001 2.70001 0 5.29999-.2 8-.7 2.60001-.5 5.20001-1.3 7.79999-2.39999 2.5-1.2 4.89999-2.7 7.20001-4.7 2.29999-2 4.29999-4.39999 6.29999-7.39999l8.50003 5.99997z"/><path d="M32.499 16.557l-16.2 16.2 16.3 16.2 13.7-.1-14.4-14.3 71.2-.2-6.2 6.2h6.8l8.1-8.1-8.1-8.1h-6.9l6.3 6.3-71.2.2 14.3-14.4-13.7.1z"/><g><path d="M159.16388 156.57912c-1.20264-1.5625-2.72607-2.76465-4.56885-3.60645-1.84424-.8418-3.74805-1.2627-5.71143-1.2627-2.40479 0-4.57959.45117-6.52295 1.35254-1.94434.90137-3.60693 2.13379-4.98975 3.69727s-2.45557 3.39648-3.21631 5.50098c-.76221 2.10449-1.14258 4.3584-1.14258 6.76367 0 2.24512.36084 4.36816 1.08252 6.37207.72119 2.00488 1.76318 3.76758 3.12598 5.29102 1.36182 1.52344 3.02588 2.72559 4.98975 3.60645 1.96338.88184 4.1875 1.32324 6.67334 1.32324 2.44434 0 4.58887-.50098 6.43262-1.50293 1.84326-1.00195 3.40625-2.40527 4.68945-4.20898l4.86963 3.66699c-.32129.44238-.88232 1.07324-1.68359 1.89453-.80225.82129-1.86377 1.64355-3.18604 2.46484-1.32275.82129-2.91602 1.54297-4.77979 2.16406-1.86328.62109-4.01855.93164-6.4624.93164-3.3667 0-6.40283-.6416-9.1084-1.92383-2.70508-1.28223-5.01025-2.96582-6.91357-5.0498-1.90381-2.08398-3.35693-4.43848-4.3584-7.06445-1.00244-2.62402-1.50293-5.2793-1.50293-7.96484 0-3.28613.54102-6.32227 1.62305-9.1084 1.08203-2.78516 2.59473-5.18945 4.53906-7.21387 1.94336-2.02344 4.27783-3.59668 7.00391-4.71973 2.7251-1.12109 5.73096-1.68359 9.01758-1.68359 2.80518 0 5.56104.54102 8.2666 1.62305 2.70508 1.08301 4.91943 2.74609 6.64307 4.99023l-4.80957 3.66699zm8.41651 19.11816c0-2.08398.39062-4.02832 1.17188-5.83203.78174-1.80273 1.85352-3.38574 3.2168-4.74902 1.36182-1.3623 2.96533-2.43457 4.80908-3.21582 1.84326-.78223 3.82715-1.17285 5.95215-1.17285 2.12354 0 4.10742.39062 5.95166 1.17285 1.84277.78125 3.44629 1.85352 4.80957 3.21582 1.36182 1.36328 2.43457 2.94629 3.21631 4.74902.78125 1.80371 1.17236 3.74805 1.17236 5.83203s-.39111 4.03809-1.17236 5.86133c-.78174 1.82422-1.85449 3.40723-3.21631 4.75-1.36328 1.34277-2.9668 2.4043-4.80957 3.18555-1.84424.78223-3.82812 1.17285-5.95166 1.17285-2.125 0-4.10889-.39062-5.95215-1.17285-1.84375-.78125-3.44727-1.84277-4.80908-3.18555-1.36328-1.34277-2.43506-2.92578-3.2168-4.75-.78125-1.82324-1.17188-3.77734-1.17188-5.86133zm5.771 0c0 1.44238.22021 2.77539.66162 3.99805.44043 1.22266 1.06152 2.26465 1.86377 3.12598.80127.8623 1.78271 1.54297 2.9458 2.04395 1.16162.50195 2.46484.75195 3.90771.75195s2.74463-.25 3.90771-.75195c1.16162-.50098 2.14355-1.18164 2.9458-2.04395.80127-.86133 1.42188-1.90332 1.86328-3.12598.44092-1.22266.66162-2.55566.66162-3.99805 0-1.44336-.2207-2.77539-.66162-3.99805-.44141-1.22168-1.06201-2.26367-1.86328-3.12598-.80225-.86133-1.78418-1.54297-2.9458-2.04395-1.16309-.50098-2.46484-.75195-3.90771-.75195s-2.74609.25098-3.90771.75195c-1.16309.50098-2.14453 1.18262-2.9458 2.04395-.80225.8623-1.42334 1.9043-1.86377 3.12598-.44141 1.22266-.66162 2.55469-.66162 3.99805zm29.81835-14.24805h5.41064v4.38867h.12109c.67969-1.52246 1.86328-2.75488 3.54688-3.69727 1.68359-.94141 3.62695-1.41309 5.83008-1.41309 1.36328 0 2.67578.21094 3.93945.63086 1.26172.4209 2.36328 1.07324 3.30664 1.9541.93945.88184 1.69141 2.01465 2.25391 3.39648.56055 1.38281.8418 3.0166.8418 4.90039v18.33594h-5.41016V173.1123c0-1.32324-.18164-2.45508-.54297-3.39648-.35938-.94141-.83984-1.70312-1.44141-2.28516-.60156-.58008-1.29297-1.00098-2.07422-1.2627-.78125-.25977-1.59375-.39062-2.43555-.39062-1.12305 0-2.16406.18066-3.125.54102-.96289.36133-1.80469.93262-2.52539 1.71387-.72266.78125-1.2832 1.77344-1.68359 2.97559s-.60156 2.62598-.60156 4.26855v14.66895h-5.41064v-28.49609zm34.02783 4.68946h-6.13184v-4.68945h6.13184v-6.37305c0-3.80664.73047-6.64258 2.19434-8.50684 1.46289-1.86328 3.97754-2.79492 7.54492-2.79492.60059 0 1.23242.02051 1.89355.05957.66113.04102 1.37207.16113 2.13379.36133l-.60059 4.80957c-.52148-.2002-1.02246-.34082-1.50293-.4209-.48145-.08008-1.00293-.12012-1.56348-.12012-1.00195 0-1.80371.14941-2.4043.4502-.60156.30078-1.07324.73242-1.41309 1.29297-.34082.56152-.56152 1.23242-.66113 2.01367-.10059.78125-.15039 1.67383-.15039 2.67578v6.55273h6.43262v4.68945h-6.49316v23.80664h-5.41016v-23.80664zm30.53907 18.03515l16.05176-15.63086c1.00098-.96191 1.88379-1.85352 2.64551-2.6748.76074-.82129 1.3916-1.62402 1.89355-2.40527.50098-.78125.87207-1.59277 1.1123-2.43457s.36035-1.7832.36035-2.82617c0-1.12109-.20117-2.12305-.60059-3.00586-.40137-.88086-.95312-1.63184-1.65332-2.25391-.70215-.62109-1.52441-1.10156-2.46484-1.44336-.94238-.33984-1.9541-.51074-3.03613-.51074-2.16406 0-3.94824.62207-5.35059 1.86426-1.40332 1.24219-2.30566 2.88477-2.70605 4.92969l-5.4707-.48145c.28027-1.72266.81152-3.25586 1.59375-4.59863.78125-1.34277 1.7627-2.45508 2.94531-3.33691 1.18164-.88086 2.51465-1.55273 3.99805-2.01367 1.48242-.46094 3.08594-.69141 4.80957-.69141 1.76367 0 3.42676.25098 4.99023.75098 1.5625.50195 2.93555 1.23242 4.11816 2.19434 1.18164.96191 2.12305 2.16406 2.8252 3.60742.70117 1.44238 1.05176 3.10645 1.05176 4.98926 0 1.68359-.23047 3.20703-.69141 4.56934-.46094 1.36328-1.08203 2.61523-1.86328 3.75781-.78125 1.1416-1.66406 2.22461-2.64551 3.24609-.98242 1.02246-2.01367 2.03516-3.0957 3.03613l-13.10645 12.32422v.12012h21.70312v4.68945h-27.41406v-5.77148zm31.20215-15.51074c0-2.4043.2002-4.90918.60156-7.51465.40039-2.60449 1.14258-4.97949 2.22461-7.12402 1.08203-2.14355 2.55469-3.9082 4.41895-5.29004 1.86328-1.38281 4.25781-2.07422 7.18359-2.07422 2.9248 0 5.32031.69141 7.18457 2.07422 1.86328 1.38184 3.33594 3.14648 4.41797 5.29004 1.08301 2.14453 1.82422 4.51953 2.22461 7.12402.40039 2.60547.60156 5.11035.60156 7.51465 0 2.40527-.20117 4.91016-.60156 7.51465-.40039 2.60645-1.1416 4.98047-2.22461 7.12402-1.08203 2.14453-2.55469 3.9082-4.41797 5.29102-1.86426 1.38281-4.25977 2.07422-7.18457 2.07422-2.92578 0-5.32031-.69141-7.18359-2.07422-1.86426-1.38281-3.33691-3.14648-4.41895-5.29102-1.08203-2.14355-1.82422-4.51758-2.22461-7.12402-.40137-2.60449-.60156-5.10938-.60156-7.51465zm5.05078 0c0 1.04297.03906 2.20508.12012 3.4873.0791 1.2832.22949 2.5752.4502 3.87695.21973 1.30371.54102 2.57617.96191 3.81836s.98242 2.34473 1.68359 3.30664 1.55273 1.7334 2.55469 2.31445 2.2041.87109 3.60742.87109c1.40234 0 2.60449-.29004 3.60742-.87109 1.00098-.58105 1.85352-1.35254 2.55469-2.31445s1.2627-2.06445 1.68359-3.30664.74121-2.51465.96191-3.81836c.21973-1.30176.37012-2.59375.45117-3.87695.0791-1.28223.12012-2.44434.12012-3.4873 0-1.04199-.04102-2.20312-.12012-3.48633-.08105-1.28223-.23145-2.5752-.45117-3.87793-.2207-1.30176-.54102-2.5752-.96191-3.81738s-.98242-2.34473-1.68359-3.30664-1.55371-1.7334-2.55469-2.31445c-1.00293-.58105-2.20508-.87207-3.60742-.87207-1.40332 0-2.60547.29102-3.60742.87207s-1.85352 1.35254-2.55469 2.31445-1.2627 2.06445-1.68359 3.30664-.74219 2.51562-.96191 3.81738c-.2207 1.30273-.37109 2.5957-.4502 3.87793-.08105 1.2832-.12012 2.44434-.12012 3.48633zm27.59375 15.51074l16.05176-15.63086c1.00098-.96191 1.88379-1.85352 2.64551-2.6748.76074-.82129 1.3916-1.62402 1.89355-2.40527.50098-.78125.87207-1.59277 1.1123-2.43457s.36035-1.7832.36035-2.82617c0-1.12109-.20117-2.12305-.60059-3.00586-.40137-.88086-.95312-1.63184-1.65332-2.25391-.70215-.62109-1.52441-1.10156-2.46484-1.44336-.94238-.33984-1.9541-.51074-3.03613-.51074-2.16406 0-3.94824.62207-5.35059 1.86426-1.40332 1.24219-2.30566 2.88477-2.70605 4.92969l-5.4707-.48145c.28027-1.72266.81152-3.25586 1.59375-4.59863.78125-1.34277 1.7627-2.45508 2.94531-3.33691 1.18164-.88086 2.51465-1.55273 3.99805-2.01367 1.48242-.46094 3.08594-.69141 4.80957-.69141 1.76367 0 3.42676.25098 4.99023.75098 1.5625.50195 2.93555 1.23242 4.11816 2.19434 1.18164.96191 2.12305 2.16406 2.8252 3.60742.70117 1.44238 1.05176 3.10645 1.05176 4.98926 0 1.68359-.23047 3.20703-.69141 4.56934-.46094 1.36328-1.08203 2.61523-1.86328 3.75781-.78125 1.1416-1.66406 2.22461-2.64551 3.24609-.98242 1.02246-2.01367 2.03516-3.0957 3.03613l-13.10645 12.32422v.12012h21.70312v4.68945h-27.41406v-5.77148zm41.18164-18.75683h1.5625c1.04199 0 2.13477-.08008 3.27637-.24023 1.14258-.16016 2.18457-.50098 3.12598-1.02246.94141-.52051 1.72363-1.27148 2.34473-2.25391s.93262-2.27441.93262-3.87793c0-2.16406-.67188-3.87793-2.01465-5.14062-1.34277-1.26172-3.0957-1.89355-5.25977-1.89355-1.80371 0-3.36719.40137-4.68945 1.20215-1.32324.80273-2.36523 1.98438-3.12598 3.54688l-4.87012-1.86328c1.04199-2.4043 2.67578-4.20801 4.89941-5.41016 2.22461-1.20312 4.69922-1.80371 7.4248-1.80371 1.68359 0 3.29688.24023 4.83984.7207 1.54199.48145 2.89551 1.18262 4.05762 2.10449 1.16211.92285 2.08398 2.07422 2.76562 3.45703s1.02246 2.99609 1.02246 4.83984c0 2.24512-.67188 4.25879-2.01465 6.04199s-3.0957 3.01562-5.25977 3.69727v.12012c1.3623.24023 2.57422.68164 3.63672 1.32227 1.06152.6416 1.97363 1.43359 2.73535 2.375.76074.94141 1.34277 2.01367 1.74414 3.21582.39941 1.20215.60059 2.46484.60059 3.78809 0 2.04395-.38086 3.82715-1.1416 5.35059-.7627 1.52344-1.78418 2.80566-3.06641 3.84766-1.2832 1.04199-2.77637 1.82422-4.47852 2.34375-1.7041.52051-3.49805.78223-5.38086.78223-3.24707 0-6.07227-.70215-8.47656-2.10449-2.40527-1.40234-4.14844-3.68652-5.23047-6.85352l5.11035-1.68359c.7207 2.28516 1.74316 3.9082 3.06543 4.87012 1.32324.96191 3.16602 1.44238 5.53125 1.44238 1.20215 0 2.32422-.2002 3.36621-.60059s1.9541-.97168 2.73535-1.71387c.78223-.74121 1.40234-1.62305 1.86426-2.64551.45996-1.02148.69141-2.15332.69141-3.39648 0-1.5625-.31152-2.875-.93262-3.9375-.62109-1.06152-1.44238-1.90332-2.46484-2.52539-1.02148-.62012-2.17383-1.07129-3.45605-1.35254-1.2832-.2793-2.58496-.4209-3.9082-.4209h-1.5625v-4.32812z"/></g></svg>