<svg id="Layer_1" data-name="Layer 1" xmlns="http://www.w3.org/2000/svg" viewBox="0 0 479.36746 418"><defs><style>.cls-1,.cls-3{fill:none;}.cls-1,.cls-2{stroke:#476667;}.cls-1,.cls-2,.cls-3{stroke-miterlimit:10;stroke-width:3px;}.cls-2{fill:#54bec6;}.cls-3{stroke:#54bec6;stroke-dasharray:12 6;}</style></defs><title>grpc-newicon-2</title><path class="cls-1" d="M309.39432,274.72771l-9.76528-8.33348a65.02185,65.02185,0,0,0,0-39.21706l9.76528-8.33359a76.71173,76.71173,0,0,0-11.5907-20.04692l-12.09924,4.29014a64.7345,64.7345,0,0,0-33.9473-19.60067l-2.3388-12.64648a77.48367,77.48367,0,0,0-23.15018.00011l-2.33858,12.64637a64.73691,64.73691,0,0,0-33.9473,19.60067L177.883,198.79666a76.69816,76.69816,0,0,0-11.59048,20.04692l9.76506,8.33348a65.01806,65.01806,0,0,0,0,39.21728l-9.76506,8.33337a76.70127,76.70127,0,0,0,11.5907,20.047l12.099-4.29a64.73691,64.73691,0,0,0,33.9473,19.60067l2.33858,12.64615a77.48367,77.48367,0,0,0,23.15018.00011l2.33858-12.64626a64.7344,64.7344,0,0,0,33.94752-19.60067l12.09924,4.29A76.71236,76.71236,0,0,0,309.39432,274.72771Z"/><line class="cls-1" x1="237.84314" y1="154.15318" x2="237.84314" y2="97.0567"/><line class="cls-1" x1="367.51221" y1="321.65012" x2="318.06521" y2="293.10188"/><line class="cls-1" x1="157.62108" y1="293.10188" x2="108.17408" y2="321.65012"/><circle class="cls-1" cx="237.84341" cy="246.78565" r="21.50277"/><polygon class="cls-2" points="129.465 366.721 129.465 309.358 79.787 280.676 30.109 309.358 30.109 366.721 79.787 395.402 129.465 366.721"/><polyline class="cls-1" points="30.109 309.358 79.787 338.039 79.787 395.402"/><line class="cls-1" x1="79.78742" y1="338.03916" x2="129.46537" y2="309.35758"/><polygon class="cls-2" points="445.577 366.721 445.577 309.358 395.899 280.676 346.221 309.358 346.221 366.721 395.899 395.402 445.577 366.721"/><polyline class="cls-1" points="346.221 309.358 395.899 338.039 395.899 395.402"/><line class="cls-1" x1="395.89869" y1="338.03916" x2="445.57664" y2="309.35758"/><polygon class="cls-2" points="287.521 96.923 287.521 39.56 237.843 10.879 188.165 39.56 188.165 96.923 237.843 125.605 287.521 96.923"/><polyline class="cls-1" points="188.165 39.56 237.843 68.242 237.843 125.605"/><line class="cls-1" x1="237.84341" y1="68.24179" x2="287.52136" y2="39.56021"/><line class="cls-3" x1="239.77464" y1="339.41811" x2="239.77464" y2="404.9831"/><line class="cls-3" x1="90.87315" y1="161.36709" x2="147.6541" y2="194.14958"/><line class="cls-3" x1="331.89519" y1="194.14958" x2="388.67614" y2="161.36709"/></svg>