<svg id="Layer_1" data-name="Layer 1" xmlns="http://www.w3.org/2000/svg" viewBox="0 0 479.36746 418"><defs><style>.cls-1,.cls-2{fill:none;stroke-miterlimit:10;stroke-width:3px;}.cls-1{stroke:#54bec6;}.cls-2{stroke:#476667;}.cls-3{fill:#476667;}.cls-4{fill:#54bec6;}</style></defs><title>grpc-newicon-4</title><line class="cls-1" x1="120.27462" y1="208.34415" x2="169.56422" y2="208.34415"/><line class="cls-2" x1="169.02179" y1="131.42854" x2="43.48824" y2="131.42854"/><polygon class="cls-3" points="47.823 131.429 77.654 101.281 62.791 101.281 32.961 131.429 47.823 131.429"/><polygon class="cls-3" points="77.654 161.576 47.823 131.429 32.961 131.429 62.791 161.576 77.654 161.576"/><line class="cls-2" x1="290.64756" y1="131.42854" x2="416.18112" y2="131.42854"/><polygon class="cls-3" points="411.846 131.429 382.016 161.576 396.878 161.576 426.709 131.429 411.846 131.429"/><polygon class="cls-3" points="382.016 101.281 411.846 131.429 426.709 131.429 396.878 101.281 382.016 101.281"/><line class="cls-2" x1="169.02179" y1="285.85678" x2="43.48824" y2="285.85678"/><polygon class="cls-3" points="47.823 285.857 77.654 255.71 62.791 255.71 32.961 285.857 47.823 285.857"/><polygon class="cls-3" points="77.654 316.004 47.823 285.857 32.961 285.857 62.791 316.004 77.654 316.004"/><line class="cls-2" x1="290.64756" y1="285.85678" x2="416.18112" y2="285.85678"/><polygon class="cls-3" points="411.846 285.857 382.016 316.004 396.878 316.004 426.709 285.857 411.846 285.857"/><polygon class="cls-3" points="382.016 255.71 411.846 285.857 426.709 285.857 396.878 255.71 382.016 255.71"/><line class="cls-1" x1="385.41751" y1="208.34415" x2="417.45685" y2="208.34415"/><line class="cls-1" x1="61.63412" y1="208.34415" x2="93.67346" y2="208.34415"/><line class="cls-1" x1="438.38681" y1="208.34415" x2="449.76842" y2="208.34415"/><line class="cls-1" x1="29.91768" y1="208.34415" x2="41.2993" y2="208.34415"/><rect class="cls-4" x="135.78347" y="48.45749" width="125.30773" height="325.15728"/><polygon class="cls-2" points="261.091 48.457 135.783 48.457 135.783 373.615 261.091 373.615 324.633 313.026 324.633 109.046 261.091 48.457"/><line class="cls-2" x1="261.0912" y1="48.45749" x2="261.0912" y2="373.61477"/><line class="cls-1" x1="290.64756" y1="208.34415" x2="365.4931" y2="208.34415"/></svg>