<svg xmlns="http://www.w3.org/2000/svg" fill="none" viewBox="0 0 288 123"><path fill="#fff" d="M33.8582 102.699c2.0254 2.725 4.6635 4.908 7.9122 6.55 3.2493 1.641 6.865 2.463 10.8474 2.463 3.493 0 6.462-.508 8.9083-1.519 2.4451-1.014 4.4181-2.394 5.9212-4.14 1.502-1.748 2.5842-3.791 3.2492-6.1316.663-2.341.9955-4.8385.9955-7.4924v-8.8036h-.2093c-2.2369 3.353-4.9622 5.7298-8.175 7.1266-3.2143 1.3978-6.6026 2.0957-10.166 2.0957-3.5632 0-6.9002-.6291-10.0083-1.8863-3.1103-1.2583-5.8171-2.987-8.1227-5.1874-2.3055-2.2014-4.1231-4.8374-5.4496-7.9133-1.328-3.0737-1.9915-6.3928-1.9915-9.956 0-3.5632.6291-6.8813 1.8868-9.9567 1.2572-3.0737 2.9865-5.7641 5.1874-8.0697 2.201-2.3056 4.821-4.1036 7.8604-5.3973 3.0394-1.292 6.3754-1.9392 10.009-1.9392 1.467 0 3.0214.1412 4.6634.4193 1.641.2802 3.2837.7697 4.9257 1.4676 1.641.6989 3.2657 1.66 4.8734 2.8818 1.6066 1.2234 3.108 2.7772 4.507 4.664h.2093v-8.175h6.9173v48.6296c0 2.654-.3326 5.4833-.996 8.4879-.6646 3.003-1.9567 5.765-3.8774 8.28-1.9228 2.515-4.5953 4.612-8.0174 6.289-3.4243 1.676-7.8963 2.514-13.4152 2.514-4.8914 0-9.2588-.804-13.1001-2.41-3.8435-1.608-7.3365-4.087-10.4806-7.441l5.1356-5.45Zm1.2572-35.0037c0 2.5852.4716 5.014 1.4153 7.283.9432 2.2713 2.2352 4.2633 3.8773 5.9741 1.641 1.713 3.5633 3.0759 5.7642 4.0878 2.2009 1.013 4.5937 1.5194 7.1795 1.5194 2.5149 0 4.9077-.4536 7.1789-1.363 2.2696-.9071 4.2791-2.1823 6.0259-3.8244 1.7456-1.641 3.0917-3.6162 4.0354-5.9223.9431-2.305 1.3787-4.8892 1.31-7.7546 0-2.5847-.4192-5.013-1.2577-7.2841-.8385-2.2697-2.0619-4.2612-3.6685-5.9741-1.6077-1.7113-3.5633-3.0737-5.8689-4.0872-2.3055-1.012-4.8913-1.5194-7.7551-1.5194-2.5858 0-4.9786.5075-7.1795 1.5194-2.2009 1.0135-4.1232 2.3759-5.7642 4.0872-1.642 1.713-2.9341 3.7044-3.8773 5.974-.9437 2.2713-1.4153 4.6995-1.4153 7.2842ZM106.8 92.8477h-7.5453v-74.201h22.8463c7.546 0 13.502 1.6425 17.87 4.9256 4.366 3.2852 6.55 8.2453 6.55 14.8823 0 5.1715-1.624 9.521-4.873 13.0483-3.249 3.529-7.949 5.5723-14.096 6.1306l21.38 35.2142h-9.223l-20.332-34.4804H106.8v34.4804Zm0-41.3976h13.415c3.354 0 6.2-.3484 8.541-1.0479 2.341-.6973 4.209-1.6246 5.608-2.7771 1.396-1.153 2.41-2.5155 3.039-4.0872.629-1.5723.943-3.2657.943-5.0833 0-1.7457-.314-3.4063-.943-4.978-.629-1.5723-1.643-2.9511-3.039-4.1401-1.399-1.1869-3.267-2.112-5.608-2.7771-2.341-.663-5.187-.9955-8.541-.9955H106.8v25.8862Zm55.126-32.8035h21.59c7.545 0 13.501 1.6426 17.868 4.9257 4.366 3.2852 6.551 8.2453 6.551 14.8823 0 6.6386-2.185 11.6167-6.551 14.9347-4.367 3.319-10.323 4.978-17.868 4.978h-14.044v34.4804h-7.546V18.6466Zm7.546 32.8035h12.158c3.353 0 6.199-.3484 8.541-1.0479 2.34-.6973 4.208-1.6246 5.607-2.7771 1.397-1.153 2.41-2.5155 3.039-4.0872.629-1.5723.943-3.2657.943-5.0833 0-1.7457-.314-3.4063-.943-4.978-.629-1.5723-1.642-2.9511-3.039-4.1401-1.399-1.1869-3.267-2.112-5.607-2.7771-2.342-.663-5.189-.9955-8.541-.9955h-12.158v25.8862ZM283.706 81.11c-1.257 1.8863-2.813 3.668-4.663 5.345-1.853 1.6769-3.966 3.1276-6.341 4.3488-2.376 1.2234-4.944 2.1834-7.703 2.8823-2.761.6978-5.678 1.0479-8.752 1.0479-5.519 0-10.637-.979-15.353-2.9341-4.716-1.9551-8.803-4.664-12.262-8.1227-3.458-3.4586-6.167-7.5622-8.122-12.314-1.958-4.7506-2.934-9.9565-2.934-15.616 0-5.6595.977-10.8633 2.934-15.6156 1.955-4.7507 4.664-8.856 8.122-12.3145 3.459-3.4585 7.546-6.1655 12.262-8.1221 4.716-1.9556 9.834-2.9347 15.353-2.9347 4.612 0 9.224.9088 13.835 2.7248 4.611 1.8176 8.558 4.821 11.842 9.0134l-6.602 4.9257c-.77-1.1874-1.818-2.3748-3.145-3.5633-1.328-1.1874-2.847-2.2352-4.558-3.144-1.713-.9072-3.547-1.641-5.502-2.2009-1.957-.5588-3.914-.8385-5.87-.8385-4.751 0-9.013.8745-12.785 2.6202-3.773 1.7472-6.969 4.0872-9.589 7.0213-2.621 2.9347-4.631 6.341-6.027 10.2189-1.398 3.8773-2.096 7.9486-2.096 12.2093 0 4.2627.698 8.332 2.096 12.2093 1.396 3.8783 3.406 7.284 6.027 10.2183 2.62 2.9352 5.816 5.2762 9.589 7.0219 3.772 1.7478 8.034 2.62 12.785 2.62 1.956 0 3.895-.1733 5.817-.5233 1.921-.349 3.807-.9432 5.66-1.7816 1.85-.8385 3.597-1.9742 5.24-3.4069 1.641-1.4306 3.161-3.2302 4.558-5.3967l6.184 4.4018Z"/><path fill="#00B0AD" d="M2.76001 23.47 22.23 4 41.7 23.47 22.23 42.94 2.76001 23.47ZM64.01 23.2401l11.42-11.42 11.42 11.42-11.42 11.42-11.42-11.42Z"/><path fill="#fff" d="M23.0105 11.6979 11.2639 23.5324l11.8342 11.7468 10.0115-.0372-10.4982-10.4145 51.842-.1923-4.5437 4.5747 5.0057-.0186 5.8734-5.9171-5.917-5.8733-5.0057.0186 4.5776 4.5412-51.8418.1922 10.4203-10.492-10.0117.037Z"/></svg>
